<mxfile host="Electron" modified="2024-05-31T08:25:10.212Z" agent="Mozilla/5.0 (Windows NT 10.0; Win64; x64) AppleWebKit/537.36 (KHTML, like Gecko) draw.io/23.1.5 Chrome/120.0.6099.109 Electron/28.1.0 Safari/537.36" etag="HZK8_J3vs4P2qfd6qgZZ" version="23.1.5" type="device">
  <diagram name="Page-1" id="xWXjDfIvS4GUjvMdHPym">
    <mxGraphModel dx="1434" dy="844" grid="1" gridSize="10" guides="1" tooltips="1" connect="1" arrows="1" fold="1" page="1" pageScale="1" pageWidth="850" pageHeight="1100" math="0" shadow="0">
      <root>
        <mxCell id="0" />
        <mxCell id="1" parent="0" />
        <mxCell id="cTySW3DaNSFtTWo8WYRS-5" value="" style="group" vertex="1" connectable="0" parent="1">
          <mxGeometry x="80" y="210" width="160" height="90" as="geometry" />
        </mxCell>
        <mxCell id="cTySW3DaNSFtTWo8WYRS-1" value="http://IP:PORT/status" style="rounded=1;whiteSpace=wrap;html=1;" vertex="1" parent="cTySW3DaNSFtTWo8WYRS-5">
          <mxGeometry y="30" width="160" height="60" as="geometry" />
        </mxCell>
        <mxCell id="cTySW3DaNSFtTWo8WYRS-2" value="Shelly Device" style="text;html=1;align=center;verticalAlign=middle;resizable=0;points=[];autosize=1;strokeColor=none;fillColor=none;" vertex="1" parent="cTySW3DaNSFtTWo8WYRS-5">
          <mxGeometry x="30" width="100" height="30" as="geometry" />
        </mxCell>
        <mxCell id="cTySW3DaNSFtTWo8WYRS-6" value="" style="group" vertex="1" connectable="0" parent="1">
          <mxGeometry x="1195" y="210" width="160" height="90" as="geometry" />
        </mxCell>
        <mxCell id="cTySW3DaNSFtTWo8WYRS-7" value="Grafana" style="rounded=1;whiteSpace=wrap;html=1;" vertex="1" parent="cTySW3DaNSFtTWo8WYRS-6">
          <mxGeometry y="30" width="160" height="60" as="geometry" />
        </mxCell>
        <mxCell id="cTySW3DaNSFtTWo8WYRS-8" value="Grafana" style="text;html=1;align=center;verticalAlign=middle;resizable=0;points=[];autosize=1;strokeColor=none;fillColor=none;" vertex="1" parent="cTySW3DaNSFtTWo8WYRS-6">
          <mxGeometry x="45" width="70" height="30" as="geometry" />
        </mxCell>
        <mxCell id="cTySW3DaNSFtTWo8WYRS-10" value="" style="group" vertex="1" connectable="0" parent="1">
          <mxGeometry x="920" y="210" width="160" height="90" as="geometry" />
        </mxCell>
        <mxCell id="cTySW3DaNSFtTWo8WYRS-11" value="Prometheus" style="rounded=1;whiteSpace=wrap;html=1;" vertex="1" parent="cTySW3DaNSFtTWo8WYRS-10">
          <mxGeometry y="30" width="160" height="60" as="geometry" />
        </mxCell>
        <mxCell id="cTySW3DaNSFtTWo8WYRS-12" value="Prometheus" style="text;html=1;align=center;verticalAlign=middle;resizable=0;points=[];autosize=1;strokeColor=none;fillColor=none;" vertex="1" parent="cTySW3DaNSFtTWo8WYRS-10">
          <mxGeometry x="35" width="90" height="30" as="geometry" />
        </mxCell>
        <mxCell id="cTySW3DaNSFtTWo8WYRS-13" value="" style="group" vertex="1" connectable="0" parent="1">
          <mxGeometry x="505.5" y="210" width="160" height="90" as="geometry" />
        </mxCell>
        <mxCell id="cTySW3DaNSFtTWo8WYRS-14" value="http://IP:PORT/metrics" style="rounded=1;whiteSpace=wrap;html=1;" vertex="1" parent="cTySW3DaNSFtTWo8WYRS-13">
          <mxGeometry y="30" width="160" height="60" as="geometry" />
        </mxCell>
        <mxCell id="cTySW3DaNSFtTWo8WYRS-15" value="SMEX" style="text;html=1;align=center;verticalAlign=middle;resizable=0;points=[];autosize=1;strokeColor=none;fillColor=none;" vertex="1" parent="cTySW3DaNSFtTWo8WYRS-13">
          <mxGeometry x="50" width="60" height="30" as="geometry" />
        </mxCell>
        <mxCell id="cTySW3DaNSFtTWo8WYRS-17" value="" style="shape=image;verticalLabelPosition=bottom;labelBackgroundColor=default;verticalAlign=top;aspect=fixed;imageAspect=0;image=data:image/png,iVBORw0KGgoAAAANSUhEUgAAAbEAAAQCCAYAAAAitsbNAAAgAElEQVR4Aey9f+w911nfmb9X4W8cOyEORE1LbC0tBAIh65iAE9WEaNdIjrV1Ujk4XhGSoGJnA62Jv3GxN3IWQfixXquCYmkJKlRab9SigLQoUuUV4p9WhYpdOUnDQrX8Aez2X0uZ1fvez/ve5z73zNy59869M2fm9ZVGZ+bMOc8585z3nNd55n6+M695/R3f2rDhAzSABtAAGqhRA6+psdP0mZsNDaABNIAGpAEgRiRKJI4G0AAaqFYDQAzxViteVuKsxNEAGgBiQAyIoQE0gAaq1QAQQ7zVipdVOKtwNIAGgBgQA2JoAA2ggWo1AMQQb7XiZRXOKhwNoAEgBsSAGBpAA2igWg0AMcRbrXhZhbMKRwNooBqI/egDD/WYbN/UvP4ONnyABobTAJMkoJy2BqqH2B23v6lhwwdo4PIaYDKf9mS+1PGpGGK+ae9sbn+dtjfubK973RsbNnyABo7XQL6XdH/dcbs2R7hM5ksFxhSvu1KIrQFmeL3utm9pbvvmN+xs3/zNb2jY8AEaOF4D+V7S/bUGGyCb4iS+9D7tQOxNd76lufuuv9d813d+b/O27/q+q25qU22rD6VBib+JaUUogL3utjeuyn/32+5p7n3X/c0P3Ps+NnyABgbUgO4r3V+6L3W/raMyRWREY/hgGhrYQEwiHQNeGZbqQwlkuxBbPz5UOeAFuFm8XF4Dus90vyki2z5anMYkBkyWPQ4biCkKykAZ61h9ycKMEFtHYd+yWiEygV1+AsPH+FgaUES2frTox4rLnjzzHMXxOHrYQGwKUZihqb5kQexC7I2r37+IwphcAez1NKD7Tb+XraMxHinmOYrjkSFmgEwlzYIoQYwJ7HoTGL7G19LALsQAWZ6nOL4+yDaR2FTg5X5kMQAxJlFAOr4GgNj1J+k8F3K8OwZVQkz/90c3E5Pa+JMaY7CsMdB9p/uP/zO2O5EClvH8US3E9P9/mECXNYEy3uOPt+47IDbehA0s930PxAb8PzVMsuNPsozBZccAiO1PooBlXJ8AMSBGRIsGemsAiI07YQPMff+fBbGnPv1Pm+f/p3/WuX3600+f9P/P8mDFP+zQ4wweJ152xU1Eg39LGgBi+5Nonqs4vq6PTobYS//rv2peffUbvTaV9V8d9k2zEIAYk2ppUiXvuroAYtedoPM8yPG+/0+G2PPP/7Pmp37qUwfhpDIq2xdeLpcHC4hdd7ICDvi7pIFLQOw99/3w3ssN8v3P8f7kjU/WPjkZYobNpdI8QECMSbU0qZJ3XV1cAmJ6ohPv73zvcwzAujRwNMQe+8hHmz/7s7/o9RgxPm5UHdXtC73c6Sjyo38Te+6Pmldf/aPmc/EH/FXe+nHo1//FE5sftj/38vYRaczfmyxLNu99X7Ot/xfNb3/0ZoJpaWvHZp8y6n+h3W2b32hin3/iX8RxStdvWy//8ubad/oTfcV+tT760z/9SvORRz+x13/l6dyxYw7EAEqem8c+Phpif/Zn/6n5D//h/1o9ItRjwr6b6ghk14XYE81vf/0bzasv/1HzcoTYR19qvr45/uXm5VdvgPPRl5rffs4r25C/M4m32LwBWITIeoKIduK+21GqfEOmrUxLux19Ftxe3lxPbE/7shdAu3ON7lPXedtr66/Pkx4LiiHLC1Z//uf/zw7ISnl92wRiQGxsaOX2j4aYoqtTfuNSHdW9LsQ8gUZIvK9RhBJhk4/XN3SfSd7gUTu/3Lz89Zean8gwEDBDfhEsiq5CRFTuT/ladief3T5/7uUOCKlfoc1dOzfXY7jna9o5BmL7vvNYTSON0Ir7p/QbiAGxDJGxj4HYvftQW9/cu+Dbv+HT+RWIFPHdPI7cgCuCJdW5gcEetBLUdtsu29jvs9ptfzSqNrdR2m7Zl59TG9u6Bmx8bLnOK5VTXoRnPM7tTGOS3/XvPPtkeOWo7NhrHxpi3/53vmO1uP3ZJ5/mjzv40OhJGhgMYvH3r1LENaVIbPd3pfXEGiMz3diasHPe7g2vyTlEYqvfqraT90791ePLNRS24NhOlkNBbKfNzmip0Pe9qCzCZ9vXtQ/iubivch3HnXDObXC8q7fz/DEFiOl37TxPdB0DNqK+PlHeYBDLv43lx4aTgthN9LW+gf6iefnl+HixDLX9CUWTdYJYBIEn7B6PE8+H2OE+7wDuuT/aBfQNZHehnWHkPypxhGZg53Idx8V2zpuc98cFe9knBpjSuJ/L9Tk+NxITyOImUOk+/MIXfmcnX2UUpfWZxCizbNgNBrEMrXw8NYjFG1YT/DpCEgw8OR+aDPtBrBegDLy2x4t7UVWA58E/0FhfR59rVF81oax9kWC0ApDbjX5K5boisXB923YO+ZnzUavH7pegVcrra/dciJWAIy0IWqVz5C0bUH3GH4gJIP79KsFke2PniVoTa4LYzuS9joxWMIj2dx5TBps7gAj5OzY9mad2W/vs8u9rfmBl/wbO2o8R4w4g4++DsR83UZj9FO3t9TFcu2yrfzu/ka37tQf31I+t78N1UOboP4nnT+yBQB8Q1FxmoRDTBO3HYo4u1hO4VoVxWz9iSxP6ajJNMFHeanK/qR9A4QhnZXeTn2yuJvt13e3vZqlMod0d2zd93/Z5ey22qfLe34AitB3/P52it22f13BaHX/9j5qXQ8S6W87gcl39scsNQFva2fQDSB0NqWv7jkgMKE4NeAuBGKv59WTX8t8AgMfk4XFtWLW1B8SAWPUQ+5u/+c/Nn/zJ/9n55vrSm+1VR/9ROv9W1nacHRWfmR/9xg4maSZpNDCIBi4Bsc899wv8EQd/Xn/yb6JHR2Lr1079p51HbvHxW9u+ADbaa6eYwAaZwNpW5+QvJ9K/BMTygpVjor1jNHA0xNoip6Hz80UQiS1nogSK0x1rIAZg8tw89jEQI0ojSkMDvTUAxIDY2NDK7QMxJrDeExgR0nQjpGuNDRADYhkiYx9XC7HbvvkNTL4AGA1cWQO67/SHVXfc/qbm9XdoY1LHB+NqoEqI3f66NzZAjKjgWtEH7Wy1pvtO9x8QG3fiBpxb/wOxK69kmRC3EyK+qM8XQGw7eQKSafhiA7Hv+s7v7f1/uIb+S8RsT33JAol/nehI7N533c/jJCCMBq6kAd1vuxCbxiSW5wqOlzUuG4jdfdffmwzE1JcsxF2I3dm87rZvab77bfcwgV1pAiNqqi9qGnrMdL/pvrv9dXfePE5c1mSZ5ySOpzH+G4i96c63NFOIxtQH9SULJELsjtvvXD2XVzmiMSbXoSdr7O1rSveZ7rf172FALM9PHI8HtA3ENAgSqaKgMWCmNtV2CWDq2y7E3rRaDb7utjeuymuFCMz2Jx4mY3xyrgZ0X+n+0n2p+40obLzJGlCWfb8DsSk7KUJMf9qrv47SDaWVoR5x6Fl93PT/WdjwARo4XgPxPtL++hFiBBh/Wj/luXJpfasUYiLyGmTrR4trmAlo3vR/WdjwARo4XgO+h7apHh/6ESIAWxokpn69FUNsHVoqImPDB2jg8hqY+mRG/8qP2+bul+ohtjtAfosA6fptCvgBP5yrgWVOjLvzCj6Ysj9e89Zv/86GDR+gATSABtBAjRoAYkCcRQwaQANooFoNADHEW614a1w10meiHTQwrAaAGBADYmgADaCBajUAxBDvVcX7t9/yHc2dd76lecMd37b3VpYp/3hM3/jjBjQwTQ0AMSB2NYgJYMBrmhMBEzTjUqsGgBgQuxrEFIHVeqPQbyZ5NDBNDQAxIHY1iBGFTXMSYHJmXGrWABADYleDWM03Cn1nokcD09QAEANiQOyOad6cTJqMCxo4rAEgBsSAGBDjt0o0UK0GgBgQA2JMYNVOYEQqhyOVufsIiAGxSUPs2//OdzTPPfcLzV/91f+72rQ/95uS62NiRgP9NQDEgFjz9u95V/OlL/3vzauvfmOV6vgSr8Y59sb8yZ98ovnaV/+s+eu//v8a7f/sk0+v9pX3k594fDCY6YOrsqnrL21f+M3fbgTTY/tP+f4TEb7CV6dq4GIQu++H3reaHC8xGZ5j8zv+y7c33/22d15kku7TLwHilz7/Pzf//t//6WbC1L7yDI8H/puHVjDpY+/cMmpT7f/xH/9p86EPfmSV6th9Odd+rN9XpI888tgGXp977hd2ACKYKE9g+7f/9o+b3S9+nzYRfO1r/3fzhS/8zsqW7MXNUFNbgOw0//Ydd8rh31M0cBGIaRLWJPPMM//jaLCIk2fcf//7H2x++lOfbt7xfT9w9b79zE8/tfLL17/+FyvfCBra5CflyWc/93OfW6WaPGO/L7EfAWZoKRXQLgGyPgIVTHTtL7zwa53QePvb/6sVeFRWkVIf221lZKMNhjrnDZAxybZpiPzxtDE4xAywf/kv/7eLT8KnTuwCx7VBJoBpMuwC+2/88/9lM2Gq7KnX16deCWCudymQHbrR33PfD6+uvw0opfoqK18JaqXzffJUv61NnYubINvHZnuZH21eeOUPmif2/phE+aGt3/+Z3XYe/4Odfryaz+/Z06TS1pbO/Uzz+/Haduylvrzya837i/bXE9cTv9/R72K9ln4dusZ8/tVvNK+88KO7frppT336/cfHm1jbx58+De2bQSFWA8A8UV8TZILCocjUUIkTpvs6dOq2FHFpv2Rf+UNHZIfEa4gdAyQ94pPPVPeQ/bbzqt8GsX/37/5kFx6vfuPkdl6/mYQzxNbQiBPyCgwbsORJf12+c5JubWsLsNhe9M1u29/avP+FrzVt0MznVLfN7qqN1n4dvka11WnbwPyRX2teeTX7OMFD/dj4N52znZgeWz7WZf/0e6aH7waDWE0A86R9LZD90i89v3pc6HZLqSLXCLC/+ev/XIRLqe4xeX0AZntDgyxOlG37XUAp1XEkVjrXN69vm2e1tZpYv9a88COKgNIEW5p0S3nxhu6aVLvauuNbm27QCCbqZ5jYZa8YjfW8Fvf7QL/2xitdY1+I9SqXbO+17T47Pba865FeFGAat0EgViPAPFFfA2SKaLoeI7ov10jVF03auu4+7amcyus3sj7lu8ocnCju+Nbm3/yb/2P1hxt9yqqM/shDdfqWL5W7CsQ2k1lh4tcEmcG2etyXYLKxsY6ODkclhbYO2JV/ekdXRbgVIBj6vfZ/qV8BmjflM4x03Bl9rurttr+6ls1j0/XiYTcvPHZcjYMfjW59Xy5fuIYEut16aeGy55P96y9plbx9Pw0CMUUNmgiO2fR4rWvCO+fcT3/qqeZnn/y5ozb9RnZOm1115Ze+0OiyM8Q5wfSY/hhiQ0C4zw2o35z+9b/6vd5QUtlzf6eSP9oeJ8Y+nxWJbSatwuR38/tUhNLqkd6r24k09mP9e1bbuXiTF9paRUN/0DyxM2HvT7BxAo792ulHmrTX53YhslO+0wex39pX33evce2TMM+UHgeqT44afa1u9/Gf2f4WWej7Ey+E3/6iHdXfK1/wbSzT1bb7Q9r7Pi/raK2ZQSDmP1rQIzFNen02RW9DTMolG/rLw3fd895em/oq4N3/9//ri/XnGGjoehzZlq5tiLzcH/ngP/7HP1/BTamO3Y72Vd7H56RdQvQ5/X8w/cdmHx9KtRjSn+QfKtd1fnyIedLeTtCvvPBre5P46hpWk2OIHjonwsJEe1N/5/cgTb6bSFAQ+sbO70UroBkMsb04aW/yB4BYr2vc76f8I9BtorWVnV0QbnRQ7HsEafLdXvl0Xtcfy3S1vfFVbI/9zdgc6Z9BIKaJzSBTes5Ed826AtelAabrOfZxon5DU51L+SJDTH/e7wWI2hbI3Pa1IaY/1BCYBLNDolYZlT33/29NA2JpEltNgrsR0jo62s3r9lFhoi1OrgE8hXbXf+UY4OBJRmX34BZsudxeWujXTZmjrlHQ2MBX/ivYXV3PenGwgZvaisBx/0JZaWLH9l75Qlu5TLC307bbIz14j3fre33PDAYxTXo1gexaAJNfMhgMiLZUUFGdtvPn5meIxeMMrXx8Ttt9BKky+p1L0VjXXynqnMqobF+7beWmCLHVZB4el+XjtmvZzS9MtIXHdGtI3UQse2DQRLGOevYn4oL9ItgSoEuwKfwWt3st2cYNiALEun2kvgYQZ+DsXXe6tly+dA17Zdzn1DbwOvuejdoYFGKa4GoA2TUBJp/or/z0u2Gf35VURmVV5xxgdNWN0FK5eJyhlY+77B46F4V3aF9/rNH2n4sVeencuX/Q4T5MDmKrCTU+BksTap4EVyv+WD5OnvuR22qyjxGU2tscryfc+DvYqrxhkdpa/U4VYKvjTd1U1v4uRkwlKOxc5482L/x++M1qVT60tQJt8sHjf7B9tJhBnIGz44ObP27xNasfufyNvc213hxvHtN2tb1zXR4r0q0+jvPF4BDTRGaQfewnfupiE/GhCbPtvF6HdY1HiLl9+0Rv5MjnfOw/ulBZ510ijdCS/XicoZWPz+nPMSIVqPR/tASr+H/AtK88nTv3MaL7o0eSeuuHfovs2lRGr6hyvdPSEpBuft/Z/HFUAs8KBtvfyzRe6+2m3FGwWE8QO38ksQGYJ481yPba0eS719Zu37eTeqlstH/kNRoSm2uPALtpK19H9luA7Rqk8TFjvg79Jhn7uPXJJiLdsf+15oUXwv892zm3+xvjabqx70iz/y4CMU10ApgmwHMmvUvU1R98CGSXsH3IpuCkKEu/OQlmH/zgo6tN+8rTuUsDTH1UO7/zOy9t2tdk5f4o1bH7pnJ6vHno2vqcz+I7dCxI6a8P9djwyX/ymc3b7JU3FMDUB/3VoeC0nbQNid1UZfr8FeOh6+L88BPxTgRIpHPmQmv48bmk5i8GsT6T2hLL6DGh/3DDk6b+iEN5l3yEGH2txYXA5Pa7UpUbajFyqpD99npFTNo/1Q716pqc+o9XKbqd67VyXVkXQIxPsQwSZUVItu1n8XHMhIQG0MC5GgBiQAyI8fiJ6BYNVKsBIAbEgBgTWLUT2LmreOrXHwkCMSAGxIAYEEMD1WoAiAGxq0HsDXd8W7U3Civ2+lfsjOE8xxCIAbGrQezOO98CxFjxowE0MKgGgBgQuxrE/vZbvqMhGpvnapgoh3EdSwNADIhdDWL603uBTBEZMGPSG2vSo915aQ+IAbGrQqzt/5CR/52MA/ciGjhBA0DsBKcx4TLhogE0gAamoQEgBsRY/aEBNIAGqtUAEEO81YqXlfA0VsKMA+MwpgaAGBADYmgADaCBajUAxBBvteIdc/VH20QfaGAaGgBiQAyIoQE0gAaq1QAQQ7zVipeV8DRWwowD4zCmBoAYEANiaAANoIFqNQDEEG+14h1z9UfbRB9oYBoaAGJADIihATSABqrVABBDvNWKl5XwNFbCjAPjMKYGgBgQA2JoAA2ggWo1AMQQb7XiHXP1R9tEH2hgGhoAYkAMiKEBNIAGqtUAEEO81YqXlfA0VsKMA+MwpgaAGBADYmgADaCBajUAxBBvteIdc/VH20QfaGAaGgBiQAyIoQE0gAaq1QAQQ7zVipeV8DRWwowD4zCmBoAYEANiaAANoIFqNQDEEG+14h1z9UfbRB9oYBoaAGJADIihATSABqrVABBDvNWKl5XwNFbCjAPjMKYGgBgQA2JoAA2ggWo1AMQQb7XiHXP1R9tEH2hgGhoAYkAMiKEBNIAGqtUAEEO81YqXlfA0VsKMA+MwpgaAGBADYmgADaCBajUAxBBvteIdc/VH20QfaGAaGgBiQAyIoQE0gAaq1QAQQ7zVipeV8DRWwowD4zCmBl7z2td+U8OGD9AAGkADaKBGDbzmv/inTTOHrUbn02cmDTSABtDAeRoAYkSiROJoAA2ggWo1wONExFuteFnBnreCxX/4bw4aAGJADIihATSABqrVABBDvNWKdw6rSK6BaAgNnKcBIAbEgBgaQANooFoNADHEW614WcGet4LFf/hvDhoAYkAMiKEBNIAGqtUAEEO81Yp3DqtIroFoCA2cpwEgBsSAGBpAA2igWg2cALGPN19qvtL8yrtv6Pmx32u2/36v+VgUw865pvnKr/xgcJTsNE3zpY+HPNlM9qO9wfbf0zz50hebl8L25H3nrQb2V1P7bTz/4bvStQ7d5hD21O8Xmg+/Ndtqy8/l+hwPaatPe5TZ1yc+wSfz0MB5EHv3rzZfaQK43v2rza987MYxK4AF2L32B5tf+UoE2RpWX/lK03zJdVaQuhbEwkR936ebl176dHPfYJCUD/JEreMvNi89+Z4DIMv1ri20tvbb8k/p35C2TmmfOkzgaGAuGjgPYgLVV361effe5L8G1i6cvql57Q70bmD1sV9tvrJjYwSI7QFnCIEXJuq3/ljz/EFYFurt+XeI/rXZaGu/Lb/NTlf+kLa62uHcXCYqrgMtt2ngPIitHv3F6OrG0Tuwis4X3BydbWH1sS9FG9v8tk6fn58mUUViz/9Y89YbWNz3ZHjUeBM5KW/7yDHVF5z2IqxUZmX7rubDz2/t7LejOuW2N48+99qJ/h1iv9Rv2U35KyC7r9sodv+abvoUyj//4R/bfWQZzm0j4nV7Tz75wk2UvPad/bAdiyGuGRvn31P4EB+Oo4EzIaZOr6Ou1c9bfiwoiO1EV764GKFFWLXtu97QaRkW+yIME7dAZ4Dc9+nm+edfaPwb11s/vN3f2gh1N5HULsTKZUv1fP1d51zm3FRtGE459SPY1A/5Y+/3vlhmbdPgkb9e2vzuFst9U/Paja11nY3d6P+NP8+9VupvNYgv8EWdGhgAYjcXvoq+bn7fOjISW4lHjyZXf+QRgXYpp4aJcxUFbCOJVV9Wv5F5Ar+ZuFXuJlq778kXmg/f52OByZN77G9oYzPpprKldnLEo7rFcrGtIfdL/Zb9kL8TOd34KQDe0dIGVMF364mij61QRj64aXMDtY1Ph7x2bDGRo4HaNDAcxF77Tc279ZcbKxDFiCuIYgduGVauk/ND/cEmrt0JcieSWk2WhlqEjvff0zy5gpmOP93ctzdBu7+7bayEEW3H/dfatuqmeq3l3M7QaWp/4/OQv9On0P5Ofrgm5YfHtTvXuFMn2Mp+uOnHOorbPpKt7Yajv3GM2UcP52vgeIjFP+b42K9u/9Q+//Xh6q8Tw18u7v1+VoDVTTTXxD/h30yi51/sVjBhQl7ZD8eKejzhribYbZS1gl16jPjkk6VHaeprsLlpI0y+re2keq3lhvRHtJXa3/g/5mv/i/uPEFv7ui7f/jixYGvPf9s+7iw6Nv3bnt+OM3n4Ag3MXQNHQEzQ0T//YYbE4bzVif3/87UC2c05/Zcw/2a2mngKEHM0t9PGJUQYJ+S1/dUKfxNh3Twie/7TzZPxUWGC2voR1xZyu2JZT9x7j9Y2k64ilXI7mz+OWD2iay+3295Qftr3zbqdlL/yhR+5+r8OdPRVgLv5ra37DztsK7UX6m//+GOoa8bOZbSEX/Hr5TVwBMQu3xkGHB+jATSABtDAMRoAYpvICOEcIxzKohc0gAamoAEgBsQOvEGEG3UKNyp9QIdooKwBIAbEgBgaQANooFoNADHEW614WZmWV6b4Bb8sSQNADIgBMTSABtBAtRoAYoi3WvEuabXJtRJdoYGyBoAYEANiaAANoIFqNQDEEG+14mVlWl6Z4hf8siQNvObtb39nw4YP0AAaQANooEYNvOa2225v2PABGkADaAAN1KiBToi9+c1vad72tu+7SqSmdtReyYnX7EdciUyxT7F/Y+7jm3eu7o2s2W/7trc0bPgADVxPA50QuxbAPBmrvRLErt0P90fpFPsU+zfmPr7Z14cmr9vecCcbPkADV9JAJ8TGmCBLEBujH7HNKfYp9m/MfXzzzp2FFxAD4CxirqsBINbjD1uYqNt/8MY3QIxJ+7qTNv7e9TcQA2Jn/eYJxNYQ+6Efes8qIiMS251gmHDxx6U1AMSAGBDroYGuR7YCORBjsr70ZI39ssaAWI8JjGiDx4lDQuwfPf7J5tn/4bOd2z96/An+MOBKfxgAHMpwqMUvQAyIEYn10MDQEPsBPX5smaR1TqBrO09+3ZMu4zfs+B0HsUd+vnnppS/ebL/RfOr97Sv0rpu+61zvqGenL19sfv1TD5w1GY/Tp480z71kP8b94f3adX2rc+//x82vb/ri9mOf4r7P7/5Rg8duty3Vs2bW6XOPbOvvlr10fvkaNn04wwfHPE68++9+Z3Pr1tPN33rr3XugUt5P/8w/aVSmNNn90i/9ShO3Bx/6B6tyynN57d/9d79rk+99nz8ljTZ/4Ifeu9OHaD+fc//cpux89Cc+vumr8qNtlyMddqKfsz/7Q6x4gw8/6XgijOlmkvGKeQWwn28e8fGF09gX7w/Tpzipxv3h/brX3+Sz93/qN5rnnvv5tBiIfYr72/7ZHzHdbatcb7fM1t5l87v7co4PjoGYJpT3/vCPNI8/8cnmB9/793e2x5/475uuKK3PhB/LxP1zJjLbEbC8n+0JWDoX8z/91Gd2oKXzyovga7MX7bAP1No0cCTESuB4oPnUr29X2uuIaJ23WXELOr/+j5v3ryZOTSQ35Z/7yF70FCdD7+9ObLLt6KU0+QX7O5HFzQT2qW00ue5fV1/X9t2PmA7ap1VEGyfYkk/Vl7ZrWPdTk/A6Uo7jFPxR8Pf6OtSe6nykeW4zTqG9vf6t21Pd6BPv7/omXte23iPPbaPnVb9Xfeu6vv4+2Y3K4/X/fIh8t30ZwgfHQkw35I995L9r/uEjH95ATPvKa7tZld824cd87yv1FiMi58WISHk6FmBK7eu8wGOIlcpkOKlMLi87itZiO7Zdskke8Dqkgf4Qe/s7G0+SGzil1fx6kl1PoNuJ6Z1NnLC0v4XHPow8EcZ0Z1JURLgz0e5ORrGtt5fg6Yk8RHOxr9rfnQR7TNRn9ck+KE/20afr/S82LxWuYbfc1ieH/L3yrfp/Y3NbXjZin+L+1jTjCjoAACAASURBVH4cJ+/vjNfKxnaR89JLBqzs3YBzJ6/t+rZt7l6r7LTX2dPDzsIm2DzTB6dA7I3f9rdWf9zhaEx/7KG8rptWE37cBASVjyBo21c5gcp1InRUJ4Iu9yHadMRlOyqbYRXrqx2XtZ3YD+fFOuwDr74aOApi68npZtKIIFkBwRPVzaS8mdi1go4Ttcut0wxET4Qx3ZkUN3bDBLSBaZ5o43HcV91wvLEZ+7q1H/vi/eH7FPqj6yn5NPZ5E9XatzeRigG3Od/tb13HDrjU7sZG7FPcP8I3e33e1vWiaLtoyG2k46N9kup39OVcH5wCMd2kAleE2KEbt23Cj/lt+7Ktc3HLcGlrP9p0GeU5ojoEMZ13+9533ZJtt0EKzA5p4ASIaRJaT5grAGli2QAtTho3QHgkRk7x/HYyi0AwJGIaz+/AZwMv28r243HcV/l4XOqrbfaIxHZsbeut+x3bye3Gc2G/1aehzAZShti63TUYYrSze37Xl+7PLuh2oyXXz22v24vj5P3dNsr1VmVuoLRdyOSy4fgkn4T6Lf7ajtF5PqgJYoZInBwOgaTtfCnKinYz3KIdRXSO6kp9inbYB2ZtGhgGYl65ryYlT3o3K/ydPxZYw2+78l5PhHHS80QY03he+6uJegPO9UT8qZu/Ttx7fLQppwkt/Q6zObe2uf+HDX0n6nP6ZH+FCVd+LPq0+xrWfroB8up3rMP+XkV8butmUbCNSkKfWkAdx8n7u+MVbcTxVn75caL1sTPOnT6xD9da2P7FZ7r+pM9NP6PtE31wKsT0V4oP/YOHV9GYorK2G9X5EQLOUxrz2/ZVTtApPTaMdaJd7Sta0/mcb3uO5gykWC63l9vRscoAMSAVdXPMfn+I6ZGb/yAj/gaxmtxuVrHPpR/OS5PGjh1HDNvJzRNhTDeTzc0Eo2M/iur8Q4ad3z/Wk+lzz/mPH+LE58d3Ke+mvdgX7w/Zp/V/VYiTvfZLPu26hlgn/MHMAX9vgbUdgy3Ycp/2/WN/xHTXN6FfN9ckSMXFxmosVyDte31RZ7GPGWLvbN4erz/rcw9Yp/vgVIjpNzD9n7Af/4mPrx4tHrp5MwRcPubHff32pGODy5GR8rSV6jtPqesbVLm+zsfyBpntu12XUX4ElgEZ81yWFLD10UB/iAWA7E5S4cYfoEycDL0/THt5stvt986qP12H+xHTYfq024fDNruv4XD9Y9s7XD76xPun92N619fnWnTdp0LMN+mDD/23/Afnlv/8bR+RArWSBoDYze97L+1EbbuTtyfnmPaZ3IYvM71JPvrE+6df9/Sur8+16LrPhVjp5iSPSRsNHNbAgiC2C6Y+k5PLeHKOqc8tPY0+8f7SfOLrVspb7A9POkzM+GhIDQCx9OiwNAHHScr7pXJLzLM/Yro0P8RrB2JM0ENO0Ng6rKdOiOnz89eckKb4ufsp9umaY9LVFr55Z5N9AMQOTzpMzPhoSA10QuzNb37L6ibtmsiGOqfJQO3FVa33r9mPeD1T7FPs35j7+GYNsKxZQYwNH6CB62mgE2KGCOntRbjiF/yCBtAAGhhXA685djX/V69/c8OGD5augWPvG8qf/odV+A7fdWng6Ehs6ZMX1w/ApQFW3+OuvvE//rcGgBiRJZH1CRrwDUTKZIoGxtUAEDthAiMaIxpj4hp34sL/+N8aAGJAjEjsBA34BiJlMkUD42pgEIgxiOMOIv6/rP9LkTc+v6zP8S/+7asBIHYbYukrlqWWA2LcI0vVfg3XDcSAGH9pd0ADQAyI1TCZL7WPQOzABLZUYXDd24kbiG19gS7wxdQ0AMSAGJHYAQ0AMSbuqU3c9GerSSB2YAJDLFuxLNUXQAwNLFX7NVw3EANiRGIHNADEgFgNk/lS+zg4xL79e36weew3X5nsxKi+qY9dAz71a+jq+5zP3X3PXc0zX318tT3w9P2dY/jJLz+2Kvfoiw91luvjLyAGxProhDLj6ASIFVbhQGwcMR6aBASmex95R28oqSwQm+ZYHhprzjNufTVwMYgp4nniD5rmA8/97mbScV7O/94HProqm/NLF5EBI/vK06Z9txHbfe8nPr+xrzZUVrZdNrarejqOm/qn8rGfshn7p3qxzXiO/WFuSEFM0Vj0pyMuRWgZWCWIKc/RXCwf83OURyQ2zPjFcWMfnw6lgYtATADwxC9QGBqx0zFf5eO5rn3ZUl2XETiUp63Ubi4f27UNpTE/19F55UVIuV3b0HE873zS829WQcXgcVrya4ZcCWKqn+sKjBFo2o+wBGLnj2H2Ocf4dCgNXARiJciow5rkY4QjMMR8H3ddXAaMYZLzFSkJpEpj1BRh1dafbEv9iVGYr8Gg7uov54a7WTOk5FsBx2BTGuFTgpjL53LRhvZV12MHxIYbQ/uUFJ8OpYGrQUxgiBFXhIkvRnkRgM6PaQbMqRDr6k9uQ+0biLEv7F/3RswQE4gEHI9DPl+CWCyr8jpWufwI0eWUArHrjnP0Pfv4/pAGrgoxA8oAUZo7WIJbLOO6ynN0pDxttq9zAqbyVMb5isicH8tr3/luKwJXeS7j8zkVTLXlfI6HuwkzpAQxg8hAyxFWfEyYx8L2XDef9zEQG24M7VNSfDqUBq4GMXVYMBEclDqCUr7yvMVHf20XqbrZjiFjO/FRn9s1aFS2qz865zZkz7YMQbdhOy6vOm19Jv/8m9bQib5UnqIxpfG3rLbHgzE/Rl/5d7cIQyB2/tjFMWMffw6pgcEhNmTnjrEloDjiOqYeZbmhDmkAiKGRQxrh/HgamSzEHO3ktE0sQGw8EbWNyVzygRjamouW53gdk4XYHJ3NNdU5GQKxOseN+20Z4wbECm/sQPzLEH/fcQZi6KGvVih3fa0AMSDGH6Mc0AAQu/7EBAzweV8NALEDE1hfR1JuvjcdEJvv2HLf1j+2QAyIEYkd0AAQq3+iA1bzHcNBIFa6ycl7c/FND/hlHn5hUpzvpMjY1jW2QOz185hUgeN1x5GJrq6JjvGa73gBMSBGxHiCBpgU5zspMrZ1jS0QO2ECI+q5btQzRX8z0dU10TFe8x0vIAbEiMRO0ACT4nwnRca2rrE9GmIMcF0DPJfx+t0P/lbzi+97ZrVpfy7XdenrwG/cr5fW2Nj2gdiBP68ee4Bofz0JtU3GAlvz5F+utgg37Tv/lY//4QZ6zlP649//4U2+/Kw6sazzXMfnYpvZzrvf+q5Nu/GcbcQ82Y+23P+Yl8tHO9q3PtryZVP2tNm+65ACuDloYHCI6XMl/oyJP13iz6v4kyh6qW/+bEl80W90rMrlsvE8+8u4ETUBCzraPBkbGNaAIKPzyjdwdE7lledySnMZl4tlcxmfMxRsTwCxfe1nOLpcbld1Iojc/0P2oz3vRzvOU6o+Z7/F8+wv4/6Z8zhfBGKClT9GqbQEIZXx97hcvuRoIMZNVtKF8uJkr4laE7nydE77gkQGhW0pP4LOE71S22izE9uN/VBdQcNtlNLYbrQT+x/zo33tt8GqLb/UB/K4p+akgYtATJGX4OXUEFMaIy5BjE+ocEOdekN5sheMYhRje5rY8+RuWChfQHHZCJ8IN53Pdtyu6+pY9XO+zysttevyuf/Od33b17H7ojT2OeZr33VJub/mroGrQUywEsDsUEdiQIybzJo4NtXkrglbgFBdT/4x+vJ+BJbbUV3nZwgo33VV3vtK3Y7t+FhpBIvP59Ttqnyp/7bnevnY+YKf+qNj2XE+KffUkjRwVYgJXHKugaZUxzxO5KY75abTBB6jJk/qglqEifYNuthOLC9Q+Jyh0WbH51U+wi3u21Ypdbtt/W+zn20ZhsoHYtxDWR9LOb4axORQwUrRmFI9WjTEDDU/aozO5zcxbs6oh7yvCV8TuDbt+7xA4XztK9+Qcb7BJsjpnOtGuJTsxDZlK9aVTdtXquO2dtVetOX+x7xsP9qO7cZ87ftaSLl/5q6BwSE2d4dxfUwKaAANoIHpaACI8f/EWLWjATSABqrVABBDvNWKl9XwdFbDjAVjMZYGgBgQA2JoAA2ggWo1AMQQb7XiHWvlR7tEHWhgOhoAYkAMiKEBNIAGqtUAEEO81YqX1fB0VsOMBWMxlgaAGBADYmgADaCBajUAxBBvteIda+VHu0QdaGA6GgBiQAyIoQE0gAaq1QAQQ7zVipfV8HRWw4wFYzGWBoAYEANiaAANoIFqNXB1iMWX/fqLz0MQXHb9lvwh7J1qQ33wi41PtZHrTeXacr84ZvWNBtDA2Bq4OsQ0yeuDmUNf+FQmeiB2mZv6gafvb5756uOr7dEXHxpcP0PrEXuX0QF+xa9ZAxeDmD+rEj+EqcZLk7wisljeX4LOnY3HsbzyDTHZ17low3kxX+VVxueU2n5bfwRftxujyFxetm2rLbUdpe5/qT/Ki2W1HxcBOq+trZ055N99z10rePlaPvnlx5p7H3nHrK/Z10rKpI0GujVwEYgJCHGi1SDkiT5O3hEgzu8auJJ9gSNO8CpTgonz28orv9Qf5UdYaF95ubztD9n/3Ea0vQSIKQrTpusWvBSR+Tj6gv3umx3/4J85amBwiHVNuHJgnuRz+UMQy+U9KDnfkNF57cuuN5VtK5/z3Z8YhdmO8gTnGJXl63P/nGb7bfmx/211XHfuqSGmCMxRGBBjQp677rm+fhofHWIaKENBaY7g8kC2Teg53xBQvkEkW4ZMW/m2/hhYuT9ArJ/Qst+OORawFH35EaKhdowNyl5+nPAxPh5DA4NDTBchULTByBDxxbbBwedLacl+G5RivoGmNOarDUOvrT+um/uj8uqP8v3IVGVzuXh8TP9dL4LYeUrVb20xb277+k1MEZivS/vK8zEpkycaWK4GLgIxT/iOsKLAMsR0zuWcHoJAyb7yDBPZNJS0r3zZVur8rvLuh1P3x5DK+bZvoLh8vO64r/O2oVTnuvqj87LtOnGB4Daj/TnuOxrj97DlTlZz1DXXdL6eLwKxYwYmP47Lx8fYGqJsbj8fD9EGNs4XLj7Eh2gADUgDo0MsRyWOphx15PTSwm3rz7Ht5n77+Fg7lOdGRQNoAA20a2B0iDE47YODb/ANGkADaKBbA0CMd6bxBxJoAA2ggWo1AMQQb7XiZYXavULFP/hnCRoAYkAMiKEBNIAGqtUAEEO81Yp3CatMrpFoCg10awCIATEghgbQABqoVgNADPFWK15WqN0rVPyDf5agASAGxIAYGkADaKBaDQAxxFuteJewyuQaiabQQLcGgBgQA2JoAA2ggWo1MAmI5ZffxpWHXkPlV1HF/DH2u/pZ6s+x5Us2yOteheEf/IMGlq2ByUNsSgI9FkrHlp/StdKXZU8MjD/jX4sGOiF269Znmmef/Wxxe+qpW63hpz9Nopfe6lMh0Rl+Ea5S5cdPjPicPzViO9mG3izvsj4nYGjfdWL0Jnu5fOxT3i+V79NPteH+dJUv2XcfVM82nEfKhIIG0AAaKGugE2IPPviBIsAENp3r41TBRIBRWe0bULFuV8Si8nFSz2VtU/mCiO3HdpUf2zu031Y+t12yE9ttK99mX/aAWFmoJV+Th6/QABrohJgE8vDDH9oDmfK6xKOJWBO1N03mbRO67HSdyxDL3/fycbahPihP9t0fH3f1vat8bsN2bD9er84dKt+3P26HlBsWDaABNLCrgYMQk8MiyA4BTBNzjDQcmbRN6LLfdW4IiHnQ1RdtPj6U5vKlfrZd76Hr0vls/1B/OL8rXvyBP9AAGugFMQlF8DoEMJWLE70neKU6p0nbj/uy+CL44rkMMR1HEGlf9mO7qh8jsWjP5WNe134un/sZ29W+ziu1zVze+U6zffVbm8+TcpOiATSABto10BtixzhRE7Mmb6URJp7kdS5P7irnfIPOx06dH/+wQ/vqW4SJjmO7rq/U5buup6t8qZ9t1+t+2J777+NSf2RfW1f/ONcuaHyDb9DAsjRwEYghomWJiPFmvNEAGhhLA4uFWIyG4v5YA0G7TAJoAA2ggeM1sFiIIZbjxYLP8BkaQANT0wAQ451p/P6GBtAAGqhWA0AM8VYr3qmtCOkPUQoauL4GgBgQA2JoAA2ggWo1AMQQb7XiZdV7/VUvPsfnU9MAEANiQAwNoAE0UK0GgBjirVa8U1sR0h+iFDRwfQ0AMSAGxNAAGkAD1WoAiCHeasXLqvf6q158js+npgEgBsSAGBpAA2igWg1UBTG9HqptFaCX8GprOz9UvtqIb6kfyi52WOGiATSABo7XwGwgdq3BB2LHi2yIsXng6fubZ776+Gp79MWHLr5YGaLP2BhHK/h9WX6fJMT0yRK/lDd+lsSRmD/p4s+qCCw6F8uqjI7zubZ8CT+2a9vK1777ozRGYmojtssNNPwNdPc9d63gZd9+8suPNfc+8g5AxiMwNIAGmklCzLDypOXU+Ur9bS6f03GEiUHnco6guvJjfe2rrDbVdTu242OVi/WcTzoczBSFaZNPBS9FZD7Gz8P5GV/iyxo1MEmICQo54pFzlVcCmM6VIBbho2hKZTKUnK9ztu9UeTqvzYObIeZ80stNAIaYIjBHYUDscv5Gy/i2Jg1MEmJ2oIARQSS4CHARKi47BMRKdoHY+De0gKXoy48QDTWPPen4Y8QYMAZjaWDSEJNTYuQjiDlP0IpOOwQx1S09Hoz5tp/tGqQCmsu7DI8TL3/z6jcxRWD2ufaV52PSy48BPsbHU9XAJCEmUHiL0VGEjPZ9zmWdCmgClo+VGnpt+RogQ8r1VFb5gpjyDCzn65zzpjrAc+mXozF+D2MynYumuY5htDxJiA0xuAKNI6hory0/lmF/GHHhR/yIBtDApTUAxPgTVR7LoQE0gAaq1cBsIXZp+mOfFSYaQANoYHwNADFWYNWuwJhAxp9AGAPGYGwNADEgBsTQABpAA9VqAIgh3mrFO/YKkPaJQtDA+BoAYkAMiKEBNIAGqtUAEEO81YqXVfD4q2DGgDEYWwNADIgBMTSABtBAtRoAYoi3WvGOvQKkfaIQNDC+BoAYEANiaAANoIFqNQDEEG+14mUVPP4qmDFgDMbWwCQgFl+wO7ZDaJ+bEg2gATRQjwYmATEJJn9KBRHVIyLGirFCA2hgLA10QuzWrc80zz772eL21FO3Wh9DKbKKnzXxxQlU/syJP6MSz+mzJj5W6gjNn0FRnurFcjq2rWg/llE9PpnCTRa1xT56QAPz0EAnxB588ANFgAlsOtcmAkHHYDFk9AmUCBbtx+9yHYrEBDSX177bjvtq1/k5BWLzEGweV44ZVzSwbA10QkziePjhD+2BTHldwinBJEZJOq9NebZTgpjA47JKDTEDsATGWM62SZctcsaf8UcD89XAQYhp8CPIDgFM5QWSLBpBytFZPqfjDDEBKtqJkZhtyZ7BFm2qbIzQ4jn25ytmxpaxRQPL00AviEkYglcfgKlshI9FlaHkfKcliBlErhuBpXOKyFw/pzofy/M4cXnizprgGA2ggflpoDfEjhn8EsRUX5GTznkzZHzsVEBTeYFIeQaWy+ucoJQjO9dXms8BsfmJ9xhNUpbxRwPz1MBFIHYNsQhs12iHNuYpfMaVcUUD89BAdRBTRKVIy9EaQpyHEBlHxhENoIFTNFAdxE65SOpwc6ABNIAG5qkBIMa7E3ksiwbQABqoVgNADPFWK15W1vNcWTOujOsxGgBiQAyIoQE0gAaq1QAQQ7zViveY1RplWd2jgXlqAIgBMSCGBtAAGqhWA0AM8VYrXlbW81xZM66M6zEaAGJADIihATSABqrVABBDvNWK95jVGmVZ3aOBeWoAiAExIIYG0AAaqFYDQAzxViteVtbzXFkzrozrMRqYJMTi2+71rsRjLoiy3ABoAA2ggeVo4KIQu3XrM3tfhX722c+u8p566lYRTvrcil7waxHqbfXxZb98UmU54rQGSBlzNIAG2jRwUYg9+OAHWiGmc6VOKQrzt8AEr/xtMCCGmEu6IQ9doIFlauCiEJOo9DVoR19Ou74QbYgpAnMUZqgh0mWKlHFn3NEAGmjTwMUhpoYjyLoAprICVvxemKHWdgHkI240gAbQwHI1cBWISWCC1yGAqZx+E4tfbda+8ixSHicuV6zWACkaQANowBq4GsTcYJ/U0Vj+PUx1gRji7aMhyqATNLAMDUwSYohvGeJjnBlnNIAGztUAEOM/O28e1Z4rJuozIaEBNHBtDQAxIAbE0AAaQAPVagCIId5qxXvtFR/tEWWggelpAIgBMSCGBtAAGqhWA0AM8VYrXlbF01sVMyaMybU1AMSAGBBDA2gADVSrASCGeKsV77VXfLRHlIEGpqcBIAbEgBgaQANooFoNADHEW614WRVPb1XMmDAm19YAEANiQAwNoAE0UK0GgBjirVa8117x0R5RBhqYngZmCzF/jwzRTU90p4zJ3ffc1Xzyy48BXBZdaAAN7GhgthA7ZaKkznSBB8SmOzbcN4zNmBqYJcQUhekzLvpsS3Tu9z7w0VV+Phc//eI6+oaZ9m1LabTFJ2Gud+M++uJDzTNffXxnu/eRd6zGQ9HZA0/fvzmnMcrAU33l6Zzq2ZbqxTFl/3pjiq/x9VAamCXE5BwBy0CyswQv7zstfYRTdZWv8tpXWUGMj3OOd+NlMHn8BCTDSKm2XNYQU772Xdf5PiYdb3zxPb4/VQOLgpigJjBFGCkK02YH+jjDTXVjPZcnvc7Nl8Fkvwti3neayxpWMQpzNOaIznVJrzOe+Bk/D6WBRUHMTlNU5ceDhpbP+RiITesmy2DyeB0LMUdtrk86rXFmPBiPYzWwSIjJSX48qMeFBlrMPwQxfhO7/s1WAlYpT8BzvqMv5cX8Y28Uyl9/vPE5Pu+jgVlCTI8M4+bftWJefoToc84HYtO7gfRYUHDS5seAhlUWu8vqDz/8OFFlFInZhlKBLdfleHpjz5gwJm0amCXE2i6WfG4ENIAG0MC8NADE+I+DRCJoAA2ggWo1AMQQb7XiZUU9rxU148l4nqIBIAbEgBgaQANooFoNADHEW614T1m1UYfVPhqYlwaAGBADYmgADaCBajUAxBBvteJlRT2vFTXjyXieogEgBsSAGBpAA2igWg0AMcRbrXhPWbVRh9U+GpiXBoAYEANiaAANoIFqNQDEEG+14mVFPa8VNePJeJ6iASAGxIAYGkADaKBaDcwOYvnFvaeQ/VCdrjbiZ14O2eH8cStPv4VeL+499EkVvfhX5fTyX/x8nJ/xF/6qSQNA7IQVWBfEahr82voqMPnt9X36rrJAjAm5j1YoU69OZgsxRUT6vIq++2WBOi/n61Mt/hRLLO96MdV5l3XqT73YfrShT7u4jvZVx597ie06T23JjsuqfG4/2o/n5r4viOVPpzjiKkVdJYgpT2Vz+Zh/KMqbu5+5vnon9CWO3Swhpok/gkWRUx5cgcL5GRS5bD7uisTUboSMYKS2lO9U52UjlnOe2oqgU/0IOJWL9XLf5nicvwEmAJWuM0OuBLFSXYExRmzx+2OldshjkkcD09HALCEmWFhkEQ7aFyC8GWLO97HrtqXHQkwQEsScqj0dux9Olac2ddzW9pLzM6TkCwHHkZXSGKmVIObyuVy0oX3VXbKvufbpTNKMRfdYLAZiAk+EQ4zELBLlRQA6P6dDQSxGWLGN2M+Yv/T9DDGBSMCxX/L5EsRiWZXXscrxCLF7orDfSPHT1DSwKIgZUAaa0jwgJbjlMjpuA42iKUVariNQOQJzqvPug8vFtM22yqhutB/rzX0/Q0oQM4gMtBxhxceE2T+257r5PMdM2Ghg+hpYDMQkRgFKgFBqkChfed7aoqMsZtV3nfgY0HlKld8GMdnTuVjeUFVebs/HQOyuHd8IRIrGlMbfstoeD8b8GH3l390iDO170ulPaIzR8sZodhBDxMsTMWPOmKOB5WoAiLX8P7EYIcV9bpbl3iyMPWOPBqanASDWAjHEOj2xMiaMCRpAA1kDQAyI7fzGlAXCMZMGGkADU9YAEANiQAwNoAE0UK0GgBjirVa8U14d0jeiFzRwHQ0AMSAGxNAAGkAD1WoAiCHeasXLSvc6K138jJ+nrAEgBsSAGBpAA2igWg0AMcRbrXinvDqkb0QvaOA6GgBiQAyIoQE0gAaq1QAQQ7zVipeV7nVWuvgZP09ZA7OEmF6k6zfWZ+crv+1cLnvp465+HtP2OXbkC794+Jg2KcvEhgbQwBQ0sDiITcHp7sM58LENpefYqQVi8S3zXZ9XiX5hn0kWDcxfA7ODWPxEil/c60+laMJWnspY3Pociuv40yhKdV71bMN5ypcdl9V522pLox237TZtX2nup/Jcvq3dLjux3dj/2He1ESMx2Ytttl3TNfPz97702RW+vDz/yemaGqOtevU0O4hJjF2RiSb2OElrQheUlO9U52UjlnOe7GviNxSUer/tRlD50rmufrq8+mTItLVbstPW/1w22lebus543e7HmKmiMH/7S/DSN8F8PGa/aLveiY+xm8/YAbGWLy/HKEbw0KY8ib8NSm03hqCgOoaRy2WgON/l3a7rtbVbstPW/wzdDDH3YUqpIaYIzFEYEJvPJDQlrdGX+nQFxDog1hZhtcHk0A0gYGhzuRJ8lBftR8jEfNtQWrIjiJX6XyvEFH35EaKhFn3Afn2TD2PGmA2hgVlCTI5pm/A1ucfHZZ7UPen7fIZJdHab7VimbT9CqdTPCCT3QWmpbGwj98l1Yxnt6/oMUl276tm+zss30T+5/hjH+k1MEZjb1r7yfEzKZIgGlquB2UIsPpLTxC2Ra8KOm8Glydz7Sj2Je5J3HU/2Oj7mpnF9pbIZ65b6KciorFKd79NuyU5b/21fdaJ99ct5sY9T2Ff0pWiM38OWO1lNQYf0YXr6my3EENv0xMaYMCZoAA0MrQEgNtAbO2K0FfeHHjDsMQmgATSABrYaAGIDQQxRbUWFL/AFGkAD19IAEANiO7/RlU7QXAAAIABJREFUXUt4tMMkhwbQwBAaAGJADIihATSABqrVABBDvNWKd4hVHDaIBtBA3RoAYkAMiKEBNIAGqtUAEEO81YqXFXTdK2jGj/EbQgNADIgBMTSABtBAtRoAYoi3WvEOsYrDBtEAGqhbA0AMiAExNIAG0EC1GgBiiLda8bKCrnsFzfgxfkNoYJYQ0wtz/ab27CTlt53LZS9xrLb9Qt+h7E/5eoe6Ruww4aEBNFDSwOIgVnLCNfOuDbFrXtsl24pvsX/0xYeIHnmCgAbQwEoDs4NY/CSJX8TrT7EIIMpTGU+4+lyJ6/jTJf5ciurZhvNUT3ZcVudtqy2NZVVekVOOntQHR2ht9t3/eA3uu/uptOt61cfYH/tCbWvfbSiN16NzLhvzr7Gvb4fpEyxuy1939jEpK3Q0sFwNzA5iEnMGRBR4/F6Y8jWha8JWvlNN1p7UXdd5OhYoVM/1ve+yMc19URvKy/nH2rcdtZVtxfbz9eayvmblZwAqz7bUP20+vmYav+SsrzvzTbHlTljX1B1t1aEzIPaJz6+ApMleMPKkrzRGN3GC135fgctmhJzhk2GSIVayrzKxT4ZMthXr+nqcl/vj42wj9sd1x0oNMUVgjsKUN1Z/aLeOyY1xWsY4AbEOiEX4xBtiDIgJMrFdw1D9ygCKfZ0LxBR9KQrTtRlq8TrZX8aExTgzzlkDs4SYLjJO+PGi2yZ15QtaPp+hEW202Y5lvC97Ao6OZV91ZTvaVxnnq1zJfgSV6yp1O6U6OufrcbnYH+UZhtG+8nMkpmNttnPNVL+JKQJzm9pXno9JmdjQwHI1MFuIacLVxK5NE7dE7mOnyvfjNO8r9WRt6Li8oaHjY24agUJ1DALbcR91XvvOb7NvO7m8+mJbqtt1vSobr0v7ypsyxNQ/RV+Kxvg9bLmTlXTAhg+yBmYLsXyhHCN+NIAG0MD8NADEBlrdKQIqbdw087tpGFPGFA1MRwNAbCCIIerpiJqxYCzQwHI0AMSAGL8zoAE0gAaq1QAQQ7zVipfV9nJW24w1Y92mASAGxIAYGkADaKBaDQAxxFuteNtWZuSzakcDy9EAEANiQAwNoAE0UK0GgBjirVa8rLaXs9pmrBnrNg0AMSAGxNAAGkAD1WoAiCHeasXbtjIjn1U7GliOBoAYEANiaAANoIFqNTBLiOWX2cZVmV6eqy3mzWH/2Os6tvwcfMQ1LGd1zlgvZ6wXBzHEXae441vsH33xodktQtBlnbpk3MYft9lBLH6SxC/k9adJFH0oT2UsPn2KxHX8iRJ/nkT1bMN5qic7LqvzttWWtpUv2Zfdtv64//kanB+vS9Gojn1OqfvnvL7l47XmtmUj2nEbQ6b6dpg+wWKb/rqzj0nHn0gYA8ZgLA3MDmJyZNfjRIEjTrqaoDWpK9+pzhsCHhjn6VgTueppX6n3XTanpfJt9tv6k22qr7Lh/HxdOqd2la8yp5aXHdV1O7LpfaXyS/RnPDfUfvySs77uzDfFmDCH0hZ26tcSELuBkCZ7AcQwUKoJO24GQp7ID90IpfJt9g1FnY/9URuCRezPIYhF+EQIy5bsR/hkWLl8zi9dy6HrP/e8IaYIzFGY8s61S/36JzDGkDEEYh0QE0RKN8mxE3mpvCGV7bdBTDCJdvpEVkNATP1Tu97U79znSx/79zBFYWrLULt0u9hngkQD09fALCEm4cUJPwoxRyB9oRFttNmOZeJ+qXyGkst39cdQcl2lrpevS+dcXmUcWR1bvg22tiO7MaJz/pCpfhNTBGab2leej0mnP9EwRozRpTQwW4hpYs3Rg4+deoIWOLwfYaB8l1VqaGj/mAFpK1+y3wYxtScoyZbSCCXlxU3X0AWxWFb7x5a3H9Sna0BM7Tga4/cwJsNj7j3Kzl8vs4UY4h1GvIaq/ZmPnU86jL/xI35EA8dpAIgN9D/1c3Tj49oFqajL16I0PqKs/dro/3GTBf7CX1PUABAbCGJTHFz6xKSDBtDA3DUAxIDYUb/vzf2G4PqY9NFAXRoAYkAMiKEBNIAGqtUAEEO81YqXFXNdK2bGi/G6hAaAGBADYmgADaCBajUAxBBvteK9xKoOm0QLaKAuDQAxIAbE0AAaQAPVagCIId5qxcuKua4VM+PFeF1CA0AMiAExNIAG0EC1GgBiiLda8V5iVYdNogU0UJcGgBgQqwZi/sJzn5cA6033Kvfoiw9Vc31MnnVNnozXNMYLiAGxaiZ5fxCz7+Sh748BsWlMNH3HjHKM17EamCXE4idO/K2r/Pb1eKxPkfglt8q3E/Wy22hL+Xohrmz6syi2r3OxrPOVxk+XqJxfontMu+6T7Nm285aSlr4j5oirFHWVIKY8lc3lYz5fjWYiXco9NYfrnB3EBAxDQgOk/dL3spSvsoaSBzNCR2Az1JRqU3nly6bt206pXdlT2VjfbUQYOU82S+3G/sV6zp9zGr8lZgCVrjdDrgQx1c919ZgyRmza56ObgCzrhONpamJ2EDMsLLh4HMFl4MRoyNGYAaVj23EqYLmu8mQ/Qsrl3K7PCzzed+r2nHa1a7tLTjOk5AsBx2BTGuFTgpjL53LRhvZVd8m+5tqnOWEzLvvjsiiIGSyChYFhAJXEMQTEbF9tC2Q+dtq33VK5peVliAlEAo79kM+XIBbLqryOVY5HiPuTg31Fim+mrIHZQUxwiJGSoy8PgkASH8f58aDPx7QPxFRGNtra1bkYhRlkx7brfuX+O38JaYaUIGYQGWg5woqPCbOPbM9183mOmbzRwPQ1MDuISXSKevyITvtRiCUIxPKGkuq0Qcy2lQpeth/txHZt0+BSmvvpMm3tuo1S/31u7qmhE69TeYrGlMbfstoeD8b8GH3l390iDGN77E9/UmOMljVGs4TYJUUsAMVI75JtYXtZNyPjzXijgeM1AMSO/H9iQOx4kXFj4jM0gAYupQEgdiTELjUQ2OUmRwNoAA0crwEgBsQ2v+lxAx1/A+EzfIYGxtUAEANiQAwNoAE0UK0GgBjirVa8rIDHXQHjf/w/BQ0AMSAGxNAAGkAD1WoAiCHeasU7hVUgfSAaQQPjagCIATEghgbQABqoVgNADPFWK15WwOOugPE//p+CBoAYEANiaAANoIFqNQDEEG+14p3CKpA+EI2ggXE1AMSAWBUQ+90P/lbzi+97ZrVpP04cr3z8DxttMW+o/Xe/9V1F2139Gapt7Iw7OeL/OvwPxIDYRSb/oSeAsaABxOqYyIbWG/bqGfdZQkyfR/HnUvTpEgsyfirF+fmFvsr3p1L0tvpYx3aU2r5S58d246dYdH7Jn1Cxf85JBbEf//4Pr7YYiSkCa578yybmCTw69jlHaTnfdTKolO+ysh039UHXoTKl/pxzjdStZ+JkrKYzVrOEWASLxZZhJUAJOjk/Qkx2DCOl3ndd21YqOwajjqMdH8fzsS77590QgomBJF8KQAKPgSOIKa8r36BTfUPMtuI5xuq8scJ/+G9oDcwSYoKFAOSISk6LEIrHhyCWHZ7L+3yMwtS2NuX5POnlbt4SxCJ4DCVBLObrNzbVzfkurzHL5xjHy40jvsW3p2hglhCzIxQxadPxNSDmSM3tk17npgRi1/EzesbPU9TArCEmhwtiip4UFRloMV/nFDUpz9GU8nTsfO3HTXZylBXtxLLeV3TI48RdP9o356anQkyPHBVpadO++iFbzne/fM7HpJcZR/yKX0/RwCwh5sd5SmN0pH2fi/l+/Cg4af8QxAws27Ljo32dsx2dB2KXuUEFmLh1PR40rFxeZT12eoSofD1ujI8Tdd7ndD7WcV3Sy4wtfsWvfTQwS4j1uXDKLO8G4fet5Y059/n8xxyIpUeFiH6+ogdi8x1b7tvlji0QA2KbR2pMBMudCBh7xr5WDQAxIAbE0AAaQAPVagCIId5qxVvrypF+E/WggeE0AMSAGBBDA2gADVSrASCGeKsVL6vZ4Vaz+BJf1qoBIAbEgBgaQANooFoNADHEW614a1050m+iHjQwnAaAGBADYmgADaCBajUAxBBvteJlNTvcahZf4staNQDEgBgQQwNoAA1Uq4FJQEwvyo1vmK91RUC/Wc2iATSABq6rASDGCqzaFRiTxXUnC/yNv6eogU6I3br1mebZZz9b3J566lZx8tPnSPxpE3+axJ898fe64idSXNafNVHqb3WVysuJitpsW+Xt2Fhedp2vlE+hcANGPbCPHtDAPDTQCbEHH/xAEWACm86VRCC4+KORTgUQPTKMYHGebJQeJ3aVjxBUe4ZkBFruGxCbh2DzuHLMuKKBZWugE2ISx8MPf2gPZMprE46hoqhI+0oFkBglCTbalCc7JYh1lW+DldrROdlr6x/5yxY848/4o4F5aeAgxDTgEWRdAFPZLog5YsoiaoNYW/k2iNmuIkBtPiadl2gZT8YTDaABa6AXxFRY8DoEMJVrg5hA1QWffK6rfC7ri4mpIBYjMh4nIvqoD/bRAxqYhwZ6Q6zvgLdBTPV1TgDyliHjfD9mbCvfBjHXV6q6sc9AbB6CjWPKPmOKBtDA4BBDVIgKDaABNIAGrqUBIMb/E9uJWK8lPNphkkMDaGAIDQAxIAbE0AAaQAPVagCIId5qxTvEKg4bRANooG4NADEgBsTQABpAA9VqAIgh3mrFywq67hU048f4DaEBIAbEgBgaQANooFoNADHEW614h1jFYYNoAA3UrQEgBsSAGBpAA2igWg0AMcRbrXhZQde9gmb8GL8hNADEgBgQQwNoAA1UqwEghnirFe8QqzhsEA2ggbo1AMSAGBBDA2gADVSrgUlCLL69Xm+fZ6VU90qJ8WP80AAauJQGLgqxW7c+s/dV6Gef/ewq76mnbhXhlL8jpu+C+dMscgKfVOFmuNTNgF20hQbq08BFIfbggx9ohZjOlQSjKMzfAhO88rfBgFh9IiuNM3mMIxpAA0No4KIQUwf1NWhHX067vhBtiCkCcxRmqA1xwdjgxkEDaAANzEcDF4eYxBJB1gUwlRWwFH35EaKhhujmIzrGkrFEA2hgKA1cBWLqrOB1CGAqp9/EFIH5ArWvPB/zOBHxWwukaAENoIGrQewYsTkay7+HyQYQQ7THaImy6AUNzFsDk4QYopu36BhfxhcNoIGhNADE+E+Om0e1Q4kKO0xQaAANXEsDQAyIATE0gAbQQLUaAGKIt1rxXmulRztEFWhguhoAYkAMiKEBNIAGqtVAVRD7q9e/uWHDB1PUACv16a7UGZt5jw0QA4wsDAbQABPlvCdKxne64wvEBpjAphgZ0KfrRqxMctOd5BibeY8NEANiRGIDaICJct4TJeM73fEFYgNMYEQ91416puhvJrnpTnKMzbzHpnqIIdB5C3SK41uC6BT7SZ+4N5agASDGn9ZW+6e1Y92gQAw4jKU92t3XHhADYkDsSA0Asf2JhMkVn4ylASB25AQ21kAtvd1nvvp4E7foj09++bHNuZhf2r/7nrtWZVUnn/e5B56+f+9cLAvEmLCjHtgfVw+zg5i+PabPteg7ZPqUi/YtsviJF+crjd8rU1l/z0wf5pSN/EkYnY+2bF+p7Nl2zGf/PKELYCUfCkb3PvKO4rlcXpBy+RLElCeAAbHzxir7nWP8eUkNzBJigo6/DO2PapY+tqkyAo5Sf0HaEHRq50fYRai5XiwHxIa/aUsQE5QeffGhXgDz+CgV9DLEZEf52oDY8OMX/c8+/h1SA7OEmCMpOUqQiZCy8wwfnxd4vO/UUZhTg1HHtkN6nRsyPko0uAQc7ftcBlPb2GSIRXDF/bb6PE68zpi3+Z98/B81sHiIRcDFqMz50VneB2Lj3kSClaIwASdGaH0eBWoMM8RkzyB02gVEIDbu+Ps+JGUcpIHZQ0zA0aNBQSlGaPExY4zCDDLVaYNVW74cqvrauMEud4MJNIJYfpzoR4L2vUBUglGGmMsrJRK73LhFP7OPn4fSwCwhJsh48yNAOUyPCZ2vfTtReYKWwaU0l3cZ5WvfdXMKxC5zczpCMsDsd0VfPufHjD5XgpjLOhW0XF4pELvM+EUfs4+Ph9TALCEWI64hnYUtbj5pgMeJ6IC5YDoaAGL8P7GdSISb8/DNCcQO+wgd4aNraWB2ELuW42hnuTcpEFvu2HPfT2/sq4dYaUIhj7fKX1sDTG7Tm9wYk2WMCRDjUyzF33iuDYHa22PCXMaEyThPb5yBGBADYgNogMltepMbY7KMMQFiA0xgtUcR9P/8x69MmMuYMBnn6Y0zEANiRGIDaIDJbXqTG2OyjDGpCmKIchmiZJwZZzSABvpqAIjx/8T4f2JoAA2ggWo1AMQQb7Xi7btSoxyrejQwXw0AMSAGxNAAGkAD1WoAiCHeasXL6nq+q2vGlrHtqwEgBsSqgFjX2+r7ip1yTIxoYH4amCXE4idX/G0v5cXPr8Rjfa6l9IkWvQ0/2tINoM+0yKbOqY7t61ws63yl/rSLbyC/Zf+Ydl1X9mzbeXNP9d0wfTrF16lPrORPqPgc6fwmKcaUMe3SwOwgJmAYErpw7QsWpXzlaYtQiNARpAw+Q0/lle/vlMm+7ZTalT2VjfXdxjHtehBVJ9Zz/pzT+MVmwUtAU96cr5lrY+JGA/00MDuIGRYWQDwuASdGQ47GDCgd245TASvCSvYjpFzO7fq8wON9p27PaVe7trvE1BDzRy77fLhyiX7imvtNevhpXn5aFMQMFsHCwDCASsIeAmK2r7YFMh877dtuqdxS8vx7mB8hGmpLuX6uc16TLuM57HjODmKCQ4yUHH1ZOPlxnB8P+nxM+0BMZWSjrV2di1GYQXZsu+5X7r/z55zqNzFFYb5G7SvPx6TDTgr4E3/WpIHZQUzOV9TjR3TajwNSgkAsbyipThvEbFup4GX70U5s1zYNLqW5ny7T1q7bKPXf5+acOhrj9zAm2DnrnGs7Xt+zhNglhSAAxUjvkm1h+3hB4zN8hgaWpQEgduT/EwNiy7pBmBAZbzQwbQ0AsSMhhqCnLWjGh/FBA8vSABADYpvf9Lj5l3XzM96M9xw0AMSAGBBDA2gADVSrASCGeKsV7xxWkVwD0RAaOE8DQAyIATE0gAbQQLUaAGKIt1rxsoI9bwWL//DfHDQAxIAYEEMDaAANVKsBIIZ4qxXvHFaRXAPREBo4TwNADIgBMTSABtBAtRoAYoi3WvGygj1vBYv/8N8cNDBbiOn9htd+x6Ha04t89ZLeLI5D/dF5vxg41+X49tVb6+Ob7PEJEzAaQAPSwGwhNpbA9Vb7EsQO9QeIdd+Q+XMsh/zJ+W5/4h/8MxcNzBJibRGRAKNIqS1aioOqT6nEz6nEY9sv2SlBzOUz3GTT/VEaI7GlfnIljoH3H33xoUafYImbP5Cp6Cx+pkV1MvBU398fUz3bUT23Qcqkjgbq1MAsISYxlmAiUPQVan5bfVuklPNL7Zb6c8g+ENu9oTKYPI7x+2L+4nMua4gpX/uu63wfk+76HH/gjxo0sCiICQw54ukaJAMqA8d2HEXFCKovxGJkpz64ra7+LPlcBpN9IYh532kua1jFKMzRmCM61yVl4kYDdWlgURCzOAUMbT5uSw0agUmbyglYMaLL8AFil7kBMpg8ZsdCjEeIlxkfjwcp/r22BhYJMTk5w6fN8fmxXozKDLRTIjHBziD1b2PRTm63rX9Lyi8Bq5Qn4Dnf0ZfyYv6S/Ma1ApY5a2CWEPNjPqeOonysVODoM7AlmAg+sqFU5w2faF/7pXZjvu24DdtRv5zXp49LKaPHgoKTNj8GNKyyD1xWf/jhx4kqE/8IRHUFtlyXYyZ9NFCPBmYJMQRYjwAZK8YKDaCBczSweIjl6MnH5ziVutyUaAANoIHraGDxEENo1xEafsbPaAANXEIDQIx3J/KbEBpAA2igWg0AMcRbrXgvsarDJtECGqhLA0AMiAExNIAG0EC1GgBiiLda8bJirmvFzHgxXpfQABADYkAMDaABNFCtBoAY4q1WvJdY1WGTaAEN1KUBIAbEgBgaQANooFoNADHEW614WTHXtWJmvBivS2gAiAExIIYG0AAaqFYDs4SYXqTrN8Rn8iu/7Vwue+xxV7vH2qI8q1Y0gAbQwGENLA5ilxQFEDssuFP978+o6K30tuHPrPjN9vHt9kOUdzu2Fb9F5rfkq822/NhX2SrZKfXd7ZJeTk/4dj6+nR3E9AkTv8TXqT+JEj99YhHrkyyu4+96+TMtqmcbzlO9mK+6yrMNl1ea21Wey7e1KxCqTKmvbsc2fA1zTzX5CwiCVgZDvHadU9mhy8uuQGVYqR+CmNv2p17cbs73cbbjfKW5bjzH/nwmXMZy+LGcHcQkkq6ISGCJEBBMBAzlO9V5w8Sic56OBSPnx7SrXZdTGyrX1W4GoMq7vvoR++/8JaRdEMtgkT+GKC9AyY42Q0xphFiMALVvkGrf41Ky43NKgdjwk1v0L/vz9S8Q+8TnV0ARxAQWQ06pYBI35elmEESUH+Gi/DaIubxtGWJuz6nKZRs+x03YDSVHYdFPXRDrUz6CK+6rDdX3o0ADym0738exbtzXeR27vEDmOqTznXQZ22HHFoh1QEwA6RKcoiptLpMBpHzlCV4uEyMxA8opEOsWtyZ8wcO+dKr8GBnF/HPKR1AZNCV7ysvRl45VxxGW6zst2XF595+0Ww/4B/9IA7OEmC4sgiOK3ZGW8wQQQ8SpYdJmw3WVGkrOy3Ui2Aw0pV3tRjDKnsrbvvqmzcdLStsgZohkXwxVXnZly48TYzvKM5AyTHOE1mVH59quI7bHPhM3GtjVwGwhpoleANDmx4A+dqr8NphIKDrnskoNk5inMlFUpXYFJdVRqvOHIBbtu+9uQ/W1+XgpqSMYpwKGrj3/PmV/uJzTU8vbXoaY7RpgLqfjtnMqE+04WnN599G2SHcnK/yBP0oamC3EShdbQ54AFyOxGvpMH5lc0AAaGEsDQGxi/1MfiDEZjDUZ0C7aq1EDQGxiEKtRRPSZyQ8NoIGxNADEgNjifl8b62ajXSZ6NDC8BoAYEANiaAANoIFqNQDEEG+14mVVO/yqFp/i09o0AMSAGBBDA2gADVSrASCGeKsVb20rRvpLlIMGhtcAEANiQAwNoAE0UK0GgBjirVa8rGqHX9XiU3xamwaAGBADYmgADaCBajUAxBBvteKtbcVIf4ly0MDwGgBiJ0CMV0MNL0RubnyKBtDAKRoAYkCMSOwEDZxys1GHSRoNDK+BSUPs1q3PNM8++9ni9tRTtzon3/g5EwsnflrFnzPJUZU/laJ87cfPqMiO8qJt7ftzKUp9Ln6iRTZi2+5PLO/++JyOc57PkQ5/I+BTfIoG6tTApCH24IMfKAJMYNO5NtEJGgaLy2RYuUzOFziUpy0CSuWVJ3u5jvMidGxH52THUFPqfeW7fzlV/Wgvn+e4zhuOcWPc0MCwGpg0xDTYDz/8oT2QKa9NCCXAqGyERzzO5Q2ftnzVzeeUF6MqR2MGaRus1JbOyZ5ssOEDNIAG0MBxGpg8xDSgEWRdAFPZEmCUfw2IOcLKImyDmMspytPmY9LjRIy/8BcaWK4GqoCYBCp4HQKYhexHhT5WqqgogkL7Ap42Q8bRlPNjeUdotuk6Po52nOc0l3V+TN0f56k9bT4mXe5Nytgz9migXQPVQOyYQTRQBI8IEEVKzotRkx/rCSSGlWx0Qcx1ZM+PDaN95cuG+h37EK/DfVEa+6Mysq8tlme/Xcj4Bt+ggWVqYJYQQ8zLFDPjzrijgeVpAIjxBxVEe2gADaCBajUAxBBvteJl1b28VTdjzphnDQAxIAbE0AAaQAPVagCIId5qxZtXZByzSkcDy9MAEANiQAwNoAE0UK0GgBjirVa8rLqXt+pmzBnzrAEgBsSAGBpAA2igWg0AMcRbrXjzioxjVuloYHkaAGJADIihATSABqrVABBDvNWKl1X38lbdjDljnjUAxIAYEEMDaAANVKsBIIZ4qxVvXpFxzCodDSxPA0CsALH4NnreJD+Nm+KZrz7exM2TVcy795F3HATyA0/fv7Gj/UN2on3tuzzpNHTBODAOQCxBzJ9x8c2hz7H4UyvK4xMp49w0hwBy9z13NZ/88mMHIeMyKl+yme2UylgbpONoAb/j96gBIJYgpijM3/byRzJ9LMcBsXFuoEMwyfCJIm/bL9nMdkpl2uyRP4428Puy/Q7EWiCmCMxRWIQYN8w4N4xg4u3RFx/aRFx6hOh8Aajv+OhRYnyc2GbHtpXGdvu2Q7lx9ILfl+N3IFaAmL607EeIMTLjxpjGjaFHgiVgCTSl/DxuglcXkNrstLWb7XM8DZ0wDssYByCWIKbfxBSB+QbQvvJ8zOPE8W+MvpARdPwbmMdP8OoCmMq1waqtXdsmHV8bjMHyxgCIJYjpJlD0pWhMW36UCMTGuUkEEG+OtpQ6T2n+68QMsVxedRSV5fxoJ9p3u0yU42gAv+P3kgaAWAFiJUeRxw2EBtAAGpieBoAYENs8KuUGnd4NypgwJmigWwNADIgBMTSABtBAtRoAYoi3WvGyQu1eoeIf/LMEDQAxIAbE0AAaQAPVagCIId5qxbuEVSbXSDSFBro1AMSAGBBDA2gADVSrASCGeKsVLyvU7hUq/sE/S9AAEANiQAwNoAE0UK0GgBjirVa8S1hlco1EU2igWwNADIgBMTSABtBAtRoAYoi3WvGyQu1eoeIf/LMEDQAxIAbE0AAaQAPVagCIFcSrT6/oDfbxkyxLWNFM+Rrj2+S1777qLfQ+Fz9y6fM5dVmnPq/Pszgv2mnLdz1Soh00MK4GgFiCmL8npo9iliDGp1jGEawAU5os/L0wf06lVCbmlezo0yvxG2Pal722/GiP/XH0gN/xuzUAxBLE7BggNq2bpAQfj5XTU8so8ooQkx0BrC3f7ZFOSyOMxzLHA4gdCTFulHFuFIHFWwSOx0PAiY8BnZ9T21Aa7Sii8znl+8OYbfnZLsfJT7nfAAAgAElEQVTj6AK/43cgBsSKj+mmPDkILPEryzli6tv3bMf1js13PVImVDRwfQ0AsSMhxm9i1xdpnhgUMRliippiRBXLCkbaYl7cj3acLyCW6rTlux7p+LpgDJY5BkCsADH9ZWLc9PuYbxAgNs6N4kd9ETz+Y454Lj5SLEEsljUINbbOzwBry7ceSMfRA37H79YAECtAzM4h5UZBA2gADUxbA0AMiG2iTG7Wad+sjA/jgwb2NQDEgBgQQwNoAA1UqwEghnirFS+r0v1VKT7BJ0vTABADYkAMDaABNFCtBoAY4q1WvEtbcXK9RFloYF8DQAyIATE0gAbQQLUaAGKIt1rxsirdX5XiE3yyNA0AMSAGxNAAGkAD1WoAiCHeasW7tBUn10uUhQb2NQDEgBgQQwNoAA1UqwEghnirFS+r0v1VKT7BJ0vTABADYkAMDaABNFCtBoBYQbzv/cTnN2+x1/7SVjZTvF6/Td6p+6i31jsvvsHe50up337v8voApm049UcxfazUeSWb5BEBoYFxNADEChB77DdfWYHr27/nB1cwi+LkUyzjCFUQiePgfX86xWByfleqOgKYIZbL6nz8TIvO69ht5fIcj6MJ/I7fpQEgVoBYvDn0XbF4DMTGuXHaIBbHpk8ZfUBTEZW2EsSUX/rIJhAbZ9zj+LLPGJQ0AMQ6IKZHiTxOnMaNI0B5K0GmK7Ky8CO44r7PK81RmMq53RydxXrsT0MnjMPyxgGItUBM8FLUxU0xvZsig0YAK4Etj53qGUhO4yPCtijMdlQHkE1PDx4f0mWODRArQKzrkWHXOW6i69xEESaCVxvABKgIqTg+pUhMZbsgdeh8tM/+dbSAn/EzEEsQ8x9z6Lcwb/GRIhAb56Zx5BQBJuDEfO3H37mOgVgpmsv2BT4mzXHGH7/j9zYNALEEsTZHkc9NhAbQABqYngaAGBAjukADaAANVKsBIIZ4qxUvq+LprYoZE8bk2hoAYkAMiKEBNIAGqtUAEEO81Yr32is+2iPKQAPT0wAQA2JADA2gATRQrQaAGOKtVrysiqe3KmZMGJNrawCIATEghgbQABqoVgNADPFWK95rr/hojygDDUxPA0AMiAExNIAG0EC1GgBiiLda8bIqnt6qmDFhTK6tASAGxIAYGkADaKBaDcwSYnqJr7/O3GdVcGx52dbLgflUC6vOPvqiDDpBA5fTABC77fbmWIhJkN/7wEeB2BVXr3rLvN9YH99Ur7HQ2+p9zpOFPs/iPJ13vvOUxrfSH2vf9kgvNznhW3zbRwOzg5iiI39CxamAI2fokyrOcxTVVd4RVynqaoOY7Nl2nwGgTL8b1SDy51HsN+VHGClfZVxexwKa8lynVMbl+9iPdtjvN374CT9dSgOzg5gcVYqscp4AZbjlcyVnq7zK+RwQG++mVBSlcRBw2j6IqTI6n6Hk8VO+weU8p33suyzpeDrA9/heGlgMxBSFxY9bxuM2iOUorQ/EuLEue2PpsZ8fJyoCa3tsqHEQjAwkj4vqOF8gc77TY+y7Dullxxz/4t8uDQCxjshNjxHtvL6RmMuTDn/jCTAx8jKQ7GsDKEZf3i8BSzCL+X3tuz3S4ccYn+LTYzUwS4jJCRFAOtbjP4HIDspQyuVjdKZ9ne8TifGb2GVuQsErAkzjKADFPO0LbI7QPNbO97FTPU40xFQm2uqy7/qklxlr/Ipfj9HAbCEWHwX6t6/4hx3x0aIcViov0AleSnXeEFNe3GzfdlT2mEGgbPdNK9D4EaBTRU3ym1LnRQgJUM73b1/ZjmAnGzlf9Q7ZZ8y6xwz/4J9raWC2ELuWA2mHmxUNoAE0MJ4GgNgV/68TQh9P6Pge36OBeWoAiAExHn2iATSABqrVwEkQ+6vXv7lhwwdL1wAr+3mu7BnXusYViAFkFiQnaoDJrq7JjvGa53gBsRMnsKVHIVz/m6t9/MJkPs/JfKnjCsSAGJHYiRpY6qTBdQPBKWkAiJ04gRGJ8JvglG5k+gJYlqqBwSC2VAdy3cuYPEqLFsZ+GWPPOE97nIEYf1rLbzs9NADEpj2RAZrljg8Q6zGBcYMs9wbx2AMxNGAtkE5LC0AMiBGJ9dAAEJvWxAVIGA9r4CIQi2+Ad0NTTGvp5xR9t7Q+ATEmzaVpvpbrBWLh8yy1DNoS+xnfVu83zMsPenN9flt9m3/8/TGXV+o32R+yA8SAWJuuyB9XG4NDLH7SxJ8r8adKlDrPn0JR6jr+VIpSRUnK9+dQ4udNSnYkJJW1DbVjcdmG8mzHbbo/SmU3R2cqp7wu+239UR3Vd5vuD+nxos+fU5EP9QkV5+tYIFJeX/+qrsr3sQPEjh+zvuNAOXx7jgYGh5g6k0HgvDiZGw6CjiAjEDj1OYNF9XVOdrWV7KiMysue9pV6X8febEfHbf1UGZd3X3Rcst/VH9VR/dhf2yXdjsmxvlAE5TraN4hivs+3pfnDmYfsALHTx6ttDMjHp0No4GoQi9GKYGBAGTY6r32lBkeEic+12ZEzZLPkFNlzm0oFHpU7BWLZfld/clmOz79p9SgxPk6UTwWgYwCmOo7C4ph02QFi549d9DX7+HMoDVwVYqXI6BSIlezIISWICVQx/9xILDve8M35HA9/kwpe8evNisAML+8rPeT7HIW5rup5P9sBYsOP56Fx4jw+76OBi0BMDUdw6DjDxJ3rCzFHUG12Sm26XUd0rqvU7Xf101GWy+eytl/Kt30eJw5zIwpeEWDyb4aRzvsPNXRe0Vb8zcxjkqOwQ3ZUD4gNM44eA1L8OZQGLgax+AhPMFCHBSxN+N4Ehy6IuZxS22izo3yVKzlGENM5pX5U6XKlfjovl2+zX7quaF/2fEx6/M3r6MiP+5T6kaKA5PwMLB3nvBzNeTy67KgMEDt+3OxbUnx3SQ1cDGLndlqAcwR1ri3qcxOdqwEghobO1RD1L6MhIBb+chGRXUZkc/ArEEMbc9DxHK9hshCbo7O5pnonQiBW79hx38177IAYkRi/1/XQABCb90QI6OodXyDWYwJD4PUKfKixA2JoYCgtYWdYLQ0GsdJNTh5fP56zBpiMhp2M8Cf+PEUDQOz1gGbOoLnktZ1yw1GHiRoNDKsBIAbEiv8H6pKT/1xsMxkNOxnhT/x5igaAGBADYidq4JQbjjpM1GhgWA0AsRMnsLlEE1zH6Y+TmYyGnYzwJ/48RQMnQeyUhqiDQNEAGkADaGBoDQAx/sSe/yeGBtAAGqhWA1VCrJb3KtbSz6FXRpeyF18E7BcAt7XlF/rmN9+3lSefCAEN1KkBIHbBFRgQG/amEJjip1YOTTr5EyuHynN+2PHCn/jzGhq4CMTip0n8GRJ/csUXFY/93S596kT5LqO32EdbyvdnUlTWmz/TUrKj+q5jW0oFGOWrDdlxP9VGyY7yS/1xvvtiO27T+UplN4NN5ZRnO+6jyitPW1t/dE713abLzzUVxPLHKh1x6XMsOeoqQUx5/nRLLB/zD0V5c/Uv1wV0atTA4BDLk7Qm/tLkrXyV1RYn4TipayLXpC7HKvV+bkPn2+yojvvg1G0YLKp/Tn/iwNuO+6TjeD733X1RmdL1tl2Xbaq+Nh/PMRVUDB6npevMkCtBTPVzXYExAk37GZa5DsdM+GhgGhoYHGIRNhrkeOwJPk7kMcrQJB7Bov2SUGJ9n2+z4/Z1XvtKDY4IGJ9rs6N22voje+67UvVP5Uv9zHnuS5v9rv742peSZkjpugUcg01phE8JYi6fy0Ub2lfdpfiV65zGZMw4nDYOV4VYBIomZw2aUuWXBrANGhkEXXZimwaVwdEGsWP6o77EfhrU6lOpnznPfVH5aMf+6PKPyywlzRATiAQcX38+X4JYLKvyOlY5HiGeNoHYn6T4bywNDA4xTboRDnFS10Vq0tbmC84QcL7S0qTu8/lcm52+EJM92Wiz09Yflff1uq7SPv2Ur9xul/18rbatNPsznpvbfoaUIGYQGWg5woqPCbM/bM9183mOmZjRwPQ1MDjENOgChyZebTmqKU26sfyhSd2ikh23IRjkdm2nC2Kur9Q22uwoX+XcfkwFMZ1Tqn5FiJX66bxcvs1+m3/UB9nSFvsz131DJ16f8hSNKY2/ZbU9Hoz5MfrKv7tFGMb22J/+pMYYLWuMLgKxGkQUI6ga+ksfl3VjMt6MNxropwEgdsH/J4YI+4kQP+EnNIAGTtXAYiF2qsOox82GBtAAGpiOBoAYkdgifk9j0pnOpMNYMBZDagCIATEghgbQABqoVgNADPFWK94hV3PYIjpAA3VqAIgBMSCGBtAAGqhWA0AM8VYrXlbOda6cGTfGbUgNADEgBsTQABpAA9VqAIgh3mrFO+RqDltEB2igTg0AMSAGxNAAGkAD1WoAiCHeasXLyrnOlTPjxrgNqYGLQIz3EiLSIUWKLfSEBtBAmwaAGJEYkRgaQANooFoNdELs1q3PNM8++9ni9tRTt4oX7c+M6LMi3vSZE31OxOf8aRGlitqU78+Z5M+K6DjntRGZfFZraAANoIFlaaATYg8++IEiwAQ2nWsTS+lxooAlUAloTgUnlRXs/D0vnVOebQOxZQnS407KuKMBNNBHA50Qk4GHH/7QHsiU12W8DWICmaMypYaYwGV7LuNjUoSMBtAAGkADbRo4CDFVjCA7BDCVB2IIrk1w5KMNNIAGhtRAL4ipQcGrD8DcOT0i9L5SRViOspyWIjHV43EiIo/aYR89oAE00KaB3hBrM9CWL0DlP+wwvJwaYi6n1L+N2a7KaPMxKWJGA2gADaABa+BiEHMDh9LSo8dDdTiPgNEAGkADaEAaAGL8/xCiXDSABtBAtRoYHWKsplhNoQE0gAbQwKkaAGKswKpdgZ0qeuoxYaKB+WgAiAExIIYG0AAaqFYDQAzxViteVtPzWU0zlozlqRoAYkAMiKEBNIAGqtUAEEO81Yr31JUb9Vj1o4H5aACIATEghgbQABqoVgNADPFWK15W0/NZTTOWjOWpGgBiQAyIoQE0gAaq1QAQQ7zVivfUlRv1WPWjgfloYJIQ432K8xEYkwVjiQbQwCU1UBXEBLeuN95f0lHYHvdGfODp+5tnvvr4atO+x+PRFx/a5H/yy49t8n0+pvc+8o5NWdtSnsocYyfaZH9cXeB//D85iMVPuBhY/jxL6VMtFjGfbJm3mA2ou++5awUijbv2na9jgUh51sShVHVV/lw7h9rh/Ly1yfiOO76Tg5gEUXqcKJB1fVcMiI0rpGveyIqi3J72DaKY7/NtqSIwQc/nT7Xj+qTL0R9jPa2xrgZi+pCmNgQ0LQFdezz0KDE+TlT7AtAxAFMdR2Gx/6fYifXZX7Y2Gf9xxr8qiHVFYghoHAFd0++CV4yeFIEZXt5XeqhPOQpzXdXzfh87h9rh/Pw1yRiPP8aThJiEod+/okD8Rx1KY773eZw4vpg8FpdIBa8IMLWRYaTz/kMNnVe0FX8zc79yFHbIjuuRzltjjG+d4ztZiAlK+Q879LuY8/IfeQCxOgXYZ+JwdOTHfUr9SFFAcn4Glo5zXo7m3H6XHZchna/GGNt6x3ayEENU9YqKsWPs0AAauJYGgBhv7Cg+nr2WAGmHyQ4NoIFzNADEgBgQQwNoAA1UqwEghnirFe85qzfqsvpHA/PQABADYkAMDaABNFCtBoAY4q1WvKyk57GSZhwZx3M0AMSAGBBDA2gADVSrASCGeKsV7zmrN+qy+kcD89AAEANiQAwNoAE0UK0GgBjirVa8rKTnsZJmHBnHczQAxIAYEEMDaAANVKsBIIZ4qxXvOas36rL6RwPz0MAkIVb6KCaCm4fgGEfGEQ2ggSE1UBXEHvvNV3beYj+kI7A17RtLn1kpva3eeUrjZ1jaxrPNTlt58qetC8aH8ZkcxOInWPzZFX2CRWIVxNpEy6dY5itmfYolflJFIMofrcxlSjrJZUp2SvXIm6+2GNv6x3ZyEJOo2h4nArH6BXfqpKFISxDSpv1sJwMqn/fxITsuR7pcrTH2dY19dRBzdNYFNERYlwj7jpcAlAGmR4jOF8j62HL5PmUpM08tMa7zGdfqIIb45iO+vmMZoy/vl4AlOJXy3Y7r6tj7XeVdj3R5mmPM6xnzSUJMAlLElYXUFX3xm1g9osvjeuhY0ZZ+v3I57Zf+iEO/m0Uo6Tj+ltbXjtshna+mGNv5jO1kIRb/wIM/7JiP4E6dPAQjPwY0mBxNOT+DLUNMbZfsnNon6qFLNDC+BiYLMcQxvjgYA8YADaCBqWsAiPHGjs1juqmLlf4xoaIBNJA1AMSAGBBDA2gADVSrASCGeKsVb16RccwqHQ0sTwNADIgBMTSABtBAtRoAYoi3WvGy6l7eqpsxZ8yzBoAYEANiaAANoIFqNQDEEG+14s0rMo5ZpaOB5WkAiAExIIYG0AAaqFYDQAzxViteVt3LW3Uz5ox51gAQA2JADA2gATRQrQaAGOKtVrx5RcYxq3Q0sDwNTBZiemN911vrLyFWtae35+vlw9n+of7ovD7mmetxPMxNpZf9+sW/+HQYn+JH/DgHDUwWYmM5V2/ML0HsUH+A2GUnBCB2Wf8e0jfn8f9UNTBJiLVFRAKMv+x8CDTv/cTnG212fDy2/VLUVYKYy+c2ZdP9URojMZXN5d0X0uMmBH0/zJ9bcerPrig6e+Dp+zfn5dsMPNVXns6pnm2oHmNx3FjgL/w1NQ1MEmJyUgkmAkVfBwoogo/Laz9Cpi2/1G6pP4fsA7Fhb/YMJo+fgGQYKdWWyxpiyte+6zrfx6TDjhn+xJ/X0EBVEBMYcsTT5SSDKwPHdhxFRbj1hViM7NQHt9XVH86dflNnMNmXgpj3neayhlWMwhyNOaJzXdLTxwjf4bsxNFAVxOwgAUObj9tSg0Zg0qZyAlaM6DJ8gNg0b8QMJo/5sRBz1Ob6pNMcb8aFcemrgSohpovL8Gm74PxYL0ZlBtopkZhgZ5D6t7FoJ7fb1j/y+9+sJWCV8gQ85zv6Ul7Mx+/9/Y6v8NWUNTBJiPkxn1NHUT5WKnD0cWwJJoKPbCjVecMn2td+qd2Ybztuw3bUL+f16SNl+k0SeiwoOGnzY0DDKvvQZfWHH36cqDKKxGxDqcCW63LcbzzwE36aggYmCbEpOIY+cIOiATSABqavgeohlqMnHyO+6YuPMWKM0AAaOFcD1UPsXAdQn5sIDaABNFCvBoAY707kNyE0gAbQQLUaAGKIt1rxsnqud/XM2DF2Q2kAiAExIIYG0AAaqFYDQAzxViveoVZy2CEqQAP1agCIATEghgbQABqoVgNADPFWK15Wz/Wunhk7xm4oDQAxIAbE0AAaQAPVagCIId5qxTvUSg47RAVooF4NADEgBsTQABpAA9VqYHIQ00t144t0SysknVe50jny6l1RMXaMHRpAA8dqAIixAmMxgAbQABqoVgOdELt16zPNs89+trg99dSt4kXnKMmfOlG+9uPnS0xcf4/LL+91JOayylddlVfqck79yRSlzsufalE923C7pKz60AAaQAN1a6ATYg8++IEiwAQ2nSsNfhfEBBgDx48Nc3nnZ9sxP9dRWeVFSGlfebYDxOoWqseRlHFEA2ggaqATYir48MMf2gOZ8qKRuJ8BY5jkfEVKAprSGDVFWKmuIyulhlK2pfZjFOY6BmbsH/vcAGgADaCB+WjgIMQ02BFkXQBT2QyYUyEmO4KRxRbhlttQGQPR5UnnI1LGkrFEA2igTQO9IKbKgtchgKlchI+jI+Vl8DiyUhkBSnUVkTk/lrdNpb6QCLjcrsvElMeJ3ARRD+yjBzQwDw30htgxA+7HgIJTjMQEHm/xUZ/KKd+gMaycH+24H25D9WzLEHQbtqM6tu36pPMQMOPIOKKBZWvgIhAriUpAEYxK58hbtggZf8YfDaCBUzUAxPj/ISws0AAaQAPVauBqEDuVstRjhYYG0AAaQANtGgBirMCqXYG1iZp8Jjw0sBwNADEgBsTQABpAA9VqAIgh3mrFy2p7OattxpqxbtMAEANiQAwNoAE0UK0GgBjirVa8bSsz8lm1o4HlaACIATEghgbQABqoVgNADPFWK15W28tZbTPWjHWbBoAYEANiaAANoIFqNQDEEG+14m1bmZHPqh0NLEcDVUHs2PcvHlse4U9X+L/7wd9qfvF9z6w27cexeuXjf9hoi3lxX+fe/dZ3rc5rv3nyL5tsI5aP+13txnLsT1c7jM28xwaIEYm1Tv5TuvnPgUmEmK7px7//w0AM3Veh+yndg1PtyyQh5u+Q+fMscl789Io/teJPsPiTLX3K5+hMdpWnNkrteuD4lMu4qzlBTPDJAGqLrBS1KeLy5khM45ltOM9lVdfj3tauz5OOqwv8j/8nCTHBqCTODKBSGQHNUCqVz3kRYm3tqh0gNt2bJUNJwBLcrI9DkZjKC1Yur/0IPeeTTlcDjM1yx2aSEBMwBBTDyALNAHK+y6tOrFcqn/MixGwnt+t2SKd5o2SI+bczj9chiKm+ozCnynN90mmOO+PCuEgDk4SYxamoKn5IMwNI5ZQXI6hzIrG2dp1POs2bZgiIxUeIjPM0x5lxYVxKGpg0xNThCCUdR2DpOILNQFPqiy2Vd55/A4vlXS+3qyhNm8+TTueGyhDTsR8n+rex+Hgwl9c5RWCM6XTGlLFgLPpqYJIQE2S8vfcTn9+ZXPzIT+fzH3YIPDofoVQq77xc3m0qLbWren0dS7nr3IR+/OdUgJLvBTHl6fet+BuXyzl1ecPO+RF6jOV1xhI/4+dTNDBJiJ1yIdThBkADaAANLE8DQIz/L0N0iQbQABqoVgNADPFWK15W3ctbdTPmjHnWABADYkAMDaABNFCtBoAY4q1WvHlFxjGrdDSwPA0AMSAGxNAAGkAD1WoAiCHeasXLqnt5q27GnDHPGgBiQAyIoQE0gAaq1QAQQ7zVijevyDhmlY4GlqcBIAbEgBgaQANooFoNADHEW614WXUvb9XNmDPmWQNADIgBMTSABtBAtRqYHMT08l69mDfTdirH+e32pX5N/RpKfa4h7+577mqe+erjq+2Bp+/v1Mgnv/zYqtyjLz7UWa6G66aPRB9ooF0DQOzIFRgQaxfTpW80geneR97RG0oqC8TGG69L6wH7jK00MFmICRb6JEr8/Inzcr6/C5bzSyLPUZLsK0+b9t1GbFefZZFtbyor2y4b21U9l3PqT8bEfvKpl+NvQEFM0VgcV0dcitAysEoQU56juVg+5h+K8mL77B8/jvgMnw2pgUlCTJO/J36BwtCIFx7zVT6e69qXLdV1mQixUru5fGzXNpTG/FxH55UXweh2bUPH8bzzSW9vBBWDx2nJLxlyJYipfq4rMEagaT/DMtfhmIkYDUxDA5OEWAkyEowmeUc3SgWGmO/jLnFlwBgmOV+RkkCqNEZNEVZt/cm21J8YhfkaDOqu/nJue6NkSMk3Ao7BpjTCpwQxl8/log3tqy6+3/oeX+CLqWqgGogJDJr87cgIk5gXAej8mGbAnAqxrv7kNtS+gRj7wv5xE0OGmEAk4NiP+XwJYrGsyutY5XiEeNxY2I+k+G1sDVQFMQPKAFGaHViCWyzjuspzdKQ8bbavc470VMb5isicH8vbplK3FYGrPJfx+ZwKptpyPsfbSSJDShAziAy0HGHFx4TZl7bnuvk8x1vf4wt8MVUNVAMxOVAwERyUOoJSvvK8xUd/bU5X3WzHkLGd+KjP7Ro0hpXzc3/UrtuQPdsyBN2G7bi86rT1mfzbV8CKkJJPBCJFY0rjb1ltjwdjfoy+8u9uuR38zySOBqapgclBbCyhCCiC0Vjt0+40bxDGhXFBA9PWwGwh5mgnp22CBGLTFmrbuJHPuKGBZWtgthBD2MsWNuPP+KOBZWgAiB35xg5ujGXcGIwz44wG6tAAEANi/A6IBtAAGqhWA0AM8VYrXlbKdayUGSfG6ZIaAGJADIihATSABqrVABBDvNWK95KrO2wTPaCBOjQAxIAYEEMDaAANVKsBIIZ4qxUvK+U6VsqME+N0SQ0AMSAGxNAAGkAD1WoAiCHeasV7ydUdtoke0EAdGgBiF4KY3sPIuxiHuwl+9/9v7+x1ZVmSKsxzMHd+DDzgCUAChImwsHAwQAgJAwvhYSGNzytg8RqYvAPCx+AZLvru6LuziMns7r13d5+q7mWUIjMyMjIyY1Wuyt7nVP3Vv3//r3/+yx8uyt1g7re2H13L//qH/3zL9f/T3/3j7482994Xv/19SexBJPbRjaH2lzfl3c0KsX3/z//zw0XZdUx9kl7q014fyL//w7+56gef9kk/bHTo52an7fRvvFPu/Oz0l/zbJ+PcrYO2M37jY21yPdVPec3PR+z1lfHP/tZzXrfEab9bJHHs1iXxMG128WNn3hw/48/5ajfxw7jYcd17vsZ0dHk4EuNFvHyShFMML+/N04zf/0LvJ1ewzU+asODZZyaAfvalLesr//rDzpcJ6zPt8zMqxp46x9KHbZfmSx/stHXcd5TcoGygcxN1w3CjYG2yTB0biWlln+uZG9XOz4yB2LC1L+2Ok76Nbdem7c7PTm+/nX/Gc6PT1hjwycaYfS/F71yxnz6t3xKncdwy7ir+7G8554KOfuZdmymJOQkiiSD19HNe+KUt19AydrlG1GlzbRwf3So2/cy52M8YrDMWfrgydtvfQR6SxNjo/QYXhMBG72ZvUtjY1WErGanTbkrak+Su+ad/kqbjqJ/+rRNTks9qXGzQr+arn5LY5ROa64R0M84Ng5sbPbq0TfvU5yax84M+Nwz854ZE2c0ofVNO/7Nt1nd+dvqV/9zkVmtAH9fN8Xf+Z+yzzpzRXfNj+5SrcW+JXz+7fNk+5Yw/12FFMthnro0Nv+hp18axtGFurj826LXZyYxHG/rusKXNu8lDkliSjGTFhu8pRil5SRgQjLpLiUzicqydf/ww3sofsdEGEc12Y1Kf5IfO+l5ZD6QAAB8ASURBVCQ352u/yttILDcwy9zsbkZuIK6nNtbZZNg03IzQa7Pyg057N6r0Rbt15Mp/tq/Kq01dX7f4z40zyzmWc0zdblxsaUtb4nDzXsU0ddl3lue4GXOWZz/rzoUxua71mYQgaUy9/qfe8WwXD9Zz/FkGM9qv1mj6pr/2xOEYlQf8m9huU9+Rk3pIAQKwfim5Egi2XNhe6rcjMceACCVDdfgjHuuOOeu7+WpXeZ3EuOHzyZY6Nzw3Pus3N4RpP9eYvmwU1/zYj00oNxbGXW1M2uvf2Nyccg607fzs9NM/MehbmXHt1mHnHx+OoXRt6cOlHrnzkzZZnvbX4s++lC/lyzbmkOvsuiCNf5KV40y9c0fv2ljWNv1TZk6Mo71x48txKGeM6pX0xb/1d5enOYmx2a/IBD1kAUlIHBLTpeTSJ0lm5x8fq3Gnb0936o0l60l02l8jsRmn/ip/RW7c7POGdwNxjdg4vOlX9toptb/kR1s2HOytI+dmnG2U9T/1s77zs9Pbf+WfPrlRXlqHlf/Z37GQO18rP9gT31wz9Dt72zL+lZ9b8kU/r0tzIj7atUVO/5IJdolByrNvjoWfnf1uLTOOVX6z/d3KpyExEgNRQSheEAB66pQlIvWXkrkih0v+V76MA0lfbVJPWVJN/9oTa5IbcWX8qzgd590lmwEbSV5udEj16nb2U58b0MoP667vuRmrV+Lrkv9dDu2vNCbrylv9Y3dtHXJe6R/9pY1ztfHaX2n8+rpl3XJtMn71+Jh+dvmyz5TGpyRX2MycrXSuJ23EoY8ZE+0z/oxTQptj4g+7qc+1xPe7X4cjsXdPSOffm/JoGGATdaM9WmxfiQeCSCKa9a/4bt/n3ccvS2LzNGS94HoeuLrWXesjY2CecFYnqCPH39h+dX+9LIk1wd1Ai4FioBh4fQyUxPqb8tv/pt6N7vU3uub4dXNcEiuJlcSKgWKgGDgtBkpiBe9pwdun69d9um5um9tbMVASK4mVxIqBYqAYOC0GSmIF72nBe+uTWu36VF8MvC4GSmIlsZJYMVAMFAOnxUBJrOA9LXj7dP26T9fNbXN7KwZKYiWxklgxUAwUA6fFQEms4D0teG99Uqtdn+qLgdfFwKlIjBfl8vooXoq7A6Vvh9+1P0tPHPli32eN+6rj8O4+3233iu/xO1Pe3vX1TLym6mhz731xwO+JXbuZ5ydOpv1RSGzG1frXngR3NyvE5tvD58tc1Sfp7ey1ReZbwtM+/VC2T47r+/jmZqft9L/Dxc7PTn/Jv30yzpxX6rWd8Rsna5ProH7Ka34+Yq+vjHP2t57zuiVO+90iiWO3LomHabOLHzvz5vgZf85Xu4kfxsWO697zNaajy0OexPKTJfPUtSKxtOeklp8ymQnA1s+g0JZ1fPui4LSBGKnbps+0zzixX50Y04f2xErZPkj9I2nTNvXvVuYGZQOdm6gbhhsF65Jl6thITCv7XMvcqHZ+ZgzEhq19aXec9G1suzZtd352evvt/DOeG522xoBPNsbseyl+54r99Gn9ljiN45ZxV/Fnf8s5F3T0M+/aTEnMSRBJBKmnn/PCL225hpaxyzWiTptr4/joVrHpZ87FfsZgnbHww5Wx2/4O8nAkNr+vxaYOWZiMSWIr+0sktrNHn2RBWT8QkqSGtIzeuKa8JU5sGAM/zpH5Oi4+S2K3n+DcjHPD4OZGj27mSPvU5yax84M+Nwz85IZE2c0ofVNO/7Nt1nd+dvqV/9zkVmtAn7kOO/8z9llnzuicx86P7VOu7G+JXz+7fNk+5Yw/12FFMthnro0Nv+hp18axtGFurj826LXZyYxHG/rusKXNu8nDkViSBMmY9UkOs32SwCqh2kAWlLHBL2SSl8SyIysIhrYkHce7FqdxZwz0TfLUV+V1IssNzDI3u5uRG4hrqY11Nhk2DTcj9Nqs/KDT3o0qfdFuHbnyn+2r8mpT19ct/nPjzHKO5RxTtxsXW9rSljjcvFcxTV32neU5bsac5dnPunNhTK5rfSYhSBpTr/+pdzzbxYP1HH+WwYz2qzWavumvPXE4RuUB/ybm5m5yZv0aOUhQ9l9JfeJLokKiX9nvSExbxpQM1V2L0xhKYtcJyjXdSW74fLKlzg3PjU+fuSFM++mXvmwU1/zYj00oNxbGXW1M2uvf2Nyccg607fzs9NM/MehbmXHt1mHnHx+OoXRt6cOlHrnzkzZZnvbX4s++lC/lyzbmkOvsuiCNf5KV40y9c0fv2ljWNv1TZk6Mo71x48txKGeM6pX0xb/1d5eHO4mx+SchTFKa5JD2EMPuZDQTPX+mg0x2ZLXTp8+PxEk/7a+R2Iwzx2z5V39/mDe8G4jrw8bhTY/ttNdOqf0lP9qy4WBvHTk342yjrP+pn/Wdn53e/iv/9MmN8tI6rPzP/o6F3Pla+cGe+Oaaod/Z25bxr/zcki/6eV2aE/HRri1y+pdMsEtMUZ59cyz87Ox3a5lxrPKb7e9WPhyJkQDJCPLI0xH1vCAw7CEE9G74EMO1RGqbdjku/vRDOe0sZyy3xJn+tS+J/XpTcV1vlWwGbCR5udEh1avb2U99bkArP8Sn77kZq1fi65L/3VztrzQm68pb/WN3bR1yXukf/aWNc7Xx2l9p/Pq6Zd1ybTJ+9fiYfnb5ss+UxqckV9jMnK10ridtxKGPGRPtM/6MU0KbY+IPu6nPtcT3u1+HJLF3T0rn3xvzSBhgE3WjPVJcX40FgkgimvWv+m//59zHL0tieUrKcoH1HGB1nbvOR8fAPOGsTlBHn0PjO+A/7GhSuvkVA8VAMVAM3IqBlz2J3boAtevNUgwUA8XAeTFQEusfRt/+D8PdwM67gTV3zV1JrCRWEisGioFi4LQYKIkVvKcFb5/C+xReDBQDJbGSWEmsGCgGioHTYqAkVvCeFrx9Cu9TeDFQDJTESmIlsWKgGCgGTouBkljBe1rw9im8T+HFQDFQEiuJlcSKgWKgGDgtBg5HYvOFuLc8aX2mzy1+H2HDy4q5HuH7lX3y7j7fbfeK7/E7U+76eqb3Of2c4b4rifUJ7BSEuruZIDbfHj5f5qo+SW9nry0y3xLu+/Xmxr3Tp3/HxV/6n2OsCGznH1ti0V/2tc9uHVKv7ZwXMes77R2HuTgvdSu587+yRXfJ3rZVPNOftnNe0+6z9Xv5Zy6u81zPVX5X494TV8aidH2IjVi5ZpzafGt5WBLz8yp5auHTK77M10+Z8EkVdcr5iRb02F1abPzpE7usr8bFhtiwc1z9p32O65xS51j6sI3TJWX75DrQhzZtHfeVJTcQN+3cRN2svMlZgyxTx4Z+llc26NSnT/uqSxt8Tj2bgL7sa12JnhitT0mbfdM/dupnH9vccGy3f67Jzv9cW9Z8xpm6OZb1nX9jmvKaPXPQ9+yb9Wt+0tayvufmTbs6c/oZ/8Sdflw/fTJO5jTLxnjruPTF1n45LrpLfjIe+yN3913afOvyIUmMDV0iYqOm7KbugqFHR/2WnxMhAe31kXL60B59kkWOS5wSX5Ie+vSdZeaS/lbjOt9cB+PRFz7Sj/p3lt6IueGxMaNHN9dG+9R7o6dukpVtU3/LuJMo9LWS0z+xsamsbHOzWc2VPnO+0z/90j/22DjeXJtZn5vo9K+fnVzZ3zKv6W/lZ9pYT2xk/lZkYp9b/c/1cf1zHHwZw6X8MvalcWnL3H00fmNzjmeShySxPHVIDmzsbOp5oWOxJxGYADb5tMfOtpWUKNLfpXHxvfLjuKvx8Jfk4/z0Yz1joI0+K3/2e3eZG4NlbmRvZnS5RtqoczPhZmYzUY/cbR5Tr89L49I2/edYWZ7+qbNRESMXvozP+WFjOX0ZW+qmf9rwqX8JxD74oI917ZkPl/HYvvJv20pOe+rOJcurvqmbfrJtlpnr1K3mkja3+p9+HMtcsF5czg25yq9jXxoXP4yH7RzX/sqVH3OOTDK0z5HlqUiMDX61mHPDxwZdkowEteqvTgKBaCRI5G7c9K+PlIyZhExbSez+fxRnU8gbjzo3Izcra+6mYW6mvXolfd0Q0K1u+pX+2rj4yTjxYZ/V5jHHpY6dcTovNjD0eaFLuznuKn7tlbkxosuxtTEGYuNSj5zxZ9uqPO2vzWvlYzfubp1Xc/oMCVzyb15cH22zjo56xoOOy3nO9Ul95vcz8esLOfOebUcsH57EIAoIaZLSXMxJKEls9kXOfrPOiSdPSvaddtTnmCubSZ6TxKgn0Wmf8eN3nsRmnKux30HHzZs3MHOeN3HelCv7uU5pT9ulzQNb+18aF5vp1347OcfFf86VMjbZn3pufJfmO/2nH3zk3KbftN2NsfOP3/Str5097avxP+PHsZRJGuqQ+GbM1Fm+FKc2yFXM6Hc4uZbf3bjESt8c+yvxsybTX/o+WvmQJAY5eOUpiLJ6ZJISm7ptEAMLDSGgQ04S2CViRQ67cfG98mMcyIw/9ZSNM/1rXxK7fmLjRvMpV+kGjpy6nf3U5+alD6Vt1pXqV+OCEfRJQCvcpE6/ypX/lT/sXIM5L3zZpl+l/q2zCWY8q43S9hWJ6Uepf/rga/rXTpn29Ml5Oe5n/NhXyXiWU861s834lDNO7ZTaKfFL2yWcaJv5Vad03B2uPhq/fpHG6ByOLg9HYkdfsMZ3nVy6Rq+1RmxquaE2v7flF4LxoYE1m/Wu423reG2d3o7E5mnI+rWFavt9ANd17Dq+CwbmaWiePt9lHR49z7cjsUcvaP13ky4GioFi4HkYKIn1jR3Lvwn0JnzeTdi17loXA5/HQEmsJFYSKwaKgWLgtBgoiRW8pwVvn14///TatevavQoGSmIlsZJYMVAMFAOnxUBJrOA9LXhf5Umy8+ipqBj4PAZKYiWxklgxUAwUA6fFQEms4D0tePv0+vmn165d1+5VMFASK4mVxIqBYqAYOC0GSmIF72nB+ypPkp1HT0XFwOcxcEoSmy/HvQaAj9r74mBeBnzNd9s/D76uXdeuGCgGvoqBktjmJDY/mfLVhW7/r92sv/zvf/w+L9fzL/7lz37UU17p//bf/vJHffqgrD3yn/7j7370lfqWv5a7rl/X75EYeAiJcZLJz4s4AU84vHTXUw52lNHZx8+R2C+ltr64F7n6pIn+L9mv4nGsHYnhT9/aVj7+Jp2E45pDPJR//49+7wcCmmXq2PzJX//BD3aX/Gij78rH57Vr3DX+KgYeQmISEsFBSCtSgkD4mY82ypCG8hpJrH4enDp9EcNsWy2a8dhWEjvWzbUjH/OF1IYTmacyiAm9dW2yHwSYp7Vsa/lYOGg+mo+JgYeR2ByI+jwVSWIQGaSh/AyJ0ZfLcbO+I7FVPPbfkZjtlc+9mSAfrxXhJHFZ5gTmKSxJbPqB6PCp3tNdc/zcHHe9u96fwcDTSAwi4YRmkJ58JJtnk9guHuMriR33hoJkOD2ZKwgqiY06hOTPg5Ka9kr9eFpTv7O3vfK42Ghu3i83TyUxiAuQSSDIz5AYPpIQqUM6+qcuSVJe2TO29hmP9jsS4/R27aSoj8rH3FAQlCQGeSWBsea05WlKspr50M/8ORF/EuDs0/pjctp17bp+FgNPIzEChDQgHyRE8BUSy58CIRz8Q4j456Kci7KyX8VDH30o9U8bfrjSd8uPvwH9qU/iYc0hn9RT5hRFm6ex1KFPe4lw2k9SpL1X16AYOCYGHkJiTfYxk928NC/FQDHwahg4LIl5Cpry1RLQ+XRTKQaKgWLg8xg4LIk1qZ9Pateua1cMFAPvgoGSWP/e0b/3FAPFQDFwWgyUxAre04L3XZ40O8+eqoqBPQZKYiWxklgxUAwUA6fFQEms4D0tePt0un867dp0bd4FAyWxklhJrBgoBoqB02KgJFbwnha87/Kk2Xn2VFUM7DFQEiuJlcSKgWKgGDgtBkpiBe9pwdun0/3Tadema/MuGCiJlcRKYsVAMVAMnBYDpyUx3zzPa6nmy37f5Qmk8+zTdjFQDLw7Bk5LYryBPt8u/+6JfPX559vn8zMpvHHeNt9g71rwCRbb1FlXqt+99d72ypJFMXBMDDyExCCY/CyKyffTJ5ye/JwJdn4mxT63nKzwxWlM38jduJCdLxJO3zs9vvrJlWMCNr8VBpnlZ1Mo+3kVCCzJTpxAXpZT+v0xP++SbS0fEwvNS/MCBh5CYvkTH6SRxCHwJCHaKEMoSglO25TYS0hK21fjQnTpjzK6nV5fJbFj3iBJYpyeksQgKIgLm9SbU+SOxD5qk/YtHxMrzct75OVhJLYCEMQg8SAhEkkOEqOMTNJZ+UEnCWY7PrNOOU9bjo1up5/9Wz/GjQA5+ROgpy1ykz8ZQlzYcVHW3lMW9uqQK6KDGOfPksXAMTDQPDQPKww8jcQgrCQZSegZJMYYc/KQ2Eo/7Vo/3o0DASWRmSPICr2Ep35HTNqn3YrYbK88Hhaak+bkqSQGcQE6Ce0ZJzHHmmDf6bXrz4nHvTkm+ZAziMoT1/w50ROauVUmGWJTAjtuzs1ZZXM0MfA0EmNgSIzTGBKSeAaJMS4nLn9KRDLuJT1tJbHj3CyQUv4MyEmLHHGpl8DUQ2q2JTmpQ3qam/5p60+Kx8m/Oa1sTlYYeAiJrQaqrgAsBoqBYqAYuDcGDktieXLK8r0XoP56UxUDxUAxcF4MHJbECqrzgqq5a+6KgWLgWRgoifWdaT/+felZoOs43eCKgWLgXhgoiZXESmLFQDFQDJwWAyWxgve04L3Xk1z99FRQDJwXAyWxklhJrBgoBoqB02KgJFbwnha8fXo+79Nzc9fc3QsDJbGSWEmsGCgGioHTYqAkVvCeFrz3epKrn54KioHzYqAkVhIriRUDxUAxcFoMlMQK3tOCt0/P5316bu6au3th4GEk5lvieWXUIz55wkuEfSv+vRajfnpjFQPFQDFwLgw8jMQgGL7ZVUCcCxBHzVe+lT7fMJ9vpV+93Z721DM/3nhvP+fLm+7V5RvxfcN96uxTWWwXA98eAw8lMT95YqLza8q3fL15Zw9BcsKbPvJFwZRX485TYT+58u1BaJ4uSUlEUpm26LXJtqnHZpLatIHQ0KnHfuU7x2n5HDhqnl4vT3cnsfntriSTLN8Cpkv2ENwkMX3SxkUdIk07ykmuJbHzgZoTk7lWSjjWlamnnN8W0waJT9q5pv+S2Pkwkrlt+bXzd3cSEzCclpIs0EMYENPU22fKS/aXSIx++sKOMfOS4LSpPA/I+Skxf06EYPwZEAIylys9ut3PhvTTjz6UJbHz4MOcVb5Pzp5KYgILguOyfk2u7HcklgSGX+zmT4jXxmv7MW8AyGt3kiJnnqZm/tRLbLZLiHn6sjwJsT8nHhMT5rLyffPzTUgMwK1OapeAOO1XJIaOK/1w6rv0sySkN4kv+7d8jJsD8rpEYOQJoknyMXfqaUsflCE2T2jaq7fek9gxMGA+KpuPxMBTSSx/0rvldLSzTz1liWunn3+ny58zS2LHvyE8HflzH5JT1NRDNoB7p6eNfvpJQoPo1OepS53SMfImavn4GGqOXjdHDyOxguZ1QdPcNrfFQDFwFAx8cxKbpyfrR1mgxtGbtRgoBoqB42Lgm5NYwXFccDQ3zU0xUAwcHQMlsb478f/9Q5ijA7bxdVMtBoqBxEBJrCRWEisGioFi4LQYKIkVvKcFbz6Ntdyn82LgPTFQEiuJlcSKgWKgGDgtBkpiBe9pwdsn7/d88m7em/fEQEmsJFYSKwaKgWLgtBgoiRW8pwVvPo213KfzYuA9MVASK4mVxIqBYqAYOC0GSmIF72nB2yfv93zybt6b98TAw0jMt8fzGqlbXvabQWX5Xn7SZ8u9CYqBYqAYeA0MPIzE+HSKb5f/Clju5ecrMbTvtwe7b6bPN8ybl3wDvTrfOq9Uj1zZ7/S7t96nv5a/PT6ag/fNwUNJLD95AsggNV/we+s3vOZ3xPCDLj+vIoDTf57+dnr69VMsxwc/BAbxrL7rpV4MKCEvyyl39iu9xGn/lY1tlcfHUXP0mjm6O4kluUhYgoe65Wvymh9JCskFYSYxUka30zt+Sew8wJ4kBsnkN8HMKXJFYjv7nd4vP+OPsfGJLsdp+Tz4aa5eM1d3JzGBsjpBQRgQ2Tyh2WclV35WZJinLckT3U6/Gqu6Y4N8khh1SMyfDDkpmUN1SIluZ7/TS2L49RRWEjs2Rsx/5fvk6akkJrAgJi7rl+RHSMzTWfqDxFb6tGn5HIBfkRgkZf4kHetKCIjTFv1X9js9/rCnHV87/45TeQ4cNU+vladvQmKAaEVOK3Ct7FYnMU53H9E7Vn9OPA+gJ4nNnwE5cUk45hcJEWG7s7+kz9OdZJi+Wz4Pfpqr18zVU0nMn/mQt56ObiUxAIrPHMOfLXd6+pTEzgFsiCgvycrTEm3+bEhe0xaScgPb2d+ix0Y/lefATfP0+nl6GIkVPK8Pnua4OS4GioFvjYFvTmJ5csryt16Yjt+bsxgoBoqB42PgQyT2v9/9zve9ugbFwHUMdPM7/ubXHL1GjkpiJeY+mDwAA90gX2ODbB6Pn8eS2AM2sJ5Urp9UXn2Nuvkdf/Nrjl4jRyWxklhPYg/AQDfI19ggm8fj57Ek9oAN7NVPGZ3f9ZNmN7/jb37N0Wvk6MskViC8BhCax8/ncUXqXc/Pr2fXrmv3EQyUxPpRzP4H3i9ioCTWTfcjm25t74uXktgXN7AC8r6APON6lsSKgTPi9lViLomVxHoS+yIGSmIlsVchhDPOoyT2xQ3sjElvzPfddEti913P4rPr+REMHILEeFEvL/pdBY5+17ayr643wLMxUBIr5p6NuY73a8wdnsSarF8n653XIt9K7xvsXQ/eUk/7fMs8n06xn7bWleqRH7W3b0msGBULlc/Hwt1JbJ6q+NQJOi7KnKp40S9lEo7MF/9S5kOWtE1bdHxWxT5+YgVJW37FWR16Lvo4prrK5wPuq2sOYeU3vvBHHQJLEkM3yQ5byGsVw0ft00dJ7Hw4yvy1fO78PZXEJkFBbABoEl+CCmJK8oGcIDf0StolSfuqy3r6UV95LgBPEvNDmBCWJIZNflssc7wisY/apz/KJbFzYWjmr/Vz5++pJAbpCBjIyBPXR0nMvkrIKU9hnuz075iV5wUrJOVPgJAOuUzimmVITPs8ualDSnT0/Yj9xFFJ7Ly4mrls/Xy5fCkSg9QKwvOB8KM5g4A8kSUpUfZnQcr6nT81qscWPxKk+mv22ilLYq+POXNdebxcP4TEOAmRbE9HnLTmaQsbdILCPtaV+MifASEqT2BKfzrc+cAXNulH/5XHA+W1nEg+aZcnsfnzIKcs2tOesmT4UfvppyR2PgzNHLZ+3hzencQAA2QBofDzoQQDYaHzmj/12Yd227RVot+RGOPSpi0ySRL/XAXr+cAKyeSJa0VISWLkmNOUffzZEL06CUw8fNTefsiS2Pkwlflr+dz5ewiJrUAxT2Irm+rODaZ3zV9JrLh9V+wfYd4lsb6xo6fTL2KgJFYSO8Jm/q4xPI3E3nWBO+/X3+BKYq+f497Hx81xSeyLT+EF93HB/azclMSKgWdhreP8JtZKYiWx/pz4RQyUxH5zY+lm2zV5Fga+TGKrG7i665+v7xq99ho96wbuOCWLd8fAb/30pz/9nuvnP//59z/72c9+KKtToufqxvvaG2/ze7/85r3z3Xffbe8r2mz3/vvFL37xw/2ID3Tcm5aR2KNH2qZeX9pnO33SH+Ngx3XL/U9f/eoH6ZiUrTuubUjL2Diu0vZso5xxUc92+zqW7dZtVzo+dW3RYW8f9MaiPW2Wf/KTn/y4BtoZk21zvBzLNqQ+bScflrXTt1I9Mc3xtEkflHNutiFzfPziL+3RWddeaVtKx1FHfdrrDxvGzzplLvsbn3bo7acNY/xAYnbG2MsANEbfTe5+m1zX8rXXkvuHTQE57yXrSO83JPdhEos3rZtV3uDes0ps9Zd23r/6oo2xjMF29cYz27MPZftpN8dEjw22tNme9o6VvrHTRh/4cS31p++UlPPSFqkePyuysN2xM95s0yc640OXeXO+6UO/9Jvt2tmmtI/txG4ZG+rGo0/06pDWKavH1jb9raQ+sSUW56heyRi0G2/aGac29NEu+1tOP/ThmrFik3P5gcQMEkd2tLMDElg33tfeeJvf++XXm1LpfZX3GOW8GW2bOvVIL2y80FHOMdBx76Kj7P2sLfa2W9ZOP6nn/rfdPcH++rSfkv62IdM+N2DsaddGO8fBD+NT56LuGCnpn770qdSfde3ROz/btHUO+lXvuNpnTPq1D23Md/bRjrHTdtql72lLPPalbLxK2/RBHNkHPXUu4tHOfsZoTJkH+6nDhv5zDHzMMbFDr3/L2uIDv7PdOI0HP79l0C4yndA5CMa2dZO73ybXtXzttcyb1ptbyb1lu/cWde9F7byJ0Vv2Zvf+zD72U+LTcfK+tk+OaRxpRxlftlHWNzJjsW3VnrFrp2+lemKa42njeNhSzrnZhnR+lLHFX9pnf/ups0/6toxNXtgyN8ZLG+drHNfmgz39uehjDPY3xtRbTkn/tM2YsuwcZlyuQUr7pd+cb46vX3S72LFJn/ZBOnd9oqOMvW3qrNP+fyBPpEe6R2KWAAAAAElFTkSuQmCC;" vertex="1" parent="1">
          <mxGeometry x="66.74" y="318" width="186.53" height="442" as="geometry" />
        </mxCell>
        <mxCell id="cTySW3DaNSFtTWo8WYRS-18" style="edgeStyle=orthogonalEdgeStyle;rounded=0;orthogonalLoop=1;jettySize=auto;html=1;entryX=1;entryY=0.5;entryDx=0;entryDy=0;" edge="1" parent="1" source="cTySW3DaNSFtTWo8WYRS-14" target="cTySW3DaNSFtTWo8WYRS-1">
          <mxGeometry relative="1" as="geometry" />
        </mxCell>
        <mxCell id="cTySW3DaNSFtTWo8WYRS-19" value="Retrieve data&lt;br&gt;from /status" style="edgeLabel;html=1;align=center;verticalAlign=middle;resizable=0;points=[];" vertex="1" connectable="0" parent="cTySW3DaNSFtTWo8WYRS-18">
          <mxGeometry x="0.0119" relative="1" as="geometry">
            <mxPoint as="offset" />
          </mxGeometry>
        </mxCell>
        <mxCell id="cTySW3DaNSFtTWo8WYRS-20" value="" style="shape=image;verticalLabelPosition=bottom;labelBackgroundColor=default;verticalAlign=top;aspect=fixed;imageAspect=0;image=data:image/png,iVBORw0KGgoAAAANSUhEUgAAAmMAAAEKCAYAAABe21JyAAAgAElEQVR4Ae2936ttW3Iepj/AzltQ972SujsOtK0EIgiSmxhHakHkELkjEgkSvSgguMcPUlBDJLCMpTg2Emdz2yAsERIHEgfOOQKp/aAQBaTto/3itILbDzqnj6FRbLfbLV3OQ6zEeXMaNEONMarGVzVqzDHmWnP92qceNnPNOceoH199VaPmj73Wt3zb+//GEn+BQXAgOBAcCA4EB4IDwYHLcOBbAvjLAB+4B+7BgeBAcCA4EBwIDhAHohmLO4NxZzQ4EBwIDgQHggPBgQtyIJqxC4IfV0RxRRQcCA4EB4IDwYHgQDRj0YzF1VBwIDgQHAgOBAeCAxfkwE00Yz/ywz86QZJPLd/2fvwFBsGB/TgQV6txxyI4EBwIDpyDAzfdjL3/3qeW+AsMggOn58A5ilHoiEUvOBAceFc5cKPNGC8+n1ze+zj9fUL9ffzjn1jiLzAIDmzngM0lyq/336M/vuMYi8W7uliE38H94MDpOHCDzVhuxLgJ+/jHvmP52Ld+u/r71m/99iX+AoPgwHYO2Fyi/MoNWjRksRCdbiEKbAPbd50DN9eM0RU6NWIf/9gnlk998tPL93z39y6f/b4fXL7/s5+Lv8AgOLAjByivKL8ozyjf8l0yukMWC0dgEBwIDgQH9uTADTZj+bEkLRDRhEUDGk346TlAeUb5RnfI6iPLKMR7FuKQFXwKDrzbHLi5ZizfFfuOdMUeC/HpF+LAODAmDtAdsvzIkh9XvtuFMxbOiH9wIDiwJwdusBn7RHo/LO6KRZMQjeL5OED5Ru+T5btj8ahyzyIcsmJRDw4EB262GYuF+HwLcWAdWBMHdDMWDVksoLGABgeCA3txIJqxHV94jqYlmpbHzIFoxmLh2WvhCTnBpeCA5sDNNWP03VG0KDzmRS98i6buGjlAeUf5F985potoLCqBR3AgOHAsB26yGaPvj7rGxSpsiibqMXOA8i6asVh0jl10Yn5wKDjQciCasXhMGY1tcGCKA9GMtQU0FpXAJDgQHNiDA9GMxUI8tRA/5js+4dvcHc1oxmLR2WPRCRnBo+BAy4GDm7HPf/5nlg8//KXVv8//1E/v8m3dP/LDPypy6DFJPKacWzyjyQic9uRANGNtAY1FJTAJDgQH9uDAQc3Yr/7qF5dvfvOPp/5o7LGGRjMWTcWeTUXIOoxP0YzFonNsLY/5waHggM+Bg5qxL3z4S8uP//hfGjZZNIbGHgt+NGOHLZ7RdARue3LgFM3YX/iBv3h0fTi2vsR8f3EIXAKX4MD5OHBQM3buAEUzFk3Fnk1FyDqMT6doxugOO+b3uWtL6DvfYhNYB9bBgT4HNjVjVDS/9k//+dTjSXyMSXOOKbg4d/M7Yx9+efnmN7+8fAFf1E/H8mPWr//az8gL7F/4Un30isebxduT+dnPLXX+Hy6//hNlwevoUjInxlTZf7w0tnXsyTp+Zvn1r1e/vvQhLMQ9vb3jBcOf/LU/XL759d9YfhIxpc8070u/IngqH+3YY/d/4jeWr38TcD5W3iOc/9Wv/pPlyQc/1cSDjtG5rfGJZqxfSGORCWyCA4+bAz//c39j+c4/813DO/k05uf+6l8fjrN82dSMfe1r31hevfpH6dEjPX6c/aM51JBZ5bP7hzVjpQn50peXL2EzlhZxbs5+ZfkSL+g/8RvLr0ujAsfVIt2RWRqxpkn6LMrBz9AQpTGOPai3a1vfnrrQ/sryBfar8d3TS3Z6x9lmOv/HTjNGtuzZHPXwYjtiW2PsY0FN1x/8wVvVkHnHRnL4fDRjj3uxma3HMS548C5ygPqY3/u9N6sNGTViNIbGbsVoUzNGd7sOeQeM5tDcrcbx+MOaMV6gsLn43EJ3dbBpsvt54Rk1Flrm91ND5d0pouYHjtPdLXVnihouczfJt4d9oa1nm7UHx+NnGNfT2ztemkOy70u/pv1KmJGvu94VI1v3bO4Qh3fnMzZf+JkbrC3baMZiEeaaHNvgwrvGAWq01hoybMTo81Z8ohkzzVlenKBpwTtU8tmcTw0M3YErjwOlAcPGycyB5gabQ9uctYulJ8ccI3vEBmg8oNFqmr5yrnc82cENl2ky6Vxq0vgOHN8R/JAeJWZMqAmlMfz4WvlM8hi7dFeO/KmPVvOjTzr2h8uXvkQy6M5d3pfHwalJrXNy00v422OAh8TzcR/jJszeJWu5tY7D3s0YFSziA93+31q4Ynw0A8GB4MC5OdBryI5txMiPXZoxXmB5awG6pjtjqdmRx3B5sVaNQfeRIy5UTvMDd3HoDpjIhEajuStWmhgZS80BNEzeYqlkSzPh2APNmDRBcOeq13T1jqs7ck0zZvSnRgkeZZJP3wRM0n7nUeiHXy7Y2WaL9kGGasb8OI6w9PB9jMeuoRmju9tcH2a20aDFQmvXkdgPTlwDB2xDtkcjRn7t0ozZd8csYFfVjJUGKC8I+U5LbYY6i7o0PdyQmebDNlC8b5oW7zFlv/lhXbxds83Y09hbZKQmKD/66+mdOm78oqanYki6vEYKHznCeWhWZZFOTSOMSf6s7CcZ3NwxXp9bvr/I1rbB+R5Oj+g4N2K0xc+HNJ3H3hmjhgz/qOGimNN3EeJx+kwFztaR2I/FODgQHLgGDmBDxu+IHVuzdmnGRuBcWzOGC1FtkKjZwYZhbdGmxgAWf26+eBEv+73GBvXbuzfNnCRzZJuxh+1wtuKvsVn0use/qB8b8iPEdPfNs22lcUo2wfleI7W5oYN4GL/JN1r0vTuTKhZm3q2f85ov79isn8c2Y16doLhQ8+Wdi2Ox8AYHggPXygFuyOg9smMbMfLx3W7GqPHgx3mmCakLFDQOsljb5gfH5DtYaeFH+erxJ4xXzQgcx2akaxs3jMYe1Pvhr8DXeoD8nt7ecfG93HFi3Gg8PP7MuIGeNG9tn87h40f0CZvjNRkZ87U7YNJsoh+P/HN8tUUsZNe6kIVdwc3ggObAO9iM5cU/PxKrd1P47kk+nl/6zou7bQKoWaBjdW5qQFITU14Wh+ZEyZXjRiY1T/Ciu21olIwyTjcexh5sxtAue3fI1VveW2vs4SZJN2NkW3vHyfiHjaXXnBkb+bvK6C5ewmX6saV5WR/8a75r7pE3YvViAuJ2pM9xZ0wXz1hMAo/gQHBgLw68A83YfovRKRa425bZ+UqPIxf928bk8fItmrFYePZaeEJOcCk4oDmwqRn7oz/6l+kLzT788JeWLX/0ght9Yeyh4OM7JZu/gT8ag83ftB7N0ONtqI6J7SmaMXqfdI/3LQ6tLTFPLwiBR+ARHLgMBzY1Y9QUUVPFj9RmtzQHG6qtwca50YxFo3BMQxFzD+fPKZqxrbUgxl9moQjcA/fgwGk5sKkZu1Qwohk7fAGN5iOw24sD0Yydthhfqr6G3ohrcODyHIhmLB5jxmPM4MAUB6IZu3zBjkUzYhAceJwciGYsFuKphXivuysh53bv1EUz9jgXgVjcI67Bgctz4CabsY9967dHAxFNZHDgzBygvKN3Nt9/71PLt71Pf5cvYGFDxCA4EBx4DBy4uWbsvY9/Yolm7HbvrsSdsduNHeUd5V80Y7H4PYbFL3wIHl8TB6IZO/PdhWhGbrcZeddjF81YLF7XtHiFLcHHx8SBm23GPvt9PxiPqaKRDA6ciQOUb7oZi4XgMS0E4UvwOThwWQ7cYDP2yeXjH/uO5Xu++3tjIT7TQvyu3xEK/z+X8o3y7r2Pf7I8prxs4YqFI/APDgQHHhMHbq4Ze/+9T6b3Vj71yU8vcXcsHvlFo3R6DlCeUb7l98WiGXtMC0D4Eg1NcOA6OHCDzdin0tX5xz/2ibRA0B2yaMpOvyBH0/PuYUx5RflFjRjlW9wVu46iHYtnxCE48Pg4cHPNGP1LPf03Fy0MdKVOj07oXRb8o+9Dir/AIDiwnQOYR/Q5P5rERiy+0iIWwse3EEZMI6aX5sANNmNEmtyQ5UeWuSmjxoz/6LuQ4i8wCA5s5wDnUN3SY0l+NBmN2KULduiPpiE48Dg5cKPNWA4G3SGLv8AgOHB6DsQC8DgXgIhrxDU4cB0cuOlmTJOIvxU8tvnb0QOHwOFYDlxHkdJ5HjYFHsGB4MDj48C3/Fvf+e8u8RcYBAeCA8GB4EBwIDgQHLgMB6IZi2Y0mvHgQHAgOBAcCA4EBy7IgWjGLgh+XIFc5gokcA/cgwPBgeBAcOCaOBDNWDRjcTUUHAgOBAeCA8GB4MAFORDN2AXBv6au/By2/OlPf9fyyU9+evn29//UEi+gPr4XUCOmEdNDOUA1gWoD1Yhz1KLQEXfFro0D0YxFM3aW4kdFNpqwWKwPXaxj3rvBHaoR0ZBFo3RtjdI57IlmLJqxszRjdNUbC+q7saBGnCPOx3CAasU5Fr/QEU3fNXEgmrFoxs5S+OKuWCzQxyzQMffd4Q/VimtaJMOWaNrOwYFoxqIZO0vhi8X03VlMI9YR62M5cI7FL3REk3VNHIhmLJqxaMbej8Xz2MUz5geH9uTANS2SYUs0befgQDRj0YxFMxbNWLzPFxy4Kg6cY/ELHdFkXRMHohmLZiyasViIr2oh3vMOS8i6zTt217RIhi3RtJ2DA9GMRTN2tc3Yd/6Z71o+/PCXln/xL/6f9EefT7m4fuYz//7yqy9+Pen62j/958tv/q+/tdCxU+oM2bfZLETcThu3Uy1+//cf/b/LD/+nP3qWmncqH04l9zN/9vuW3/qt31m++c0/Xn73d7+8/MB/8LnA6Yz9QTRjZwT7VEl0jFxMQEpE2j9GXm/u1sXr85//mYUaoj/6o3+50Oef/7m/kT7Tsc//1E/v3iBR00VN39//+7+7/PiP/6Wkkz7TsWjITrvwbuVGjH/88ejVkWOPU6PxX/zYk5PUuFnb/s3/6aNl9m9W5h7jfvu3H5b/43f/YcKHtrS/h9yQMXdn8STN2Pd8959fvuvf+czVBZJsItsuRQ5qdH75b/33y1e+8tV09UGFgT7TMW6C6KqNmqJz2Eg6Sf+bN19NCUhb2mdb9rRhdgGlRoibsC98+EsL3R3jufSZjlGD9nu/92b5kR/+UTnHY7Zs/69/7c8vP/Wv/9tJxt/+2/9jasTsfGrI/rff/O2j9FiZsf/4m4mI8XEx3rP2oKxoxvqNAWJDDSvtI3an/PyLv/g33bWnd/yUtlxK9u7N2J/7975/+dm//F8vP/RD/9nZAjkLHtlEtpGNs3P2GvdXfvavpSbi61//w4UIRmSnP/pMx6jB+IVf+ELaniMJsBHj5ou2p2rIZhanX/3VL6YCQI0RNmF2bnqcWMbSY0V7fnafGrF/9Se/NzVkpO8v/MBfbGTxHbpZmTHuuEU48Av8iAN71V0rBxsOe+5c+7N3xWjcuWwiPYjNuZux3trTO34OXOiRNmEy80fr97E27dqMcSNGgTzWsFPNJ9vO3ZBRI0YBpcar59f//Heeq6D3xu1xnAjOd8ToM8o8FflHiyw1QoTRlrtdNJbmHPMYERsyz0bW4Z075Ng//sdfaxo+kkPHOenv7x/UmJ/56b8i52iMPd+zo6eLxrMuTx7asiaD5JAtLGvNri0+jHRSs846aUv7FoORXaPzLI/t5n27JTk0xh4/9T7b9UP/8Y+cXfepfSP5WJP2/Ex8ufT69L9/9K+W2b89fbeyfvmX/zuVR4QNv09HW8wx+kzjrYw993trT+/4nro9WYQBcWXmj3Hz5Mwe260Zu4VGjEE5Z0NGRKKuea0RozHUHCH52da9t6yL7oDRZ08+Hd/7DtmogHMztqWxortZhJl3R2ukD8+vNWR7NWO8eJK9qJs+U/OBDQUt8PTH42xzQvtrDcCaLpJJNqA+1kNbq5vGoS041p6jcT25Mz6M7GbdVofFY2TX6DzroS3J9mJG56gR6p1DGVs/Ew49zLfKutXxXl3aeoxeQKenDTiP4oXN2H/5k/+V2sexp/o824jRuFPZQHIJi7/7d/8XaTZsQ4HNCI2j8ae0h2T31p7e8VPbc075uzRjt9SIMbjnasjoaoIeQ7Jeb8tEJ7LTH90e9cYde4wI3bsjZmXvTf6ZRYF8P+TO2Izs0Zj/7+/8pjyyxLF7NGO8aPMW5c8ewzlrizXL4y3Oo89rDROdp+aD5vI8+mwbKT5H8eLPtO3pxDH82frAc3nL42a21Fxhgzaya3SedXLTZsfjedTLx4/dWmyOlXeL8209OmSfmjGqpV/84m9IPaVYcjPGTyyoITtE/qFzrqkZYyxGvtA4wm40bo/zvbWnd3wPndcg4+hm7BYbMQb+HA0Z3WFauyvGtpxjS7ZgMRrp5ASkBm40dnR+ZkGgl+XpBf2ZsTSGxtKc2fHeOGq26B8GCBdsyOiu26tX/ygdp3M0Zkuj6OmiYyQLz9HCa4/xOGpMcCx/ts0HH7fbrXJpPjcgLKvXvJFtXpNmmzmWY7drPli7uUHr4YHjR3aNzrOdrJP2UT6fpy36Sp85ljSe72zRZ/7DuSyXz9FcOka48DHa8nErn+ejTBqDcz15OP7Yz5wf9J/OLIvubNN/IJMdeMea/jGHjtE5Hru2HdWT2fN0dwcbMrKB6ho3YrSdlXXouC3viNlG7VCdM/PwnajRf9LzWjAjd48x2HihvN5xHLPXZ8QH88r7fBXvjP3sX/5ry8//3C9s+qN3tvYCzMq5Nns4+a2dl9inpnCLPZyAezSTa4WXz9EL/Fv+c5HG0hyef8j2a1/7RpJBjRb9/a3P/JDcIaOGjI+THmrIDtGBcwh/3KfPdIwWYT5OCzkdW2s+eudYBsvFfW4wsGnw7MGGAO1CWSSDGw48jg0KHrefR/7heLabfeZ9kmHtH9k1Os96ufmhfauDjpEcGoPjcZ9tY5sJR8SLxiK2NJ7HejbSeJRv7aJzKJ9kM05sI8nlz3ts2Ue8gKJ84eP0mfXQGD7Ox9a2e9ZHbMjIBn4ScY5GjPy41maM7hxSjae/0VdZ8FqwZ1zWZFHTxU9xcFzvOI7Z6zM+pmWcelsae6zeo++M/eB/9J+kRoyM/L7v/Q+n/uhu2rGG9+aT7Fk7yGZqJMmHnrxjj1Pyk55ZORTUPbrsnj5rD9n2z/7ZH6RCSVu0lT7T+J6sLcfXCi+fo/9cnL1ypjmEE11x8/xDtuQfLhokw3uHjBeZQ3TgHNKH+/yZjvMfLaT0mRdnHsOL6+yianXxfFy0SRaO8xZ12wSQPV7DQMdprLWb7act27DmA9qDc3ufaTzLG9k1Ok86CB/EyLOHzrNOmmP9phhis0V+M440jz+zTySPx3s20njUR/PYLjrOn1kebRnrtXjg+K2fKfeoycI7YCSD7pTRcbqYYZn0mY7hXTQ+52231JaZsdyQEU70d65GjGy71mYMcRvV+tF5lHXsZ2y46DPL6x3n87e+PboZIwC4ITtlU7M30OeyeetjSnrHjObs7S/Lo0KEDRe9z8YvcZJuash47J4J6BVce4wKNjVY1JTZc3afxtBYLPh2zMw+4WGbMZpnG7JTN2NoKy+ieIwbNDw2+ky+4RiWaxdnbiT4PM6hz14jQGNtQ8FjrXyWN+uDtZvn97bY3IzsGp1HWazPs8ceYwx5DvnKzRUdQ73cPJEM/OPxdB6bQZpv5dMxtsGzme0gvayDxvHxa99yDdpzyw3ZORsxst8+etyyv6f/VhbdGfuxH/sg/dE37tPdMTuG9/dcC1imt+01XL3jnoxbPbZLM0bOn6u52QPoc9pqG5yR/dQc0ZzRuEPPU2HGZgz3bcLZ/UN10rzZ4k9Xz6Nvvef3UmjsrNzeOPLfa8ZoPDZk1PTROzI9ObPHSd9oLC3KuBjb/dF8Pu/pomO0QPMY2vJCz00CnuPz3kJu5WPDYWVs8cHKtbLsvm1G7Hxr19p5woLOe3+Mm+cLY8i20Rj64320wdrLY3hL5zH+dNzKp2Psx0gey6XxNJb3r3l7TK2hufS+z5ZHR1vHb7HvWpovazO+E0Xftk/NmR3D+3uuBSzTbnsNV++4nb/3PuLj1QM8tsfTrN2aMQLinE3OocCf20YiEgV15r0rGkNjac6h/o3mEYGuuRmjBYJeyqdv2PfuetExOnfsi/u8EBEevWaMxtiGjOcduiV9a3NpsaQxvPDT2LU5NM6OZ/nePGoQaGHnMXYhpznYRNBnlmN1UcOATQN95rl2LMtgvWtbOxZl0WfWwTKszWt20ZzReZbLW2uP1xjZY2Qj2kl2I+7WZtZFW4oJ4krHrHw6hnZZeaSb5NAfyyYZuM/Hr3E7qmOj84QH1rm9x4/k4flrbca2YHTqZqzXcPWOI76n+kzNPPk987el8e/Zu2szRkq42VnrsnvGnPo42XTqd8Q8H+i2OBHffucNjuWX6099C90mIO7bhLP7aO/Wz1sKPt+FoqYL30ehz3SM7lB5jdoWHTyW/F9rxmgcNmQ879At6bNzaZGk4/yH57kR4XO4pXF8nrY4jz7TWHuM9mmhZznYIPBYPsdbPu7pQttt80HzaQ7PY3m4Zdm4pfO4z/NpS8dxPn32GoyeXSx3dJ7HsT7eJxs8zOgY20djR80Yy0VfWAeeY9+sfB7jzSGZPB7l2wYP517b5631xY6ni1r6Sgt+DLe2pbpMOJ1qzYpmrP8TTBw3Wv/o9Rx7I6J3nOc9pu3uzRiBQ6Sml+ivDSiy6VQJN/KVmiwqEPROFiU/Fwf6TMfo3KkbMbLRFikqQmwPFyW2jYrZ6DvSRn7z+a3Fnpot+m9JemT5c3/1ry8flseXdGyvRoxsotvL9JNKdGWz9veln/hv5L8st/oS4x/PT/xQQ4NNZ8T2NLHlunHoli4kqXZhM9r7TDWRFv1DdY3mXXMzNtuw0jjCb+RrnB83nj2MTtKM9ZS968ep6+cX9Lkw0NUAHbNXBKfCakuRomJG4/ew5dBFi/77ihom+pv9T6wtuuiuGH29BcejtyX9/8Nn//OFflx8i/wYe5rF+lK4Ej8upftd0rtHzbkWGdfajNG606t33vFz3Cy4lphdwo5oxr7z8E72EgG7VZ3v0kISvj6uBizief543mqdC7tjPT2UA9GMRTO2y52vEQFjQTv/ghaYB+a3yoFRPYnz0fQ8Ng5EMxbNWDRj78eifauLdtj9OLn72Bba8CeaxxEHohmLZiyasWjG4j2o4MBVcWC0cMX5aG4eGweiGYtm7CzN2Le//6euqtjHHZXHeUcl4nr7caVa8dgW2vAnmscRB6IZi2bsLIXvk5/8dDRjcfclOBAcGHKAasVo4Yrz0dw8Ng5EMxbN2FkK35/+9HctcXfs9u9axJ2niOEpOUA1gmrFY1tow59oHkcciGYsmrGzFT4qsnTVG01ZLOinXNBD9u3xi2oC1YZoxKJpGTUtj/V8NGPRjJ2tGXusSRR+xQISHAgOBAeCA8dwIJqxaMaiGQsOBAeCA8GB4EBw4IIciGbsguAf00XH3LgKCw4EB4IDwYHgwOPgQDRj0YzF1VBwIDgQHAgOBAeCAxfkQDRjFwQ/rmgexxVNxDHiGBwIDgQHggPHcCCasWjG4mooOBAcCA4EB4IDwYELciCasQuCf0wXHXPjKiw4EBwIDgQHggOPgwPRjEUzFldDwYHgQHAgOBAcCA5ckAPRjF0Q/LiieRxXNBHHiGNwIDgQHAgOHMOBaMaiGYuroeBAcCA4EBwIDgQHLsiBaMYuCP4xXXTMjauw4EBwIDgQHAgOPA4ORDMWzVhcDQUHggPBgeBAcCA4cEEORDN2QfDjiuZxXNFEHCOOwYHgQHDg8XLgF3/xby5f+cpXl8/82e9TDWvv+CFciGYsmjFFrkNIFHMebxGK2EZsgwPBgXedA9SEvXnz1aYh6x0/BK9oxqIZi2YsOBAcCA4EB4IDwYEVDvQar97xrQ1ZNGMr4G8FM8bHFWRwIDgQHAgOBAceJwd6jVfv+BYeRDMWzVhcDQUHggPBgeBAcCA4MMGBXuPVOz7bkEUzNgH+LJgx7nFeDUVcI67BgeBAcCA4wBzAxouP0bZ3HMf0PkczFs1YXA0FB4IDwYHgQHAgODDJAWq66L8r6aV+bK56x3FM73M0Y5Pg9wCM43G1FBwIDgQHggPBgXeDA9hw0WeOe+84nx9toxmLZkzINCJLnH83ik3EOeIcHAgOBAdaDvQart7xLRhGMxbNWDRjwYHgQHAgOBAcCA6scKDXcPWOb2nEaGw0YyvgbwUzxrdXEoFJYBIcCA4EB4IDt8yBXsPVO36Ir9GMRTMWV0PBgeBAcCA4EBwIDnQ4QD97RC/rU/OFjVbvOI6Z/RzNWAf8WQBjXFzxBQeCA8GB4EBwIDhwDAeiGYtmTHX6x5Ap5kYxCg4EB4IDwYHgwHYORDMWzVg0Y8GB4EBwIDgQHAgOXJAD0YxdEPy4eth+9RCYBWbBgeBAcCA48Ng4EM1YNGNxNRQcCA4EB4IDwYHgwAU5EM3YBcF/bJ19+BNXq8GB4EBwIDgQHNjOgWjGohmLq6HgQHAgOBAcCA4EBy7IgWjGLgh+XD1sv3oIzAKz4EBwIDgQHHhsHPiWP/En/uQSf4FBcCA4EBwIDgQHggPBgctw4Fs+9t77S/wFBsGB4EBwIDgQHAgOBAcuw4FoxqIZjWY8OBAcCA4EB4IDwYELciCasQuCH1cgl7kCCdwD9+BAcCA4EBy4Jg5EMxbNWFwNBQeCA8GB4EBwIDhwQQ5EM3ZB8K+pKw9b4ioxOBAcCA4EB4IDl+FANGPRjMXVUHAgOBAcCA4EB4IDF+RANGMXBD+uQC5zBRK4B+7BgeBAcCA4cE0ciGYsmrG4GgoOBAeCA8GB4EBw4IIciGbsguBfU1cetsRVYnAgOBAcCA4EBy7DgWjGohmLq6HgQHAgOBAcCA4EBy7IgWjGLgh+XIFc5gokcA/cgwPBgeBAcOCaOBDNWDRjcTUUHAgOBAeCA8GB4MAFOTDZjD1dHl4+LYF6srx4+Wz5oDH6yfLi9TeWtx/VvzfPn+Q5T54tb8nCCNgAACAASURBVOA4jXm4v1djcV7+fL/cvff+8sHzV2bcq+XFE9vRt7pFntht56zvZ73Zhu3d89PlgXy8qzqSvNcebnXMNj2tjm3zD9Ub886Fc+agx/f3l4/dQf44vLp7WfPw7VE50NHP+Q+5jXxX9n10QB6B3FPYP8bH1pSeDzkPpd6YOpeOH4j/uXh2zXowTrKeMPfOttVcSHbc3UN9L+cPjXPKZeRXlndSfxudZ67rT54tD9wfvIf9hbYj10CoZU1+vVpe/LdOfyFrr47d24++unzl9zvyJH7jnFa1bicezjVjk8ClpE5B9gt4Siy1cPRJd/cSZWRwhuS0BEv731i2FvNKAEwQTZJ+AauB5ICJPOX7rDxvXKujb483P45dO151EcI8KHEzPLd5RXxj7n2MmxopNHOxX9Vfig+PEV1clGwNMPaOsc/8ZrlJz472T+GjFtsVzAhfyOuU67CfmtKNto/xWbGHY/AItoQl1/yE6yFN/Q44ePlFTXbmJyz2h8SZ1yjxrcpj33fnQ6PzAnzC/FL9hbaFsOc68DFq2gR3GkdY1fqYOVL3ETeSo/C0NYkxgRg2ucxcurvXsvj4kdu5ZmwSuOS8dRIMtKTOYBqQYHwF0wZBB0zGObqTzo/8AMk8R+dxyd/a2w2so3vNrnqu1VHPdfA5WNdIXv/K5nI2jWzun//g+b1z97U//mQ+pkbKcjcX61qgyC7kwtPlhVxxZpsP5rKrP8vMeeVfrLRcJ/usH30803woitm/+fkSD9f+GXx6d/8dm588W17IVXi5k4/NGC0Yz/mpgjP/ZDm5p65L5LfH8z19mpWFuQVzcE1MTcH2i37habNuZd9V87A3Txqd4Nveuhx5qsYqLLUdd8/xaZITi7tnUKszbm+lsS2yyFdVT/jJgq5ftldo65i2TeLn+HfIualm7IPnz9Ijw6RAOe8YtxLk2WZMB4B0OEHwAHB0J0BVN+3Y7MjK83Sw5gFu7d0/sK2OefvmMJiVl+Jqye5gOivvouPcBXxfvKb9c23x4l6KUC8GTl5M2eDq50KGV6wan5w70DyRHNWg6PHaFm8h8o6tySjnevZbblp80n55lNHD1Moo+/vn+YSfHVs0rofLuUx+ezw/3IfDsSi5tcrfQf6N4mP5V5q7x9yM4Rqv+otVrCY4kXIeb/DQHGcdbzCvr0Txha6by6P+Z9X+df6uNmO5U/Sfr3aJ4jjJiTDXjHlXpRNBIBAc3dkHWBgMWHnhyFc12K3n4xTErNt790Pm0nNslaytvRhYhSsX+0Kit3wHgX2R4/bKC3VUGzkuooPlk98oC5692zm0f/fSIbDBjptkfF9GEZl1IDbJL4pHKWCAndhskicdf/lUvT/IejK3QNZHmIhcJJ/J+4xpnsWh2Kfimez6e8vv8HuQBUcZIz51dNj3HWX8ekJyrqRtstNyN8eaY6b8x1hDrJLNnXNKH8zp639/SfF4/Wx5Ae+l+fHIHNKvHIz8R17XscyBVXsn7bcy+vhwXs3kQrY1yXJjPeLoU/UeoOWpirfwgu2z9YdrIddusJ/z73l557DD/awP5Jdcru/6Mi/rGOFAR4etFzLexi3NZ9vzlsbm3LtfXvB7xMxpM15hxbZsqDeWH/j+o5ItdnMNcGJoxxQclZxkI8RINWMV3/polLFw4l70cb5kzCqG4hvqFPxWYmrrWfFD1itZJ0lG706qzgFcN9A3sVGw4zqQsejypozPPmdf6LPCmmWi/4gZr7/sr8ll7BH6drK927arzVhWhsB6jZJRKIHVySTAK+c6wVFjSP5cEJpmjG1p5BWbqajxuTSWyQhk58bAOY9BZvILZuZuXCII66LgJ3mYgLTI5X1MIGnyii9Vp8Uk79fzZdHkglUwlPNFnhCb9svYrF/b1iceFCJIBtHzHthRdGYuFKyhMcq2ZHl5vuYHy0xYS9LQmBq3yhWci+dRfm1QFQ4im3hS5AiOhRsplj0deQzbS9hpfpic4QJht7Lo6vHafzrXxr7Gi2xE/7WsOs457urPut6SzPJ4jvkqGCY/yjiTB6v6YJ6WtS9+2oYxPltil7DAPE8+WR0Zm4c75E+92MrxhYU25U3JR5VD5RjnEHMUcpl8FZtwLo8l+0ycdf4XG3F8koOcYn+4rpXaj3MSR6GmGJ06JpXTzAPmGNUOzKumjhYf0xj0l3OasRJeZv+UzBQzkw8wr20cII7F5xRD4QGd7+BFupKdgI1qxrIdLQdxXUZbwRbAKnMKbLA60z6ct2uuOZ/lVZtpP8eq6FexR/sy32Ze3h9xoj3PemqNkvXdxtT1H3KO80aaTu5nECPWt8923Iypl+t6BABjrJMAQgqgEJTm5MDpRHi6PKgxNA6SHeQ1wUi6GbSybWSBrSXBOOFRni5ItmCVYDeBYnK29kpBFPut7xrbRj8v6OKP1ZH3EcuENydFU/zMeJNsiMX6Z5t8Wa4034JRwabRY/2w8ux+5UNbcCH2yW9vLsQf+CIcaOxrZehYtueZr10MhANgi3esiRmPLzoF2+y3+ICyjnnZ1NVv41Xj8Za5VgoZ2ZOLNhdqtn9t68n3MF6TUc659pt5M/gkOZzbZj5izQVccrSMBZ4pTnQ4qvnFizUsAg1H+eKRbPS5IXcwnLmY3xyv+t6Ng30jw8SsOc/2QX4W7mK9Qjs4h5DTbU3MtlkZap1pbDG2Ml7AXW2HiXeSl/2oeluMVAxhTht/ji/yy/HLcnnlPSteVzEfGU+xOdkEOgc4KX+I82a8wtzkRIMn2q76C4N1I8fGbmW8sc+zQcWC+GjytvE5rcGQh419K/ZMjF1txmpibkgiG2Qwog2YQzpyWL20Rw5OBmFFdxOMYpfyERIyBYLvitFYlQxkz1pQWnu9wKIOe/sTz7HtWobVkfcl2bh5A5+Sr7yv/CGMS0EZFklLOFuIBtg0SWL9sPLsfrU1+UryTBIxXuIT+8xcTL7znQijv7Gv1a/j0J7PfF3jh8Wws9/EyB+n7YExNN/6zhjMbF39Bq8iR3HLxqTBFGxs7Mh4Io85jvrYmoxyzrUf5k3jQz7DwtXYXGW6sbB4qPktfxoZFj+7T/LSsdqMYRNT84HHtdxMOvlukcgiv1r77ELc1GfHviR/ExdbnmUbMQ55jOWFGtfYYuU6/tn4NP+AUeYIJ1oZyQauS2QDf1ayC28U3hVz7RfqGD2hwrHMzXxMZFqdQ5w0bso/8inlGvcJLb8yB4td5iKSm6IuZwUzbYPitYxBTHt2cB4glxinum18JB2XemeMnFUv180YYoMMIM02YxI4+T6zlSBgl72iezVwfEVLJCkFIwVCko3JxsFdsSf52553A1uazDfPnzbf3dbob5orqyPvS7I149kHTpj+3QpuUFFWHz+b+NauSu4kY5j0Vp7dJ3mgYzXmg7lerBr7Whk6lu15ZR/wv4+hwYjnjJoJGtcd491h7uhhfXbbka0arzQnY8B8ac/nO2TjYpvtS/jiwt2xY4jn6rwN+JActMfiBPuaGwXvjRxtZFhO2n2uX2nB17FoMHLm1kbOs9fhdyMD8pGwaM7Do1LAqrFNnTMy2UesydwomkZH4dfYYuU6/ik76LyzaCe5fLyV0drAY50cVLLofJbH+SQ4sS93+B1djjzGRXHW+G11smz5Dk8zXvDn9aPnT54nd2IVltlWvNmi+gtnrPiezrU26fOAReMPnCNZ1n9Ht4qhOW9vnnTtMPPWxq3eGUukkIbINGY9JSsgbGnGaGwlYw5C3S/ApmILpFjR7YJgimwCf6oZ49vu3JxZkrX2JtmqkOQ5+XjbGDXHm4XF6jAFIY0viZN8ovGAlY2feVyj8TdENnNl8S3/5p9t72DTxCj7URdq4wcXFrA9yZcCXMbLPtnKX19gZeVz9F01wqVkD+APOHPR0LzN9qarOVj83qrCN+LHOp7C1QYrPa/hiMTFifWmxwFFT09/4ZbELI2r3GrjT/ZoPoiPYjP6pscLv9yxOM987tmfmvlqb7Kliw9xaN727LuRzRye5GiSgWOtH2kfOIwXJ4RROS/xSQtp+Y94K0vGVx8T3pBvgj9/jYeJP/OQciLp9HQUG99inrA8N645zyRPpRkw2E5hUX1rL5S8GoE8KucBD26Wqi+tDB3Dch5jKjWK44U2tvJyvni2oK38uR2n7XF0zsQUY2dipv9JR+evznX9Og7XWD2G/bDblhPdeS4HQd7oPPNNxazMp7necYNJ17bOuEEzhsBN3hqFW5CSSCXQfDsyJe3wG/gzOROJQCbKSJ8TQZh83LVjoYIAWBCoAL/Gb/jPia513i93xn4ucrloVZ35eCYM20kYNPKUHTTeFBgmwkf3y4P7H2utjhT4UpiSbv5vN0mgFqNsY9FNzRhisYFs4h/McbFB+9LibP14Kv/12MT25X36wj9ls+Co5eT3XYy/gkN9jynrqHIzX6ssjrO+BV/+myv52tdB8XAxEJtXeOnMlVzihZ1yAvCWxDdczXgRR7HYr+v2bK/6oSBJXvb4y7mxTXfyBf2A2ImfAxwt9mI/yhX7ER8T02ncKm8Yc+FPstWeJ8yMLvMfw4nHTc7UhfThZa1d4l/BRXKy+JjOe7Ic2x5e8q87mBoMfEN83zx/Vr+Ms6uD7+IyJzr8JXuUDBp/v3yR/4My+WP4ZsYL7uo4+aJjkJ5I8H9Lk1yXZ/w9cXpuHTsRQwdjeSevsbGVpzhP4107MaeLjF7NbHTmud2Ykv29vCm2UDP2BrC0fBQf1EUP9hdof/vZ8tmtfQlng18T1/Z8a6uJdckhzmvatnNam8XnZNf4/KAZGwvYqjDGW0x9QmbymaIzGVQfY19PvYtk7bqWfS4st/7FmdeCZ9jh58cN4ZIW0wMa3KPqxw3h85j9xNdyun6eoGb29M68utS1MziFtSiasQsTpffsee9mLF31OFdU/HUaSIrr+nyCwnLhmF8XvlEQby4e0Yy9oz9oPXo6xbm8d83Md4rkjqPUz94FPtsR2y21JZoxIdYZiQO3ib3bnfqW7F53x/xbr22CAQ69W9Ny2/bUV+elqLA+p5ncQvbLjzX+sF+w9fiwn923rv/S9kNuXKJukE6oHVsfPe/HoyvA4VL4X0BvfXw4U29NjuxVMxXv+FHzXmtT8IlyM5qxCyRXFMVIvuBAcCA4EBwIDgQHmAPRjEUz9o7e8o8iwEUgtsGF4EBwIDhwWQ5EMxbNWDRjwYHgQHAgOBAcCA5ckAPRjF0Q/LgSueyVSOAf+AcHggPBgeDANXDg4GbsuP/2a/87I8mD77E5HpxWx/Eyg7TXhGHmYOelVnzh1OFVfSm29/1C41iv6ucmH/4JQv2zBNrnfM/cEGeQ+/bAl3TX7B/jY14UPsQHxujqt7mWHPrPFQlnxcH9a1OrY8zfIceuPi7vko+ZM36u61xUdYZiiLVi+nvzLLZr+utYqRuK79q+Q/JI5J7C/hl8VL2+ou8Zy0U8fxnf3eaELUHlb2uWLzhd+RLAHXRE4akJ8xiwWE3OlDj1P33SWCgOxF8pWJyIGxuaVf2FrzxGdDGPk33QRBp7x/HRi3nSs6P9U/j0vneIfXw021qvDllEpFYK/6q8hhcHYtbqeFy5Ps6HR+4v1yj6r+smz3OjI9wsYyu39M9+5ZoEtWeGc6v6C/Y8RnjOMSmNmNht7J3Qn/jNcpOePe2fwWf2K0XY58O2cWdsggzHF4PH9X0sve9GOx6njSR2EzMney1GJBObF/6ppKorL2a1eZv2w9Wf5eai58tUxSXxj+ybLzBpvhQ39m9+vvjn2j+Dz3mKk9h5lhytfGj1Zv7IgrfRHj/e8BNcG+W19h3y249r/h537mrqww64ptqhcu04bLzYzR5zL7roQo4bleIv8q397cfDuezqJ52pjvTuFmHtzdi19WsN07Y2bptfZXv2T+FzpgvPaMZ2SdgacC+xPBJ4427imLuAr/t/Mr9cW9rkb39Lzti7+c5Ume/qr98FpRvCqjMVE2y+SI4pqH3MvCtL71jV15XVs9/mhMUn7ZfvGrqSharro/XloP3DFzCyCxfHbKfH0Yl4rdje6jhO3sF4znJqxZeDdZ9A5jXVbs8WN+4pP3sXZwfWCv6JtibfszzbENYYZq6/hXnkR6821nmFv7b2UIy9YxOx9/Br9JWfKKsXXsW/9F2QPUz3ybVhM5aCXW6P4hVPPk5X/gVs5xaqzKVzarFpi1EaW8Yk0JLzcFs2JTktAAUQDogch7EpMKij2sggiw4gCXf4+BtU+DtUPIdkzH1zfdXLMpmEXWwkkYAEDS76jguTDGWynkw2kKV+V6scf/lMfhMyzUNMIXYoP/nz+u8tv8O/R1ZwlDES744OXqQ4zjJ+A7Hdwp8x5zgr/zHWkLzJ5s65NlnBPld/+U1K/m3Q4p8fjxxH/SO7IB9srHYgr+tY5kAdV891j3Xst+P7+DC/NR/tfNrn3OE8yNsyr8O3+gWnXARZny7mwjnmUtryHC7eM19UyfJpLt7NzseJU1UXyId6w/5hvNMcxe8sr821KlPwSrzMOZTrDvtRxxK+qKPaaPHVc0SHws3Oyb/N+/D8yfA/7areYqP4PKo/T9WX2VpcVC4LZzlWdm1ZiTfX1ufltzeLfdburA/kcw7L7ykzjnWMxLujg+/Oe/zw8sU75uV4tt3kH9vwxKsBZDPb753vH/P085r58PzZ8oZ5JHEvspI95c4ZxW9DrU3+WXnCgb6ts/i14/r4ME8UH90avc0utmG9GSOnGQgTYDZM/+BpDTKdR6N1IDOJhcCmmCTjkj5NMm6Aqm5IRAw4FMeqI+sc2STnizyZT/uFRFm/to0BbbfcjNTfVuxiU3TmhC1YJuLl4pZtqYVZ7viUJGDbc5HlWNB4/kwkYeyxQOJ5lF9vQSscVDIXOZBgCZ/Em56OvHiwvYSZ5sckmTtJqf2vPqO+GieyEf2f1E0cc/VnfN+SzLssK/NFNxAcB4q1YDuV2Bw/beee+FVsSMcYn5FunS+FE1xX7JVo4btgknIC42P8N+dz7CE3IW/Jr8pNjR9zEHPsrXC6xFQuZIoP6jzoNLxodRofLAaFW7kBqrorV4p++KcJqyPtw3nLVX3eiwljnvX7udNimBtonuvxh31nH0rjVrDM8bN1vWCr6mM5VvjylmPRizfO5bFODru44PgkB/1jf0wTiHNSze3zQ+ebg2mpC26eWf+Z4xh7rCsGn1ndnB+Cc5GZ8Xq1vHn5bPkgHSt8lfzO/uRxEFe0aeVzmmdkWS7P+uDiZ3WP8DG5Pat7Zty4GessFhncHsFKQLhTli2PBwIXMFrQc7LWIoBXqqWoGsIlsCVwVkfer/JMA9CAbMY3SdhPGg18KTqSnFkuXyHVbcGm0WP9sPLsPtkFtid5fDUN22SPNxf8grn9xbGVoWPZnmf7qu9sF/MDbLDJgvtNzHhe0Sm8y/LFB5Rxd68uGnTsWF5n6+q38aK5JebCgcxfsocXH9c2tFM+e/I9jDs2i5xeM2nmzeCTcOjHzhbBpnawTVN80/5rrvGCyIulzwO5u856y1bXD8Qh6+zVjuwPc7hueXxjo1wQgY7ke8UQn0Iwf1he4mjCvDbyVke2qcqzC9h6TA7kE+GY/GD8eb9iIjnfqT/WD18eyFfNxyDe1jYv/qlmMG4ODo0MzcfGXrGvxUDF09ji1SEbMxmTbDLyZR0EjqWmn33D43OfPf1NvMRfjFF5Sb5wVj8lW9ftyfcwFixWcPTs1/Mo3mN8SM7W2Gk9vs/rzRjfseBFzSwmcleMAFALExEUg2GVGwJzAA2BsKDo4uQ3YzpwVkfeRxBtcNS+8ofs14mOctaBtgk9wGaU7GyHxMLKr7YmG0mewbXa683lWPJjX4NjY18rQ8ehPZ8XlzV+WL509psY+eO0PTCG5guOcHwloSt2jJP1w+BVZClu2Zg0mK7ZkvHU/POOrcko50b4TeNDPq8UMaNHYSG1Y5ZvFl+9r2OdcZludJOdvKhhXLMOxBx9SDpXeKRtIuy1zZlTqENfePJ41M/H2DerI+1jTEwMdL02F6YUk8RJxmIltjZXLJct19X4tjZYP5qF18oXW8nGQby9ubz28E2HNIb9be1r7LGxdHQkn1b4oWqKwkfnMHKuP8fjVpaz7XUIrZv0efqbeJH9ims2Jg6mKz5nvDkexSYVo9bOHjae/Th2Fh/yWefivA2oz34eNmM8IYFOTVkhVd4HkFQA+oTI8trzSV7TNHCBerq8kNug2fFGf0MWq4Nl1XcfmuCoYlyvOhkD3qZ58shiFAhLPmuXmd8ksx1v5dl9kgdzVok7mJuSBGTRfmNfK0PHsj2v7FtLxNE5xTmDI8/tjtH/0syx3bTtyG54VRYJTuD2fC50vLCObEj4YnHv2DGSo4umxW8DPqQf7WHsYcs5k+6MqDw3/ELu0vyGb3Y8X5h5jUPmHuM+xEPszTrqHbS8j3IwhprvFsdi36rPeY7UtOa/t1r9NnbWBpHFPjkc6ccEfEjzCFuo9SzT29p4baw/1o8m/lY+N1MJ30G8nbnNYq/sdWpXI8PwsTnvxR/w9TDsHEPO9bjcG0O4ztaXTbIdXilMvfN0TOXDGh6EL14Y+U1hz2Y83sOGxmzBZ7ZpQ90zn9ebMQINimxKlKlmjAukAfG5fq6MxS3JdhI+H28bo+Z4E3RbwExipfGlgCefaPxKwTGPayiwaP8a2EKCJ8/Se0TZ9g42TTKbZO/dGQPbk3whe/Fb9on4/PUFBpNUBAxuyR7AH3C+K/FM/on8PL8uup6OET/WkhPONVjBOS7SfMWrCpwT6yfPlpmXlFWce/oLt6T4pXGVW238yR7NB6VH2Z7jh+OFX804jUcjs2d/aoiqvWleFx+K77rt5G8/V2b4VvmXsct5m/AlH6BG+T7W+XS+/Xf2jJMushgTY2Pnwk/ZUXI963tlmplWXrY7H2/vZLfHbcwzLhAzE9s0Pj3hyLGi8f2YUExBVuIz7K/xrKkPJf+lPmT+vkj/ENDWhuQHjjV+5IUea2/GRudaJ95WFvlhjmWcqq+CM8fT5HbG3fCxyeUSP+Qpy1vDUp1rsdJcbznC571Y8/vXPGa87etPGEnM8rjKrdb3hBliofxsa5YaD/wa24yy+vZvwof4ssH2LTYOm7GH11RIStNSFvwEDh4rBOVxnBi1AABZy5Uvj6WgNfJUcCiYNTnYuTznfnl4ybZhAhYCFBuFGCnxynj+bzcBtgRL/GK5RTc1Y4iFkA8D7n8W/2COiw3alxLa+vFU/usx4ZdsZ5LdLw9iu8VLy8lXucZfwaFcebCsl1VuxrHK4jjnq/SK14vnr8qj0b4OiqOLgYq9j6c3V2LMzSrZD3gzb7StbDNt1xsKmV/ss7ZX/cVmFUsbD25GWf823ckWzDmInbWzt9+1H+UyB9KWbTQxncFNYcE+1wVV2dLwTfPkzfNniec+96rst4CJ5F/xp4mVxPTV8ob/O1jufFe+U87RXGUvc8ziVo5r3cSDVh7GiMa39uU5b17eu/+x1uogDuo45f924xhyEwJ4KWzoe+ReVV3uBU0vN6t/EiPjc6/+NH4o3hTb07FXy8PLui5ZvLScwjNPVop7tZfi+/Cy/Kdl4bXI4jibuqX42NXBj+4Ab5CH8Xc/W27hegg6K941NoqrmM+QH65OrMNr+tM4zTUbD34Swmv+2y26JTcZO+Aw2rj2ecX+IT6Ab11zK75D7NbsMufWmzEzeE/F87Ls+xMZiJwk7SI3L9cC6uupd5Hs+GvZL4lwAMEPx+pafA87biGG9n1Ptrl3h4rPT22bR3qFE3fPlhfuv/ZfN2d8rEozNvH1ElOYpbuD9y4+u8TklOtGWhwPWJBPaVPIHn7tySwv3+VxV9+M+cWJ7yzs14ylDtlpaLbfzj13sY9m7F1O4Kv3PV2VOotn97HnlvzJTUp7R6B3YbVF9iXG9uzeuRk7aUxOjFs0Y9H4PNLm9zqbMbg12N7y5EaMb1vu1ZDp29V8S7Ut9FBsmtufbBNvnUVoVyLp28OH3P69rsXc+IO31dVjFIjBKfG8Of2Xxs+PizzqQTy3PKZZizHUCs7Z6ZfN1+Se7RzGzKtlui559fCQHD4kJt1HOhxX52L2ENu6c1SsT11bfS53bTuEL8ofXjNw6/FhR7tuXf+l7T8k5itzrrMZWzF412QIPXGVFRwIDgQHggPBgeDAhTkQzdiFAxDN5Y5XehHLKKjBgeBAcCA4cIMciGbsBoMWDVw0cMGB4EBwIDgQHHg8HIhmLJqxuIoKDgQHggPBgeBAcOCCHJhoxvQLpN4L7erFzuFLnOvylCx+MXT4XUb4X0j0HTn85bLYNeOLsvklSXkZ1nkR/+Gev28GX6jEz/nlyvZFWO/F0la3vGw8xAt9qJ+z3kNf8MwxwFgmeXu9VJ0I3ep4PFdxOZ7CnwslcOaAxzfzPVJOXFWeHcXBjn7GBHIL+cZf3pnz4AAeg9y3J7B/jI/Nad+HHCOoGyoWuhYe6gd/p9jZ+YgvUCu/ap06S86jHek7uPQakGPgx2dsn5PrSd+h8mawuXTtnFlPTY2RtRq4nr6fzuZJ/RUfwt7mx//56qvwvaYoq+Jt58hayjZckotc9w7YDpoxArIFAYtqKlrgfNrvFkcimZVX993v9KKiC/Ld5FH/Jo9EcoifEslfQKwva0Wu/bbu+iWWro0UHJvEXES6eDn2KwIjdv7Y1pa6AHAchdwjnKcJ1upo7Zi1N8Z52NVmweGy4ZnlNcWbYy9fgruRg6v6C094jOhi/tgcNPZ6/upjerFKena0fwqf3vebsY+4LY1jg0MZo/ThvGv+jHV54J+O3c753OgutafUMqltsO7M21MbCWl0uWYfJG/G9yuonZPrKWEruJiffCOMKS+F8yVOdTxgQZiqtUfnd/3SWFzv7BiWp3uW+Vjz/Mtt15ux5osTCzml8OV9BXADLDj35Mnyidps8wAAIABJREFUgSowBCgsJs353Dkr+Wp+kY2FUREJdPO8lcKfiroiheMfy1HbHjGMfkd3XrAAAyXXzIdzucggOftjW0K29iZ5yvct8ryxrY7WDm/eNR4bNPgQl7P6mAqc5U7mrBTBZBvGgn8Kq+J8MJdc/Vlu5rXPz5ZrZJ/1o9pnMU3zpQbRuG3zRZ5r/ww++s6LyOvyAPFv/ep9l2Jf7uX52Mag9atv/35jWy6RbB2fNObg5slZA5w6vq+v63zZV5cTi8n1VH9BsIOT+cmnHAdo0KQ22Trh+J8wxxsezphu/jk+XuHY9WbMMTgVWSmEOQDY1RLgw+aJ5VIxFFkeYCR/XKQVKZoG0shdSaTZZox/k7EmxSQxHN0+QY3NjBdsjyswrb1JXjRj7jsTmvPj2FRenHhsp5mgn8XSzVjJ016uObyc8sHVz3eArQ0Vi8xdyGuSM809p+g7V+VH2Q95luRYfNJ+eYTSw1TJaPMN7dvajF0DH6/BhhqbPtdozHG10uGb5YOKdeU5xnjb53W+bJO13Z5N66n47uAk59iGUocg14lHulbRWMf/VGvwEaczhurA86duDT81ZnvI39iMZTAVeAqkp8sDAL1q4EwBHoxJBYGfE5tttyFcSaQkT9nvEUxfdWUfPWIwAWHr6M4+wMJkCJwLSSYhFu1aYLLu9NzcLAwyl7BRfrX2prFljMKVZXKc+Q4G+yLHMVFsQlUbOS6ig+WT3ygL4mnn0P7cLyOU5CdZRY9gAngkW14+Ve8vZI5Xu/m9BDxe8yCPI7tEvsIpL9x1fOZEHWvjA5wxfFA5lfCy3Km21LEFB8Qa5CY7OueqDMcmV3/5LUn+7dcSR+07xyVfEetH/o4esNUt1Px7gVt96Nhvfe7jw/ywV/bWhzxOY1DHYF6T7uvmI/sM7/Mk3Jl3+bdD62+9cqx5PGIFvEz1BPIEagHnv41L3kf5KBvx5R9qB9sNV/q5mOUrG7j2cay4VrFMsd3mZrGJ58u4Wp+yT8iXajPbcKraKXLZH9iybj8G5JeDk8rb4nvxOcmjz1CHq2z0HzEb3Rm7/B3j6kOx28Ogc2xbM9YDTxLJTwZroCL+yu1jGjcmAQbAa5QMKGIrFwezVeTARIdxagzJd8jjAc5JyOfYlkZesRnxTmNrclcMC+bOecSOC3yORWtvkod2WFtT4cm6qm5oIoovVafVkffr+brooE1yvsiTBYz2S7HL+ue4xkWC55KuND/5quPLunNRYqzLGC608KPH2bbsFzdrWQbIRZsBX7KB9ZFNOj6Gs8wXu02Fje2sc7T9lZ+oL2NO58jWVkY9X+U2x1z9BQ+SeZfn5njZK+CKm8TY+ufu53l2zp74aT/H+Ix1+zazntqMAW/kh8oLN7i5L4te5bPFse4TJ0/FR+0z6sS8zP5U3rF/NIY/l7pa8iRz19YVlOnzUeZRAwF5Rhgz/+SXGVJtqZxfz0XrA9/5BZuSPNiHWskx5m21Bewsta7iZPmS9+t5Wy/M+SJPcoT2sQ6trLlpLZNaN7GeSo46OMk5HbMcq1fLm27d8f2vDT7Jy2O47spWbNc6Gf9r3m5qxvwrWAoCEZHB0aRcc56JiSSr40luTZh63ICs3hHDxsyMY2I4icOyE0lUInsE8+7+WfKs6YamzikcbEvapsXOLmJZdsYOsFYLI8fC6JIkbO1N8lZ919g2+rmhEBlWR97HWCe8OXmU/eSjGZ/iNsEHjrNscwzfsh4uzmJne17r7p+XYmdtZSysToO/FBC5AoV4iv0dLtH5BjMeW2wWuZkH1V4elxcWjIni38gGV7+Ne42ljQHZw4uoa5ur35PvxQh8dOWs4Qdz7+5V0+zik3BYi51nc9VRmzE65vmCudA/XzHE8VmPyjXOgSP4aOXpnCm+ebU2YcU1rfWlqUOb8r7IS7yv8WhqleJtxqqfi1mmypHGLztG10rLmcYerhdSkyxfBvFU/hD2ZvwWDLeup5JbFoPCATmP+8a+Zkw+r2Nia38eUzlf8hlqrsX92venmzEikHK8AEhJiURNSSqkwgB4n9cC6DU9WkbSZRYcDiDapILQJFKV2dru27fnO2PKtoaUdbFKfgHRmoRWCUlEteStfnKyYjyTPBM31KEXDL7arAWP/NAybLLkfYxLwht8UvvKH7I9x2IY3wbDMg/0aDvb86wr2+qd3+4bYpnxX4sPxmrlc4ORP1b7C2NoPuAy4mJz3tVvscn6VGwpB5FrWxaLwgPkkY4X+NdwwZxz7Ycx0/iQzzoXNFY+JjxG55bHt3zsmvio4plwzj5iXDTnGVcc1/racHXEDe8d4TSnrkuNHSruZM9aLiL2xYckX8cbdeh4st91i2MrB15BTli+IGZZjsVf7Sv/aHzBuayVGCPWT9skY+t6Kjnm4CTnqu9ZX+sP2uGtT/o8ybMYFT8f/Ttj3atDDxA6ponaAlmDQwTApkDGdnXWuTR288uGTiKxzkRGXCTcws/68Rauh0MZh/+ZsqKbbehtcwLXdwuahFYJuGIPFE7EPclTvpP9Wc6b50+b725r9HMyy+JubWBZT+QFS1VAyK7kQ72bh/YhLlw0ekUFx0ohErts09guCOx31j86jzj1fdN4WWyYUxu3Kuadud0x44sdjaMjvyO7iavJo/Z8Xgh68bZ2JCwhnv07hI7NuEB07M/6NuBDctAe1JE+exxi2+gc1ktvLPJldJ7kjnPtWD62MWx18nfJ6biu+5LswjqUauZKs+SuExkjrg/aV64zLBPt4ZjgVstK3HDrOPvf1kqXv2aN1Hham1h2v77sVTs3r6fCdQcnOYd4+vzUGFn/7fwqQ3OLx63fmdS6eM7lt+M7Y0Q8U2hq518Kg00e3O8GpCRFZ6z/SNQChg2Racx6eleSOyWEsqdPMBrLye4VvxTwVOyh0K7odgliinwqKiUW6wWmNBzmiq/e0WuTu5FX8MvH24a5Od4sbFZH4QpzKY0vjVc6RuMBKxs/U3Q1/pYXel/HNduV7rClWBe7QHfyDXiQ5pON8q/a1je7X64y2Ve+a2h1dOOj7Xe5QfgM+NTESDB1sFaPJ47UX2IrhTLZWWOb7eLFkHSRPbg/0q/HS3zEv9H8cr6L3xZ8iD9j2/1YePXlNvioc4pjiDWRjo18KedtnkDujTjODV+txW1eZOwr/2zz3vLx/aXWytbGnk1+jFsuNuOupnYesJ5Kzjk4yTmLAeWX5QqOGZ2nsXmM1BjRle1oj6P86/y82owxafjRkGwxWSThysLqneNjqfjVOx/qUYWAWYDmOeq4BRE7YE2kdgErZIHbsJLA2BiU8+Nv4M8FuIsR60mFZkX3mn+0QL6m/wRizHJB0TrvlztjPxMxFUyZyw1VJjHLJAwaecomGg+FrJzLc+6Xh5dsG8sv8QO9gjPGn//bTgpxi1G2seimZgyxmOJH4YvC53558RwfCRS9L+9TgVA6la/8wq3F79dgXi4wCvfXz5Y70id4VCzVuObrKCzX9b6dKxhjPnoYKSxq7PTLsVpXm0vtI42qv8zFWHf5w/rHzUxjA/ohHBrbzXK6+KFciRnZyTZanvLxCd0Kk+x7gxvH72r5qPlPvH6408e0TwYv4aQ5bv6bOb1sr/Dq4FweU+oaVsfq41trZWsjN385n6uezCu/VjLneHu9tXPLegp8V3EiXtcaxz7zVsejHducF75Ufc0YlaetTNZ97dvVZuzajQ/7KkFPhwUmaNXHBeVONW71/HZ7fD10BfTieb09v13uyKZScA9Y0Pe3ZWRrnH/8mAcfbzfGvRqm8/bx1E7t1+3G7Tr8iGZst2biOgK6d0LUR9Lav70LSrpT4TREc98npm3bhkEsftvwOgbrmDvGOvg4xug6edSrldafx1M7rzMOFu9b2Y9mLJoxeaFeSAu3nfUjh5x8uZjkxyxrt6RF3hTG+lEHP9bjR66urO4jJbbNPkawxaMsfHyb22kGXb1T/lhdM/vGHrYLtl489rPx1vVf2v6ZGK+NMfZfnI9rtsa5lHeDWmlz82pq58lqWPDCxnx2P5qxIGXbjAUmgUlwIDgQHAgOBAfOxoFoxoJsZyPb7BVCjIury+BAcCA4EBx4lzgQzVg0Y9GMBQeCA8GB4EBwIDhwQQ5EM3ZB8N+lrj98javc4EBwIDgQHAgO+Bw4uBk77j9C8sva+HJ2kud8p8jhgWt1HC7LB+9y8vKLvqd9mXvsc+ZA5yV5eLHV+z459T1PB76ovKqfm2x4yR/5pr8vqP+9ON0Yg9y3J7B/jI952Xvlu326PjBGV7/NuXww3xMXMcb714b969c4/84W18T1Tp6fjTuF7501AvOl5UmO99Q/BXX9WdfPscg1qf2uK7TvkHpR5eL3OW7hyJr9E/hgvaN/KFqteRPyGGfKzU5MCdPqN+av/p7DNt78Kwv8j1x9e3vyOZ68reNm8cevORl9B2qO40HNWDVMA8SGr29roHhxFHkrQVmXaUnZ6tg238qLfYtfLS5OkTaLXxoLsaV4c+zlZzxWk7vFf1V/SXQeI7qwAMiXePI3dm/hcuYXy016drR/Ch/8mS3261Fuay67RXfks1wUcHyrPI6f5fbW/f3rV8v3rTY9rvE1Zt7CrfMvj61coSaEY18X922xX9efseYxVRfHINkH9U/bOxFrVU+znv3sn8Nn/iuGyL6KQc6Nus+YKMwAm3p+gKfU2zyuxjvjOba3L7/aUGJzCP7qF02wMevH+6BmjIxdB7mvEIOAhEry3KCMZPXOZ7BRRwPyqJBfzfm5YJ7dP/eKOV+BadwxFu2XuB7MJVd/5kMqeFAUEJuWa2Sf01R24p/mSzEgfdvmiy2u/TP4zF1piZ6OH7dzPvPHFtxp+1Ux5XjNXuH26os+3nJKn5+29QpiNft9Wef2ycU45ZBZ7DHezQ+JlztEKn/nYuXqT/HK/Hzrysz6FHfJvum1zqmnm+ZX31z7Z/BRjUWV58b/yZPlA8Xhfm2khkn/GgrLXsFzFG/SPbR3Rb6ynew5EH+8WB7ak/2OZqwBnwlxPdvNV1Ln8qnTTNDvjulmbFAAsXhusd3Vz3e6rA01nqkoYfNFcjYWR1VcS8LqY1WfW7TIz579FgOLT9ovt+DdBWBCt9Vx1fu5eG7Gl32y+HV/1+5w3NyFjvXf0naWkxfwycW4iS3nVT//D62nrv73+JGZaQgFn1L7oL6QnGkue/Hwjom+Pod79tv6ZPHJF7a53ui63tclMslWr0aVZsWzKevr4DkR75G9q/Itjh7W3jEz75AfXB82Ywms8owYr5jycQKsdJnOc2SZS+eAjN6PfGJQEMy3HMgEABGi3MHgoMhx+1w425XJU23kJBAdLJ/ARFlkc/mzc2h/fBuUiFoSEbARTACPZIv5bTZrN9uCx2ti1MVK5Cuc/ESqY218JpJM8LJ3lKotkpCMA2IN5E12dM5VGY5NnaRIePJvX5YYVqwwLjnh536UnvUjr/hY+8Pgq3az7x377dw+PszrTuFiPbJgVE5nPpV5lvfMzZRjkHOQ64in4pHkDfBC5JCsNVvZH5qLd4Mrp6oukJ/85LkO17lWCB55bPJB+V5l6vqQ8zjnPWNYx1K8kl0Ft2qjxVfPER2CGeAjduXfU3yY+UkwwZn1VEwkXsK5eo5rc7W7+Kh4AHFLekgH1LcytvoE40fxkbjUfLI5YDGW82ILzC3Yic9KfrbZPwcy1Jx8HGMs+ktOvHn+DH6j1vjOsUw17unywLg6OqrcYkvDXToO/J2RUcb49lufV/Bhfs3WavLb9bXmdmtT9q2L55Z4u/YO5Fs8N+Jf+c91om65j2hiXHSuN2MIpgGhJm4hnnMelScjJYgtmZqgOCBwA1R1QxORxuMvwVsdHIT6O4eeTWJzkSdJS/vF/qzfJJwNouyXgiW+Y+GGYga/Yp8DygXVzs9+0GKabav7dCzbD3LRZkgM8kF85cUabOwRRh1PRYbtrEmt7a/FA/VVOWRrK6Oer3KbY67+ggfJvMtzmS8SyxSbips+vqIP5tk5mksjGeW8a7+dO8ZnpFvztXBDuJD3JTbJJuYW32XE+GTcxP+UJ/V8jj3kBuQNxS/ZIrq1rzQ3yy02Ch9rrBS/1XnQaXFNNsL5ZjEzGFCc5dFC1V1zrtgHjaX1S2POF3oVJ32+yBNcaJ/HZv0SH6krGjvJDRMPtXCnc7w4FDxKvN8ylna+zCnjZZ/kFBtZhtQkiyf5APjb+Ix8KuctxtnnEh/BzuMsYEW6ceyk7i53Cx4kM/9Ob8uNZKfgBjjM6E7z7Jzss+TgjJxB7gl/hvjM6c78NlwrdvI67mI6xHNjvG2uD+UDV8jeg/CvzWa6IfPymXl0a3QUXMbNmCSYFqCLiS02BTB1xUeBYVK1AW0TzUloLhhMLJGXbUsLgSSa1ZH3saipRawpEGZ8CgoXSI2FENlNipKc1naxsz3PBdRfeEj3Rt8avPL8fHeEEwbjM+lfgxnP44KEsnmh5TFle3evmsJ1LM1cV7/FhuYUf00MqJjl5qFjmxtPT74XQ2OrJ8u138ybwSfJ4dwy851Gu8ldtq0Uqtp0cDFC3mv/m7xVeeLzQBZx1lu2On/Rj6yzl7vZH821emHCPiA+2ofEOVN08SkA8wf18110XhAtDg3GJtaq9jT5eSCfCEeFP2FofG3Om/d/nfPNgtSMMTrMnfBhfAwPejXAYizjErY2/hjvyqVtd8HrPNLl6k9YGF3pGNYUiieNyTjVdVDLF38QD09+8Ze5585DGeWza78ZN4NPkgO1dE1/Gis3CXKfwBfJLqaevxbPDfEWHWzvjHzExBs/wl8u5Er+sW6U63xeb8a4kHNTBUIzyEDCZCAXbSIdf/YIZ5PXJzrq0MXRFJDiWBovTY7VkfexoNqCqPaVP+SDXlhQzhoZZZ7FTuz0Cm8+lnV457f7hljmAr0WHy9mzrEGI2dMr4hRzGg+4LKOoyPb1W+xyfNUbCnBBH9vAXN0SfJgbHicd4zPrWxd+2H8ND7kM+Si2FpkGT0KC44D5XiKhcEvFSPkijlvFnudgxmX6UUj2cmLaqsTcw59SDrXeNQUVOsD4ZSPZR14ZWvPcXy0DO23U59MDHIzV31Ef1IeJJsZi5XY2liP4tWcZ/4XHaPzpK8Zo7GwNW8YH+tDZ99i7NeLfi7S/GkuOja4+hMWNj4aD4ptw12sP44u8c3yhsZ6x9ZklHOu/TBvGh/yeS3fQCZzgf1PPOd+wmxTbCbwFGySnn68ZRzau1W+h7V3rPi85h9jIHYpnN5fhs0YT0yBlII9KjaajCyjbtvzPlHyuDfPny4vzK2+bI9OAl3QrA6W1XtMySTnAohXNlyA85YBH4Gb/c1kQfJqX9vzvDDkwjE67y8WGgsbL4uN9q/GaXB8hZQioztm47sThrhJfke29d0tCKaY0JzZQp3ih/M7dggGnu10bHXeBnxIDtrj6GPOpruhaiGwXDD7qXjVpkFzM/Mj5yLnDebkRKF0bGUd9Q7aeu7qfHI42xRg42OxIftxv9zhf0Klc61+Gztrg8hi/5xY92MCPqR5hC3iCudZPm9H8WrOl9rAnHDO73JnjOWznQdsLcZefnXHzNxhHtjky3a4pGLtnE+N/2Q8y00ArE2+HSucKH6tztuAD8lBe7w44LG12tra5OCl8NR+tvP1ebJD27tNPq8d6O9I5yEv75Od680YgQBFPhlR9tNnLBAGsHwei/j7y91zfnaaAcFmppGHBHIelebxsIAa/VzQqw7T1KTxZQFJPpFNKwliyEoEq7JbAlgy1jsx2fe6KBa7QHfyDYpXKtpk45Nn5T0oi5/db18ot/jm/V581v0R37zCDQWtiZGcc7BWt3aP1F9iKwmU7KyxbX0nezQW4qPYjDbp8RIfdyzOM5+7+G3Bh/izbjv52+cq6QIuJ5tsXtV9jqk8yqTxUCMa3Ky8VBz5/RqNh35EghgbG/mOvejN55Udkiv9OzktJkUO5F72pz1uY55xqRyzd4/S+HQnIMeKxrf6GQ+KKchKfIb9NZ4Z7me7cp1L+VDiUXVn3yRX0vxso9TrNAc4ZvfN3VFewGo8BvFZ8wfOJQyb2CBmnaaV7BWu5PH2SUvDW9DL53r6M8Y1Ppobpb6j3WQP7ju6WGfaqvEmXqO5cL5nf+LqLD7Ejy22D8Yn7Iy8dTwn4g0+p4umg+SznlI/RMYIf/21Q6oxQ7ucz8Nm7OH1K/mvQr46y2CVRoaaiFIAUoMBjVMKPtyKzAlfErMcp6LQyFOG0vhKdCYpB+zhJdtRFwxuxNgeKTypiJTx/N92QkJuiqq8PL/opmYMsZDgQNCU3XBc4WO/W6XofXnf/W8cwSfptPj9GszLi6rCnV4sfd7GkHBU4yBujPHa1s4VjPFxroeRwgKxhmLfwxGO9/UX3DHWXf6w/m26Ey7oh3AIYg62ejh27Ue5kDv1LpHl6YTtCgv2uTZgyhbgIccUz/N/OenFu8rknHsLmAh/Ied9TF4tb15XWVm/5Tv9J3MdI4uaxY25p3wnrFp5aAvZyn7X43nOm5f3yxuOCcvnx/B8XLim4/Tw/NnyBht+ZVf1J+umgv6q6joiN5t4Jb2vloeXtSZofys+2LzluL5aXvz6PawHHp5PlxcQQ+FBLz6DPMkxqDaJHU9KroFc7Uc+b7kn/IT41Tj38ndFf7FfcRK4n2VrLghnp3xv/ZDcm57ft3+ID+CbsBvhZnk9GJ/0O2O6eII9XrzzHeuaTz2su/J5/TI2IU7r+OMrDroxG/FsvRmbDnaPxHscR+eqvAxO26SNHO6f9/VQY/di5t/KD8aKm7Gn8SOtB2NYedGP77s7pncXYMtVWxfX5pFewbn5MsnbwN/HKi9mbvE/kLO+Hnqk4t817OK/VX9pxl5wM7N1foyPOh0cOAkHrr4Z6xcturLbrxlLnXJzRUN3j/bT4RfUaMZ8XG5j8b5629OVpHP37JDHwk0Rzk1Ke6XYu7C59pj27N65GTtpTAYYRzN2koX06utAk7sDnsT4s/PkOpsxuNXpXY3iLcP9GjJ7Kzff6mwXGiAx3DKV29/yuILmO4ugIrm5fe00g+dNcmOP8iXj4cVjPxtvXf+l7QduAs90vpRb+OY2/MExhFytOXDqCxjfz8N8wJh5duu6sBf/D4mJerTi5ObbUf1QsRrVpj0x7sg6un525AL3Vzlx6/ovbf8szjFuqrG7zmYsgjcVvNVCExgGhsGB4EBwIDgQHLgJDkQzFkS9CaJG43nkXYDgefA8OBAcCA5cLQeiGQtyXi05owGLBiw4EBwIDgQH3gUORDMWzVg0Y8GB4EBwIDgQHAgOXJADK80YvthqXt52Xhx8uMfvnykvCauXTPPLse2Lq96LpK1ueTl49JJqB8ys13tBd+aqo/2vsSRvr5egk82tjnfhaiB8nOHf5JiUl14+Tc7v5M4wRuXFcPefXVStaPNP1YND82lNv/hUX8RXL+Er+w7BrsrtfafRMfjN4KNf7B/4oF7ip3iY70JK5wcyBFPLq1y3Fb5JXhv3ISZdHVZn7F8NlueKNXL40JpxhfxaacYKyVeSMxUBBYaTjMXp9tu165dOdslkg8tB2NiQ1YJ2SFGoxZYXG5GnfD+mKLQ6uphcIYnC1mNif9tzJRe8LyY1zWEeCzmoftWi5MDGnFrVX3KFx6gmgc6VRozzOu9vaUR0vUt69rR/Bp8tX1Fi/S3fnC9NJNfX4X+Be5ytF9CCs8iDmEf9irtPx3CAOMw51vDZ4+XtHJtsxvxk2tKM6QU7F14pgr3g2GZMvjV+S8HMwWgWgp5O93hr7yGFV2NgSdLqWB9v58f+O4fXloXY5fVenPG5S/VBFuakH5uXJ8uL5+aLjlO+b89t/sUNr57kvO/IbOpLts+T43KL5vPCAP5Nz5eYePjN4bPlexD9mhV3xtzYSmz2ypHHJ2cL9/bCOHF4482YvXSfWs5ZmjH5jTMhuFd8HLI2xZJ/8Bp/+siZJ3rquVyU/aZyDHJrr1/Yqr6xTDu21bFdhpUZ+48XQ2xsLh1nj7u+fe0FHNiernQ7jZOT0zW2nv5650s3hKAv1ResJSRnvkYkX8zC4B2rdoJu5U/HfjWG/QF8yp2BqZ+pIVmNv449aQzosDas7jsxd2r4GA/HrlW9Mf7smF4orofl123w4wzNmLnySkk1WXycgKdgrNxGz03XN9IPw+K399dmLOtOBcwUUplL77qpK97WXmzGsk3lPTmWKYWyFDb2RY5nG2sSoY5qIy8kooPlE44oC97Ps3Nof8tVDBMe8dBX+7noynt8soDh8ey32A0/Ri3H2JeEDb9nCIthOv5qefG8vI+oYrKWYGiHxdmcE9tJXjlHdoFN6Ltg8vLpwvySYyxL4lIXtTyGfKuxfZv8B3uUf/l4jh1jU+SJfHOcOYYLF/hB8WJuJN4xvk96NqxhjOeQu3wcsAR7UuyVnzze/iAvHIf5NV/wvKefL9zKb8GW/FD+mzvtFCOMta+L9db44LgU555/XT98+1Fu+kzxcmVz/CrfmrlJN48j3kCeoV0znFCcQjkOJmlsHpNzoHBW/Kj54GKfuE5+1XENBsoe4Dgep1xTeVPslmOMHWIEsqQ2PJPf3nTtJSxRr12r1DmUz/PIDrBBcCLeMQYFj1Q/+FiV1dTXMo+4X2NQ/AV7lD/puPnd6aSv/U3jt+W4x/2qL8cddeRzFIfqA8tq+QtjeK0jvclOb40w4x0cN+GBOXKiz5PNGBd9Z6ucBBIxYLRVYyqpMDAt+ExOSHYmTiOvFEhKLD7HQSq/wVZJUeQ557FQJ0IXknESoL1JHuuSBARbU6HP+1U3YFF8qTozeaqOvF/PlyQwNsn5Ik/m0z4mSa/4KmLp+LHsnNy6WPE5aWBAvsbOiSP+3ifYSRwQXIs/XtPsckX8yD6IfQoXc44LbLJd+87YJV84zkN+QfxTkc+YqfgzTuIf44rx14WGHz0kAAAgAElEQVQkx5TtYx2GHyKPzzu4lzEJGxlPOV1sKAuTcEgw5Qakt0Xb6xj2u8orPgiH61iKKWFdx+pz6zH39Bddr18tD/zbsui/+Ma41sVsXRfblecJz4o84a/I5/FrW8/+dvwIn1ndidNcn5nbbK/wosMJOg/x0zodTJI84CTkBePMFzW8L1uxhThaZBSOig1WfpkjcWn0tTbW3wOlc5yPhD/HJc/JF594vo1Rbg7Y3zKPMV6zVfnqY1/jX+RKHLKd4jNfZKTz+RxfOOcx4E+RgXFMny0/DK55DPvJFz6wvmEtx9wo75YqHRzbpGMd38Rd9hsx42NJF8eN41MwSHHYjofwkXPkRNvJZqyCjoYlYJhoycAcZCRFIrQagyRnsDpbBNuSwwNkZTGx5NEv6+oAMXGlAEhSVjuTPOWX9V3/zl2jnxNGZPgEQiwVEZsik+fL+AliYyzrZ5voNV5JdpJr+GBxt2NKHGWhlR+RhqLA8U3bkpCH+EBzBNMar+SftYs4pGxvfVdxVmO17Ca+Jj6j81z4JX5wNSuxUfpNvMkX5Z/lY7ZX5WyDr+Wg9lHsaHKvPy/pU7HtND3kmyqos7ppnKff87/EF/lRXpLP8enY1vhLOj355YIJ5btzrW+e/WbMFD4kZ30xqzEsWKTYQD6vcgLn4IU563QwUZzMPqk6Rji+fLZ80MOpsYcXfrLZ0dfUVTum+CAxgnfzki70q3xOvCzzVjmax0idUz5ZOwALtqXxVfNC5a6SncfV2jG4cGeMwBdbn+w+8Qb1e+fTMfZlJSffFr2NDFMzK1drLmjucM1j/uVx2o4yV2E7wgs5VnV79ux57AzN2PvLnu+MjZxPweLiv0K2thnTAdV6dFLQOS/gSC57tYfnWLaWYXWMCaOI2RC5FI+CBSYq6/e3XtGphcTzgxfDqgN9ycX27vkraZIqH7Jcv3j5iebbXBNGY1qP07yx7a3vVt5h/HJ0N/Gy8bb75Avi6pxPBYcXVue8xUAVKCtfY7eOO9q1Mk/Zh+OeLg9SxPH47GdPf+Us2q7imWLAeNnGfKxb5V9ZHL1jqN//7NmP+mfxIZ9X6phcBIHsFBNoQlc5MchXrznyYo467u7X74biWG5AROYEx5nzzK+kD/B+8mx5cVfwILk8jnXJtq0NbSxBrsxjrCdsbXw18hJfuVnEOLeyNQ9H59v65NVKzJ3ReX2RyxgMGrqmJtZ5jLX2y18j0hgbx4JdXmu248H6T7k9SzOWHcArIEMyJC4mpyRdG5QRKJks9X2hhjwq8Cv2JNva80jMagsH+Wlztdfo5ysNaRitDpb1RP4VuiGiSs7+I540z74vhJirz17RAdtSTKwuOF9kia1c7ATvp8sLfmzkFW+0pSlOEzxY48zQ9tZ3P85cvGb5xePtwr9WUNv4txcQsIgSbsr34ospSsqfBt82jpXba9jPzOuNITsBF4z/9GdftvK1yBJe2kW6nKc59aJizeeCt8LXt2OM4dq8LfgMmjb1VRnsW+aJ+LzKCTO2iY9zXnFS63z78un4XdbGnpJLCfeszzZQTdyl9tQbA8yD+ojS5g/bytuiS+o1H8et479gNGFr42uPF/m4vF7g3EVn/zL38niJcbP2tPUpYciPD3u5Y85r3IuNBi+0q9EBcerlDM5PYxrM2BesrXyhxce249GzZ8/jk80YO4HE011uNqpPRgKxkqEFI81PwYDC7AC96jzNh+CnYJf9UeDzee1nvYPT2tvIg2JOjznt3Z48Ho43xLM6TPKn8XjbnMYDVpL0JUam8Gr8dRw1pkUvyE62y6IzOl/102Peh+f8CKJw4/X98qK8x5f0phgDLmmRfLbckT9b458wyDi+BR5QE5PfGxrZXs7DXOX7Cr+sralopLuSmVM5/hCvYfyLH4K7ffRQ8KTGlu94WLwKtjbvhJt2vLrztsYRc65wU+Q6XKScqHbwfPJB51y6+wf4a27yPLPt6jc5ZTEv+FS7M6Z13+ixfpWLCR6vuNKMXZHVtX8bPsQ5tsXFreGDk2MjTjSY0eJX8rXgoXKvkVdw8GzxMGvG5ZiKn6PzSWbJlZf3+i7YR9R449er5HG6ueOLx3JuwM2c55rT8s9TI1vTeZyrfW2/q5PHGtsKn9LrNslekwfTzRjwyc0dqmf1Ma+tcXm/L8OO1xebfr6kugo10dbdzPvsL8YxzZPYbcfDzSePr0ccW2nGSoD5kR8WUwx2OT/+Bv5MHA5QfS+Lb7tio7Gie81ZWnRfv1qq7Lz4aZ3mP0SgcaoLaLYlJ3wJLDzua+Qpm2g8LLrlHBPv4WX1VwpKWQTZblm0SvKm46+fLS9orhCqxSjPL7qpGUMskMDKXkt6Tuz75UFib/0xul3ZLeETBs5YjWdZtNH36fdg2Bcds/ruH53v2W6Op/+WNFzq8Csnqp5PTeibYrf2z+OftjfHv+D38n55w3Ew2AlfiRM9vNRxKIzqOOWmZwPj2d9q35CfpXlMtlv+kDytj7lP25oXfb1cHNf0pzGqVvHiBXIVDtt0ZxvADxMftnFt27cf5HL8y5bxkfib4119pWnXOgEThUWfE3o+N9ma/2/XOJnqD40H3b2alGx6tTy8rLko9ZHnKLv9GGabkYcZX8ayYmZxpzmOb6zb2fr4FM71bFXHfeypGXvzuq4fCgecr9YK7Q/NUbx5/WxJr5AIxzJGjJe/XvGdJrIlx1D7XHHWx2u89XGvJkKOJoy1H6lOqF/9qbJzLM14WTf18Vk8Kj+sXfvtrzRj+yk5hyPXo0O/uM92MbnTHR8ngXnc/NbXQ4tcfQx4SAxL4RHyHiIj5szHsYdVLhqq4O7Cm56+OH58zALDeQzxtZUV3FKTYRfalfGRI/Jay3wsWjz3X69aHcfY9xjnRjO2c/LaF/eZNHuTO13dOA2T3BI/2K9oxjhml91GM3ZZ/GPxOCn++G7wWq2KZmyX5mprLPder7bqfxfHRzO2Vghmz8EtYu9ORiY2316ut3CPI5y+3cqPedrb7rCoqEc2bA9uv7p85fdh32n2jrMZbJnFFscN7X8sV9A6th6nTh0H9ShDHmGcjxu3rv/S9p+aHwfJx/ydqS1QV/lx2EF6sYbE52Fzd5r16sja/w7ELZqxdyDIUcCiEAQHggPBgeBAcOB6ORDNWDRjwyulSODrTeCITcQmOBAcCA7cPgeiGYtmLJqx4EBwIDgQHAgOBAcuyIFoxi4IflzN3P7VTMQwYhgcCA4EB4IDx3JgohnT37GSXiZW/wlz5H/fpZc08aX2LO+kLy03Os9LJPUflwpLtEPjzi/oqy19r5F6yZVesMaX2PWL4G8/+gfLP4DvqVGy5IVaOwde2p79PqOmwc0yD45pE68sb/WfFRobENv2c3pp9YDviTo2AWN+G4ubxaTh6Xl8yy9cY96DXqwPDr/VPxpIDYD5E3m0qp/nw8v7Km/RPuf7GYdcALlvT2D/GB9bp3Et24bj0FfGMraP8g7esBlLZIQkzonHX6wHRDwkESQRmcBV3sEL94iojc7zJwx+/YRqzJTt1HAwLvxN2bBPRQjikosGnBdZGdO2AMJYxgRimOIM8qVQmG/2l+Oiz+JZm7uDYsq2CRZVnvKpq9/a0+4zp/Ebm8d+tXJiTmBybg7UZsFpxlLu1Dz3arnkEDc1UANmfFnVX3KSx4guztVkH9ht7B3r1xdlSc+O9lNdEJt7+HQvpiMXxvELjBCjQTOmyS4TFQFLA7UxCVCW9w3pBy3cnOSj7eak35M0+ssOsTETTJL95stbHZvrzzWRfaVJMQ0UFZQGS09W+mWAWhi7zdgIW/d8tq2xwx3rYN3Y2+HlrDxn3L7+Oj44OnW8Y86t4dHP3TPHMjUKNXczjs5FmPq5K1Nf+Lc65aJngw+u/jw/N2K1IcQYtzlHeW396NuR5qt1Z9t8scW1fwYfXctFXuT6o7xzder4Dpqx0miZBV4bFc2YxqNfPPI4TPL6u15DGU1D4uhJY/iuZfnJCi92jqxU2OCnaNpCSXfnnunflZwuOtGMDeM7jaUT95h7/uLv5NDFYtxpJujnzOTOTuLIoFYf6pOrn+/mWxsqf3PNgeaL5Hj1yuV39kVf4HnHqr5ufHr2W70Wn7RfXuNQTeGETis79s+fw1eG+aAZqwlF7xdp4jPhIMGBnG4RKO8cKTmW4OV3wPKYvIjzu00skxuH3mMlvl0t42xRAp11TLl6S4lp373C39nDd6jsnPwbW/lHqRmfshW5OJ8/+1eOqniAzeq4IRReidJnxkzNcWTlebUwJlxMYew/UmVfOV4kB3+uqTZjFe+qK9vGczMmyu7G3jw2jVG4VpnZH/6txFqk5bi5Akd/q402vlU+2VxlcRxpa+escMLELuEgCwPgYeKgf4cS8jLhVGyhxUFhY+1iX0r+OrmZcbhfXjwvvws4u+CgHQbnru2ERZpHdoFNynfGhMYwv/hYxUHiIvbmMVRTamyL/2CryznEsMgT+fxluOU4cojzreprec343vFdbZInNnNOTWyFMzi2+sy2yO+ydnQkezrnqgzUUT67+kt+8O8kFqwUxvKbj5mb+oewHT0qX7J/Wl7RudWHjv3W5z4+zMGSY8pO7UfDnYSLzc2Sw4X7mSdebeEczjpWZcudTy3b+hj7Ol7nxGPcjBGxsCDZxkYSqhaSRAopolRYkTQmiVIxRBLXhZOBSPJUgnEhtsBBEYfmMZMUbDA6M9nBBpOc+nzR4frnFUBto2po1ONePY59l62xWY7bxC+xSj8SrjAD+VZW2v/Ggs1tLQAleVPRAAyt3tKc5OJYMBL9XKx4wfTO9/HPizScV49byK8sTzX59KPez5/Ux7dqMSj6uXHiQiUxfb8s2qDzhJyQWHIcvALNWHZiJ74bOz1sPnj+bMm/kUo4YExrbmL8RbYTc7Gdzyn7Cs6MqzrHzVfhhPK92FS4zAsu5fEav9DOWjMq9+oFJce/1qzkb7ETfZecKPaxjjym8kPmsK9dTmUfZDzGOunAeEDOMr7etol5ntfUvZI37IOOneXCpG6yx9VfcCd+3WVZ7DPHM+uv8dHHR/orV9GPGvfRfDjv2g/nE+ZjfEa6NWdMbtgaZriv57aY6/NWdq5nGPeRrYhpfLZcOM3+XDPGBQAKZg1sCTwvFrYIwRy+w5W2PD6dr0XNWzyaZF9tYlp7+H0qsdno1ERuiW6Jq8d7+vrBwvdMVGPGGPe2xua1BNH2ObZ4MYFFhGQnGebY6Mo14WTmZDtz4RT8+a5S4UC2F5u+/FnGN747hdiM0di2+vkCgxcA62+DoSnYe3JCxTL5oRfkakvmmuBSuKJxt2MKPyUu8Gjc4wE1ByoumJsOlxRfsy7GVPllFxvP9sZ3HWftJ9rSxlfHZ3S+bb4r5lUP6vfOp2OCs7Y9Y1Fi0cPXcEzjV+1ojnfnFX3lQoTrrxufzf+YA/a4+j3/8zHmF/lBmJE9CdvmQh90KJ7RcU++xrfBqZFR5Lv2G90z+CQ5/XzRnGw5J/ZCXnKsGr4Zm9dlF9wND+Qufg+XOH7WR6eDZgwKtwSGE5xJ1yaAKkpELClQhuAkMxGPZdH5LE8vOKhj9NIkjmV9RqbROSK6bQYt8fWjF/SF9XOD1zYcuUB25gjmHk4gG8dxIwV3fSTJeZzxvznPMmzcRu+MpQLBPmJDkYsBxhQxTPhzc8424rax1yvEqMPeOcVzjJuWoTjL/iOGpvjtwgn0kT8nXxE7jL3nR1vUlS/pwgV8ffJM7lQk3toYsx0eBnDO44y/QGq8kQMkQ+Ve4zvYTboP5BfbhbqRf40d1q7iN+Kq7HbOs628mDJeSW/BvJFhOTbEu2A7OQ/tZ3vSluav5d/IDle/iV2RoXCneCP/mvgzd7ytqelJvnfMm2uOufbDmGl8yOeVWm70KCzI/nSeL4Y0fkOurMomWaamjGIa58/aiFEejpux1w65UtLw8bb5UUmvxgLBOdjN+U5CcaLe8eMnR1aS2drDxVgKo9E5JDrfyeErCywg7AdtOZm6CXngy/sk29isiina0FlI1PgJWSqGjfz7wYv8uZDU7zzL+73FcE1XsruxVxcq9k3i2Nw5bfXnWNUCZW0QWey7KXakMxXTozlheJx8rXaRnmpb4bbhXz1fZIGt/B+3XPjrI8oxpxoMGIvutpO7afyE7Y3vfpw5n2f5xeN7/BOMIW893xlDb7wck9hk29+aJmdVBsSN5E3/zczrjnm6PIjNG3SifR3Z6Gv2RfOjPZ9zSuo06nA+pxghvh07hjiuztuAD8lBexybk89uzbBc1/sNHx2b52UfGGfHnyG2MWc6jyeaMbrTwY0XBbEUVSGd3cfFA8arhIempCnArTxMZG2LR6oyH2xOREb9VqfZr6TOiyLNx0KuCUj6AJ+UJLCPZFRNAmCAY3qfjY3aBo1Dk7hW5oSsBjOWQXMRSz6emhNsIqiY8H4uLIihLsT5/FvhVG5s+V2T3IiyLPK1lZfxKHIa+9rjWr+5Q0M+GYxOxgnAL/mQ9PK7ddVXWaBG55O8nANvXt7ru2AfEY+fQnEouaLwqrwc8sjazo2jxD3zUh7Nj2w3mHOc2Xf9mJxiypwofjB/Ug6WO7TpWMuXUfyz7/yOGl9osT7mB+V5fXpg8RrJsOPtBcJajqtzDW5ePQBfJG6Ei6lV8q6llqH0yfwypqe/xIHjZy8os/+Aacpr3B/ZgBw48OV98qVnf7JnFh/i4Lrt5C/WQI2p4WiyCWJmbNxWj7i+afv4Qk3bMcI8zp8Kr3Ezlop3Jgq/c/CWix43Ztzpv3xaHjvwoyomspnPBaAQLsslopSiCvKU4zRedPdIwYX5fqF/7W4eAzY6SY7W+/D82fJGCj0nK8uq25xY9Nj01fJGdEECmaKl3mNSjVnPl9Y28meU0BKnZqz205dlY1X9Zbk9/bRYvoFv+M/jtDw6VgsJ/NMALqCEJTcITbxaecgRv+DlOdScSJxYvjQQ7CdzVmN1Kk6g7elz8vfV8vCy/AdjE8OWj7LYAd8IB33hkjFox2o8eU6ebzFZ42k9p+cavqp4Qq6o41QLtF2ZNx6/il6cz//BB40Yctfy747/WzTlcI4/4/eQvn8v46CwE77mBU77zBziRZBxrIthM17kObogrpYvyhfFFeAvcF3mG32MT73bWOMpcxw7+vqduHDdBzkah4rPmk51Dv0Yrg2tT137US7U9ooP4JvOT9iOHAWZXE+VLS/r+pXPa33b6lH2W8nf9H5ei5uKAcQzjh+O1aAZO1zwSYIy1cAU0h6QmD2bVRMFxFOPfOB4T04cPz2f/FiVZiz9d+U+Nvh6aPHl/1Q8UE8q2BOFPfgGd/gOxHoFQ27G8n+d7i8/asG7h+nJaka6oPRfHTm6Hq3kSHB4Xw7fUDM2enGfgdm5GUtXSM7ieMjt/CD2SRfQ9FjLbcJ3bsZOyYloxk7MEa4T69toxtbxiYV4Iz6nrBmnlB1r1tnq0dU3Y/XWqtMQNUTRt3LfugvzxiRqHmOVRw7erf/Gnu26oshtxQxjXh8PVRzbx1313FZddbx+vDLHicplfmxltl+pjybr45Cqcw+7j5ExtH+nfDvGxj3m6th6nDp1TJDThiPl8RY/2trD31bGreu/tP0+PzSv5mpGG5vzy561Icb5sZnF5eqbsVlHYtxxRAj8Ar/gQHAgOBAcCA5chgPRjMXdrLPdho0kv0ySB+6Be3AgOBAcuG4ORDMWzVg0Y8GB4EBwIDgQHAgOXJAD0YxdEPy4UrnuK5WIT8QnOBAcCA4EB87BgYObsfwy4qEvt+aXqvF7e5K8XV+Kb3WcA9DQ8ZgSN78IfNqXpR28yvcRYX4Ir9J/TvFL3W3+qZeED82nNf1y8VL/MULho+yb+acb63+VK981Jzrt2M7+iv0z+Oh/VBj7MDc+c8mNKfg3Y59wAebFsQ4XAqO423UjHDioGasFo10MxkWhFlsuTCLv0MWjAbvVMbYrkjkwujwHJBe8L2U0/8Kex0IOqh8zLjmwMadW9Zc84zGqCaNzpRHjvN7+jfK6+U169rR/Bp+tX1kzOZ4xE2yampW/ILZimuNX9y/PzagPEYPgwOk4cFAzRgHJxQUWAqe49AOXCw0WpkMKb18+AdbqWB9/OpBD741gO7mwnj6ePnfpDoxenLF5qT/LI/Yd/J1lvn6Sm/O+c7co6cOaMHc3SNmrmq+N86UGefbP4SM/3SSy1rk7NT7x6ln6RRCseeJ30fXBkyfqLkbC+pF8XYj1NfbXeRX4vHv4RDM2WXQjOR57cmBjc2lfO83Ea9uMld/jUw0M2G7upM1z2NNf73zphhD0NY8HSQ42ZzDWybv0uM80H96xsR8d+61Oi0+5s5d+GqiHKcqYGs9fVj1pE8jXv8W5jt0Yk5gfGAUHrpkDw2YsXwl/I/0mJP6cQz5OhTYXmVTATCGVufRFhaq4tYUpjS1j1DsYLFMKX7kq56twOZ5trGCjjmojLySig+VTEURZK78dRjKmrohLYeUFBfHQV8i5Eai/D8cLGB7Pfovd8Dt0cox9KYtilsey+DcNXy0vnt/n3+xUMVlLVLTD4mzOqcW3nCO7wCb0XTBJv2uaf9JDjrEsiUu9I5PHePwDe5R/+XiOHb9zVeSJfHPcu7sKfhC+zKfEu3SOZPZsWMMYzyF3+ThgqRZsm1s8vsRbYQDnQEbNGT7v6ee7YvfLC/gtR+V/+rF4wjDjSjHCWLd6WB9ta3xwXIrzZh98+1Fu+kzxcmVz/CrfmrkKv/74WjMnbYKaMY8d4hif12MV+AQ+18mB9WaMFikuVrLQZEeaBdM5j4WaG5JMhLYwNUU3yYNGIhX6vF91w0KUxuPiaHXk/ZFNcr7Ik4JI+6XZyfq1bT7BuUjnRZ5l5+aJC71dhHhOla+x46aqnqdHsi/4dxfBTrJJcC3+eE2zbzsT1tincDHn5AfXyTb2ozQ4BbvkC3NqyC/wMTVMdZFvGlfxj3HF+OfPPCfHlO1jHZYfdY7iADeItGgWnSmuor82I9zcy3y1gDO+3hZtr+eZ91Ve8YGbcCOfsK5jq5z1eNM4T3/R9frV8oBcsw0pxJ35PtZHOrN8O0f4a3xbl+nZ3/o/wmer7ma8euw9ZxNjz1y1eKz73foY4wOT4MBtcGDcjHkvEvMijwsTLJa2oHBheSvj28LUFLKmOD9dHmDRSeNFXgZbLfTNgpJ1YnFL41mmsp/kmfFpseWFfktwvQUTZCe53BAUuckWWEjtmLLwy0J792x58YTmFl1wVy9jX+w+xAeaw82TXRCtXXRe2d76ruKsxmpMm/ia+IzON/Gz8WxshZiIn/lYxtlvFhTnGnxxvvZvvUD25yV9Jr7IaZFLeDG3xZ9ZGzz9nv8lvsiP8pJ8jg9eHI10e/IHj2G7fnn2G/1T+JCcLTmvx989f7Z8IDZO2CRjydY8vtZMY78aG+eE94GLeu8wcLmd3FhvxuSxg767QQFeXwx1UWoJ0RamJA+LutFRb/dncBv9PF5kWB15Hxcu1Yyxr7yAmcXfNjoop/UPCVAWLJabikVdeDw/uBBXHehLfgfljh4VFV9r0c9ypUmzhalpFtBO/7MXF/Z3bHvru5WnmgvAqJFt4jE638OwYkr+Iq4tP8bnTR40+KJ8H1/GUm8n53nNcIr50+VB8mCLXh7r6a+cRVtVPFOM4MIi7cNFheWj2bf5SHq8Y6jf/+zZz77RdhYf8nlLMwbji+/1QrTU0OaVDbTLfO7G14wzOPqYxJzAJThwzRwYNmNsfF786vtC64vhRDE0d9xUUZfikuW8ef50efESrzLNIljG68JtbWBZ9T+W9Ph6V4cLaK+pSfOaxzM9orcNiVrkU8G1C5a1HRalJ8+WF3dsKy0U8IiyuZtobGqaBXNecIfjawvC0PbWdz/OHM9ZfvF4u/DjwmnjbfcRQ/LXOa+ateKLaXKUPw2+bRw5n9a3M/N6Y8hOwMWL6fCYL1v56uScd56O6QYYuGXtIPwUvr4d69jVWPr5uwWf2aaNfVobf4Av1NApPFhPbMccCIwCo9viwHozRsXA3q0o+6nw4mPCdCVYF8N8vu4TMeodnFyYsEg38kqhzsdts8KLMRw3+tvF1TQGaTze8SObVhYx9R1FuTlC+/vEL3pBdvJJiuzofCFUaYoe5NFHnvfmdX7pXfQ7DdIHz58td4Rn0yzMkDXH6i3wgB5F5veGRraX8zBX+b7CL2srN8D4crh6hDOMf/FDcIcGN3Gt4EnvQ8ljX8PTgm2Nez4vi36Drzlvm4/efuGmyLXjGjs4juSDzrmUB4C/8MTKxP2ufoOHxbzYVe3OmNZ9trO31eMVV9C+0eeu/dvwIc7N25751B+/nQtb9U/FdoRdnI/HfMGBi3Bg2Iw9vH6V//MuvaeSm5VUJOW9lfvlrhQ/e0epLqC56cmFKhclHksLWyNPkYHGt01SnnO/PLyst/9rIWx1pEJVFouk+/Wz5QXNlYUqLwRsV90W3dSMIRawqK8XwSL35X36nqEs1/pjdLuys0+1ESgNqTNW41ne20HfN70HQwunxlM1QfY9NbHH+JT+W9JwiZo6xFTFWc+nJvQN/Jeeik/DP21vxqzg9/J+ecPcFVtzcyB8TZzwZHBD63CuwbczX3G7bUps7Co/S/MIeah5p/VVfLY1FGv6kz6FtW38VvAZ+F19AT9MfOqYFjc+17cf5HL8y5brhsTfHGfZdrttfNbPupIs1bxqvlP81Nhp/PrYWPtjP7AKDlwPB9absasoAPrFfSZPLrq2qTkGWF8PNSLyn4oH4VGKrDR9x9gYczn+27d5McRmdruMwD8wCw4EB4IDwYH9OXD1zZh9cZ9JsHczlq5ynYZpy/eJsW16G82YxmN/Es/Jj2ZsDqdLxSf0RnyCA8GBd5cD19mMwSMf706GfhSx190x/zHG6qMC9cimPrqqj4i+unzl9+G40+xdNPmG9vbWhB0AAAF2SURBVDuPoQ66O3jpBNOx9Th16jjYR1qVI4UfJ+bGreu/tP2n5kfIv3SNCP3Bwcty4DqbsZtc8C8byEikwD84EBwIDgQHggO3yYFoxqLxu8h/jkTBuM2CEXGLuAUHggPBgf05EM1YNGPRjAUHggPBgeBAcCA4cEEORDN2QfDj6mL/q4vANDANDgQHggPBgVvjQDRj0YzF1VBwIDgQHAgOBAeCAxfkQDRjFwT/1jr3sDeuNoMDwYHgQHAgOLA/B6IZi2YsroaCA8GB4EBwIDgQHLggB6IZuyD4cXWx/9VFYBqYBgeCA8GB4MCtcSCasWjG4mooOBAcCA4EB4IDwYELciCasQuCf2ude9gbV5vBgeBAcCA4EBzYnwPRjEUzFldDwYHgQHAgOBAcCA5ckAPRjF0Q/Li62P/qIjANTIMDwYHgQHDg1jgQzVg0Y3E1FBwIDgQHggPBgeDABTkQzdgFwb+1zj3sjavN4EBwIDgQHAgO7M+B/x9UUbTpJuuIqAAAAABJRU5ErkJggg==;" vertex="1" parent="1">
          <mxGeometry x="280" y="350" width="611" height="266" as="geometry" />
        </mxCell>
        <mxCell id="cTySW3DaNSFtTWo8WYRS-21" style="edgeStyle=orthogonalEdgeStyle;rounded=0;orthogonalLoop=1;jettySize=auto;html=1;entryX=1;entryY=0.5;entryDx=0;entryDy=0;" edge="1" parent="1" source="cTySW3DaNSFtTWo8WYRS-11" target="cTySW3DaNSFtTWo8WYRS-14">
          <mxGeometry relative="1" as="geometry" />
        </mxCell>
        <mxCell id="cTySW3DaNSFtTWo8WYRS-22" value="Read data&lt;br&gt;from /metrics" style="edgeLabel;html=1;align=center;verticalAlign=middle;resizable=0;points=[];" vertex="1" connectable="0" parent="cTySW3DaNSFtTWo8WYRS-21">
          <mxGeometry x="-0.087" relative="1" as="geometry">
            <mxPoint as="offset" />
          </mxGeometry>
        </mxCell>
        <mxCell id="cTySW3DaNSFtTWo8WYRS-24" style="edgeStyle=orthogonalEdgeStyle;rounded=0;orthogonalLoop=1;jettySize=auto;html=1;entryX=1;entryY=0.5;entryDx=0;entryDy=0;" edge="1" parent="1" source="cTySW3DaNSFtTWo8WYRS-7" target="cTySW3DaNSFtTWo8WYRS-11">
          <mxGeometry relative="1" as="geometry" />
        </mxCell>
        <mxCell id="cTySW3DaNSFtTWo8WYRS-25" value="Retrieve data" style="edgeLabel;html=1;align=center;verticalAlign=middle;resizable=0;points=[];" vertex="1" connectable="0" parent="cTySW3DaNSFtTWo8WYRS-24">
          <mxGeometry x="0.0222" y="-3" relative="1" as="geometry">
            <mxPoint x="4" as="offset" />
          </mxGeometry>
        </mxCell>
      </root>
    </mxGraphModel>
  </diagram>
</mxfile>
